<svg width="340" height="372" viewBox="0 0 340 372" fill="none" xmlns="http://www.w3.org/2000/svg">
<g clip-path="url(#clip0_14_193)">
<path d="M8.0001 286.5C10.1964 343.873 23.7728 366.624 50.3111 372H242.828C258.385 357.817 270.968 332.496 270.968 312.293C270.968 229.791 208 248.837 208 191.5V89.5C208 49.1585 191.694 32.4892 170.287 15.6707C138.957 -8.94421 83.4451 14.4646 64.5 37C22.189 87.3294 55.8018 92.8227 50.3112 151.5C44.8205 210.177 5.25476 214.783 8.0001 286.5Z" fill="black"/>
<path d="M206.538 291.791C206.538 289.768 203.738 286.177 203.733 284.345C206.087 283.924 208.055 280.735 207.534 278.738C206.615 278.035 204.207 276.653 203.211 276.007C197.143 276.191 199.449 267.749 198.762 263.458C198.071 259.259 197.557 254.869 196.545 250.647C194.748 247.269 193.904 243.481 192.186 240.12C191.419 239.006 190.179 237.984 189.808 236.69C186.049 232.585 180.875 230.125 176.617 226.648C178.27 226.119 178.159 223.89 178.053 222.459C178.437 220.592 178.026 218.25 176.323 217.198C175.748 215.323 173.232 214.668 171.761 215.863C170.795 211.532 167.015 208.904 163.055 207.297C163.058 207.285 163.062 207.272 163.065 207.259C159.072 205.674 154.285 204.884 150.3 205.775C152.403 182.338 134.453 181.478 125.342 183.447C120.683 184.455 113.691 187.591 112.102 191.951C111.206 194.413 108.632 202.352 108.266 204.884C101.309 200.914 93.2445 195.68 87.2105 203.672C86.0022 205.065 84.6652 206.099 82.8572 206.578C77.2122 208.042 69.7197 208.091 66.5112 213.846C64.5935 217.411 66.3182 219.76 65.803 223.326C40.3923 241.171 19.157 306.909 23.925 337.492C25.072 348.437 30.672 367.809 44.4943 365.394C51.5442 373.105 169.875 373.105 182.077 365.394C192.121 368.021 202.326 363.955 206.538 354.335C211.887 341.145 206.219 326.899 205.214 313.368C204.604 309.952 203.696 307.24 203.211 303.743C203.009 302.285 203.706 299.861 203.211 298.517C203.445 297.643 206.538 293.814 206.538 291.791Z" fill="white"/>
<path fill-rule="evenodd" clip-rule="evenodd" d="M115.397 192.489C115.415 192.571 115.428 192.651 115.439 192.731C115.523 193.074 115.554 193.403 115.544 193.734C115.549 193.853 115.54 193.972 115.518 194.091C115.473 194.48 115.379 194.879 115.253 195.316C114.983 196.245 114.674 197.163 114.329 198.068C113.646 199.856 112.84 201.562 111.844 203.198C110.045 206.152 107.758 208.604 105.061 210.724C105.573 211.146 106.073 211.585 106.575 212.017C108.997 214.102 111.355 216.281 113.638 218.518C117.693 222.491 121.666 226.538 125.546 230.682C127.46 232.726 129.338 234.797 131.206 236.881L131.267 236.951L131.333 237.03C131.421 237.136 131.52 237.262 131.629 237.399C132.341 238.299 133.453 239.705 134.312 239.438C134.811 239.283 135.337 238.537 135.678 238.182L136.305 237.528C136.514 237.309 136.721 237.089 136.924 236.866C140.573 232.868 144.026 228.717 147.268 224.378C148.85 222.26 150.379 220.103 151.853 217.909C152.611 216.781 153.354 215.642 154.083 214.495C154.787 213.385 155.357 212.192 156.395 211.363C157.157 210.755 158.213 211.313 158.021 212.309C157.718 213.879 156.632 215.207 155.776 216.533C154.917 217.867 154.038 219.187 153.138 220.493C151.408 223.008 149.602 225.47 147.732 227.883C146.121 229.96 144.441 231.985 142.715 233.968L142.243 234.508C140.387 236.624 138.565 238.87 136.514 240.802C134.677 242.532 132.671 242.028 130.998 240.347C128.881 238.221 126.917 235.923 124.88 233.72C120.811 229.318 116.7 224.95 112.546 220.628L111.18 219.205C109.588 217.543 108.002 215.871 106.458 214.168L106.259 213.946C104.498 211.965 102.707 209.483 100.203 208.476C100.022 208.403 100.089 208.146 100.284 208.182C101.887 208.478 103.225 209.286 104.47 210.25C105.589 208.399 106.587 206.447 107.458 204.45L106.899 204.208C102.903 202.481 98.3997 200.74 94.1095 201.02C92.3805 201.132 90.5357 201.787 89.342 203.085C88.261 204.261 87.7212 205.847 86.7292 207.099C85.593 208.533 84.111 209.179 82.2922 209.237L81.4077 209.264C80.3907 209.297 79.4152 209.35 78.3835 209.574C75.588 210.18 72.6407 211.163 70.2962 212.842C69.4457 213.451 68.5677 214.289 68.1565 215.212C67.7487 216.126 67.6315 217.196 67.5917 218.182C67.5845 218.363 67.6005 218.566 67.6167 218.773C67.6435 219.117 67.6712 219.471 67.5965 219.758C67.61 219.706 67.6162 219.734 67.618 219.789C67.9927 220.085 68.248 220.576 68.2757 221.065C70.6127 219.847 73.032 218.78 75.4982 217.818C78.2442 216.746 81.0755 215.888 83.9072 215.075C86.6787 214.28 89.5797 213.951 92.405 213.384C92.7647 213.311 92.8897 213.797 92.5545 213.926C89.585 215.067 86.7117 216.419 83.7175 217.492C80.7247 218.564 77.7542 219.725 74.8482 221.016C69.2312 223.511 63.8055 226.686 59.3802 230.994C55.0582 235.201 51.7245 240.313 48.624 245.452C45.5015 250.627 42.7147 255.991 40.231 261.5C35.3175 272.4 31.633 283.86 29.2072 295.566C26.8465 306.958 25.5275 318.756 25.9667 330.399C26.1752 335.929 26.8507 341.464 28.4217 346.782C29.1722 349.323 30.1117 351.806 31.2987 354.176C32.5505 356.675 34.237 358.901 35.38 361.443C35.474 361.652 35.51 361.852 35.5047 362.039C40.3797 366.263 48.0102 363.416 53.2862 360.895C65.4262 355.09 77.3412 348.737 88.6662 341.447C99.8437 334.252 110.436 326.222 120.779 317.887C119.979 317.062 119.273 316.137 118.654 315.3C117.374 313.57 116.411 311.61 115.749 309.564C114.974 307.169 114.733 304.607 114.954 302.105L115.016 301.397C115.227 299.034 115.47 296.636 115.989 294.327C115.993 294.297 116.016 294.284 116.041 294.284C116.066 294.284 116.091 294.3 116.101 294.327C117.499 298.8 117.611 303.607 119.181 308.022C119.813 309.797 120.793 311.512 121.969 312.985C122.476 313.622 123.071 314.175 123.678 314.715C123.719 314.439 123.773 314.167 123.856 313.9L123.921 313.688C124.003 313.431 124.103 313.145 124.243 312.892C124.046 312.835 123.854 312.772 123.664 312.702C123.513 312.647 123.481 312.405 123.664 312.365C124.161 312.25 124.674 312.192 125.196 312.167C125.279 312.155 125.358 312.152 125.438 312.157C126.076 312.137 126.72 312.16 127.353 312.183C127.691 312.195 128.025 312.207 128.354 312.212C129.986 312.237 131.614 312.267 133.243 312.34C134.027 312.374 134.835 312.437 135.656 312.5C138.104 312.691 140.657 312.89 142.956 312.347C145.746 311.687 148.496 309.827 150.733 308.077C152.688 306.547 154.196 304.73 155.818 302.917C155.702 302.936 155.586 302.953 155.471 302.969L154.425 303.112C153.104 303.288 151.537 303.427 150.489 302.792C150.088 302.55 150.204 302 150.611 301.849C151.313 301.592 152.125 301.643 152.922 301.694C153.341 301.72 153.756 301.746 154.148 301.727C155.043 301.684 155.949 301.59 156.831 301.405C157.121 301.345 157.408 301.275 157.693 301.192C159.783 300.59 162.239 298.47 160.579 296.155C160.516 296.067 160.586 295.987 160.671 295.972C160.709 295.965 160.749 295.972 160.781 296C162.671 297.564 161.688 300.369 159.901 301.572C159.286 301.987 158.591 302.277 157.871 302.49C158.009 302.742 158.033 303.052 157.868 303.347C156.469 305.842 154.099 308.034 151.878 309.797C149.599 311.607 146.969 313.314 144.141 314.115C141.496 314.86 138.64 314.547 135.889 314.246C135.244 314.175 134.605 314.105 133.976 314.05C132.181 313.892 130.391 313.704 128.599 313.497C128.118 313.442 127.621 313.4 127.116 313.352C127.591 313.977 127.969 314.697 128.216 315.13C129.021 316.534 128.279 318.385 126.719 318.814C126.556 318.86 126.388 318.885 126.224 318.889C125.803 319.732 124.803 320.352 123.878 320.034C123.476 319.897 123.088 319.71 122.716 319.485C116.898 324.595 110.773 329.389 104.474 333.885C92.7912 342.22 80.546 349.832 67.8487 356.525C64.9887 358.032 62.107 359.499 59.2007 360.909L56.6992 362.115C53.9305 363.447 51.0967 364.773 48.1562 365.599C47.583 365.761 46.9827 365.891 46.3677 365.991C46.3598 366.046 46.3578 366.098 46.3614 366.149C45.8085 366.223 45.326 366.234 44.9141 366.183L44.8202 366.17C41.216 366.422 37.3607 365.542 35.042 362.909C34.6555 363.18 34.092 363.21 33.5947 362.82C31.094 360.858 29.6032 357.87 28.295 355.018C26.9685 352.125 25.9287 349.11 25.1647 346.021C23.6387 339.851 23.0335 333.487 23.0016 327.141C22.8862 302.686 29.0108 278.017 39.6487 256.062C42.3467 250.494 45.3207 245.029 48.6222 239.795C51.9147 234.575 55.738 229.724 60.6342 225.917C62.0422 224.822 63.507 223.822 65.0177 222.9C64.0037 222.397 63.601 221.119 63.53 219.983C63.3725 217.462 63.673 214.556 65.1495 212.429C67.2207 209.444 70.9285 207.603 74.3665 206.708C76.1612 206.241 78.0177 205.969 79.869 205.877C80.2895 205.856 80.7172 205.875 81.145 205.893C81.688 205.917 82.2307 205.941 82.7582 205.883C83.5902 205.793 84.1047 205.296 84.5832 204.643C85.809 202.97 86.607 201.215 88.3652 199.989C90.1692 198.73 92.507 198.249 94.6802 198.379C97.212 198.532 99.5217 199.529 101.751 200.675C103.764 201.71 105.717 202.856 107.621 204.078C107.97 203.261 108.299 202.437 108.605 201.61C109.198 200.007 109.713 198.353 110.132 196.696C110.556 195.016 110.494 192.797 111.776 191.533C112.89 190.435 115.036 190.866 115.397 192.489ZM150.703 200.615C150.743 199.796 150.783 198.967 150.604 198.2C150.579 198.094 150.445 198.096 150.39 198.172C149.818 198.968 149.607 200.034 149.466 201.05L149.434 201.283L149.304 202.288C149.134 203.656 149.07 205.033 149.152 206.41C149.237 207.839 149.438 209.27 149.753 210.667C150.078 212.112 150.32 213.628 151.534 214.559C152.391 215.217 153.423 214.297 153.491 213.436C153.559 212.583 153.127 211.712 152.713 210.878C152.524 210.496 152.338 210.122 152.206 209.76C151.81 208.679 151.494 207.568 151.252 206.442C153.832 205.673 156.623 206.101 159.204 206.901L159.555 207.01C162.348 207.878 165.597 208.96 167.035 211.658C167.786 213.068 168.519 214.178 169.921 215.008C171.139 215.728 172.667 216.117 173.477 217.364C174.126 218.36 174.037 219.31 173.864 220.331L173.744 221.024L173.715 221.202C173.627 221.761 173.603 222.319 173.698 222.824C172.045 221.776 170.356 220.785 168.631 219.847C169.116 219.288 169.56 218.706 169.909 218.096C170.156 217.667 170.167 217.118 169.909 216.69C168.829 214.89 167.262 216.861 166.358 217.998C166.232 218.156 166.12 218.298 166.023 218.411L165.72 218.763C164.504 220.162 163.216 221.496 161.885 222.787C159.031 225.554 155.994 228.133 153.026 230.776C147.382 235.802 141.169 241.218 138.172 248.342C138.111 248.486 138.329 248.55 138.407 248.441C142.777 242.425 148.029 237.532 153.837 232.923C156.719 230.638 159.621 228.388 162.378 225.95C163.698 224.784 164.988 223.585 166.226 222.332L166.483 222.073C167.091 221.465 167.741 220.833 168.344 220.17C175.178 226.067 182.789 231.197 188.071 238.657C190.168 241.618 191.898 244.825 193.267 248.181C195.411 256.585 197.117 265.091 198.382 273.671C197.861 272.719 196.501 272.052 195.541 271.699L195.381 271.642C194.031 271.172 192.621 271.122 191.279 271.572C190.601 271.139 189.858 270.797 189.079 270.53C189.414 269.612 188.861 268.237 188.176 267.639C186.901 266.533 185.029 266.566 183.356 266.725L183.057 266.754L182.164 266.849C181.763 266.892 181.493 267.139 181.463 267.55C181.446 267.79 181.436 268.025 181.438 268.26C181.443 268.682 181.483 269.097 181.574 269.5C178.706 269.449 175.829 269.574 172.957 269.699C171.868 269.747 170.78 269.794 169.693 269.832C168.559 269.872 167.426 269.912 166.291 269.95C166.176 268.425 164.818 267.677 163.271 267.397C164.406 266.385 165.378 265.005 164.666 263.48C163.921 261.882 161.861 261.74 160.408 262.337C159.366 262.762 158.533 263.562 157.499 263.99C156.454 264.422 155.321 264.3 154.226 264.155L154.024 264.128C153.901 264.111 153.776 264.093 153.651 264.076C152.065 263.852 150.366 263.612 148.954 264.514C147.176 265.65 147.349 268.15 145.571 269.204C144.664 269.744 143.559 269.919 142.573 270.272C141.519 270.647 140.576 271.184 139.704 271.887C137.908 273.332 136.543 275.24 135.003 276.937C133.241 278.872 131.408 280.737 129.483 282.51C125.141 286.507 120.196 289.837 115.969 293.945C115.881 294.03 115.954 294.155 116.051 294.165C116.073 294.165 116.099 294.159 116.124 294.147C119.743 292.179 123.079 289.664 126.312 287.109L126.936 286.615C130.446 283.825 133.854 280.857 136.831 277.497C138.181 275.972 139.421 274.252 141.071 273.027C142.611 271.882 144.474 271.717 146.151 270.885C147.906 270.012 148.211 268.567 149.081 266.982C149.892 265.5 151.367 265.526 152.82 265.717L152.97 265.737L153.874 265.867C155.884 266.139 157.586 266.085 159.346 264.987C159.502 264.89 159.659 264.785 159.819 264.678C160.53 264.202 161.289 263.693 162.158 263.755C164.164 263.895 162.499 265.813 161.66 266.494L161.607 266.536L161.533 266.592C161.283 266.777 161.171 267.025 161.161 267.277C160.684 267.3 160.236 267.36 159.849 267.439C158.599 267.704 157.516 268.46 157.378 269.812C157.341 270.189 157.416 270.637 157.624 270.96C156.901 271.257 156.116 271.695 155.424 272.24C153.886 272.712 152.334 273.875 150.979 274.665C149.991 275.24 148.789 275.835 147.793 276.577C146.186 276.86 144.584 277.22 143.144 277.829C143.009 277.889 143.088 278.09 143.216 278.092C144.331 278.127 145.479 278.005 146.621 277.845C146.634 277.852 146.648 277.857 146.666 277.855C146.906 277.832 147.146 277.79 147.391 277.73C148.176 277.61 148.956 277.485 149.719 277.389C151.084 277.22 152.454 277.059 153.821 276.907C154.713 276.807 155.606 276.71 156.499 276.615C160.871 276.145 165.259 275.84 169.651 275.672C169.86 275.664 170.107 275.646 170.378 275.625C172.191 275.489 175.089 275.272 174.959 277.527C174.857 279.242 173.123 280.257 171.67 280.758L171.523 280.807C167.956 281.977 163.914 281.967 160.206 282.402C158.013 282.662 155.824 282.954 153.656 283.372C151.398 283.809 148.983 284.29 146.926 285.352C146.266 285.692 146.493 286.532 147.039 286.782C147.031 286.797 147.023 286.814 147.019 286.832C146.981 286.942 147.061 287.079 147.174 287.107C147.204 287.115 147.233 287.119 147.263 287.125C145.981 287.397 144.713 287.742 143.474 288.152C143.344 288.195 143.398 288.38 143.531 288.357C146.711 287.777 149.954 287.514 153.186 287.667C154.829 287.744 156.469 287.862 158.096 288.119C159.584 288.355 161.303 288.572 162.611 289.367C162.906 289.544 163.178 289.775 163.404 290.034C163.356 290.304 163.404 290.585 163.591 290.869C163.654 290.967 163.846 290.972 163.868 290.832C163.871 290.814 163.876 290.794 163.881 290.777C164.181 291.482 164.114 292.262 163.364 292.862C162.557 293.508 161.356 293.669 160.336 293.757L160.128 293.775C156.881 294.042 153.599 294.059 150.361 294.425C149.571 294.512 149.211 295.242 149.318 295.842C149.311 295.837 149.301 295.832 149.293 295.825C149.306 295.919 149.341 296.01 149.394 296.095C149.394 296.099 149.396 296.102 149.401 296.107C149.551 296.427 149.868 296.657 150.361 296.635C152.604 296.54 154.851 296.247 157.086 296.042C158.253 295.934 159.456 295.885 160.634 295.722C161.156 295.647 161.674 295.554 162.181 295.422C164.846 294.73 166.924 292.304 165.306 289.63C165.562 289.524 165.819 289.434 166.048 289.357L166.501 289.207C167.396 288.912 168.303 288.675 169.229 288.512C170.029 288.375 170.829 288.292 171.628 288.264C171.071 289.732 171.128 291.684 171.309 292.99C171.574 294.892 172.571 297.627 174.361 298.63C173.196 299.45 172.424 300.665 173.366 301.954C172.391 303.49 172.553 305.405 173.651 306.902C174.686 308.314 176.338 309.005 178.021 309.365C178.029 311.525 178.469 313.78 178.731 315.875C179.059 318.477 179.378 321.079 179.661 323.687C180.206 328.742 180.641 333.802 180.781 338.885C180.903 343.301 180.722 347.695 180.498 352.099L180.401 353.987C180.269 356.552 180.209 359.125 180.293 361.692C180.309 362.105 180.318 362.527 180.334 362.957L180.349 363.4C180.406 364.955 180.523 366.571 180.92 368.048L181.031 368.146C181.701 368.73 182.446 369.157 183.265 369.426C183.458 368.939 183.305 368.37 182.966 367.992C182.946 367.335 182.897 366.676 182.836 366.017C183.864 366.577 185.009 366.947 185.826 367.115C188.211 367.607 190.676 367.425 193.001 366.722C203.043 363.687 208.571 353.342 209.361 343.454C209.622 340.206 209.447 336.952 209.007 333.726C208.867 329.902 208.13 326.147 207.341 322.407L207.024 320.911L206.787 319.79C205.679 314.514 205.001 309.181 204.37 303.831C204.317 303.38 204.074 303.057 203.76 302.862C203.872 302.626 203.958 302.362 204.011 302.062C204.157 301.25 204.087 300.457 204.019 299.688C203.896 298.295 203.78 296.977 204.966 295.755C205.012 295.707 205.058 295.66 205.104 295.613C206.489 294.19 207.778 292.866 206.926 290.724C206.64 290.004 206.166 289.339 205.692 288.672C204.885 287.539 204.076 286.403 204.184 284.99C204.196 284.812 203.981 284.722 203.846 284.794C203.813 284.812 203.789 284.84 203.769 284.877C203.011 286.364 203.879 287.747 204.727 289.096C205.596 290.48 206.444 291.83 205.496 293.224C204.511 294.672 202.868 295.329 202.489 297.197C202.367 297.797 202.445 298.549 202.526 299.323C202.661 300.618 202.802 301.973 202.021 302.775C201.731 303.07 199.876 304.054 199.611 304.282C199.021 304.782 198.539 305.397 198.111 306.037C197.273 307.292 196.701 308.702 195.906 309.982C195.854 310.067 195.799 310.152 195.743 310.237C194.733 311.782 193.356 312.617 191.461 312.287C189.341 311.919 187.608 310.369 185.716 309.439C183.466 308.335 181.016 308.377 178.611 307.887C178.509 307.867 178.406 307.845 178.303 307.822C177.209 307.572 176.066 307.172 175.273 306.357C174.441 305.502 173.959 304.054 174.604 302.974C175.302 303.299 176.107 303.389 176.894 303.432L177.156 303.444L178.634 303.503C180.306 303.564 181.98 303.598 183.654 303.605C185.604 303.61 187.556 303.579 189.506 303.51L189.715 303.503C191.53 303.446 193.501 303.485 195.259 303.04C195.924 302.872 195.719 301.972 195.106 301.912C194.074 301.813 192.988 301.897 191.923 301.979C191.519 302.01 191.118 302.042 190.724 302.062C189.261 302.137 187.799 302.189 186.336 302.222C183.408 302.284 180.481 302.264 177.556 302.155C176.826 302.127 175.326 302.022 174.621 301.465C174.221 301.147 174.079 300.679 174.483 299.997C175.094 298.97 176.861 298.622 177.896 298.272L178.246 298.155C179.999 297.575 181.766 297.062 183.568 296.717L184.075 296.716C188.701 296.689 193.26 296.115 197.769 295.067C198.479 294.902 198.174 293.845 197.469 293.982C193.646 294.73 189.751 295.155 185.858 295.292C184.001 295.357 182.144 295.345 180.289 295.255L180.219 295.252C180.101 295.247 179.976 295.244 179.846 295.242C179.003 295.225 177.948 295.203 177.406 294.59C176.821 293.932 177.003 292.869 177.418 292.182C178.212 290.864 179.998 290.163 181.378 289.565L181.568 289.482L182.029 289.284C183.55 288.639 185.118 288.086 186.706 287.622C188.878 286.99 191.101 286.575 193.338 286.264C194.783 286.062 196.233 285.902 197.684 285.755C197.881 285.735 197.878 285.472 197.684 285.45C197.081 285.375 196.476 285.325 195.871 285.297C196.574 285.03 197.271 284.757 197.966 284.482C198.693 284.195 199.543 283.985 200.158 283.522C200.394 283.517 200.628 283.505 200.858 283.48C201.799 283.38 202.166 281.96 201.099 281.707C200.726 281.619 200.346 281.557 199.961 281.512C198.886 281.385 197.776 281.385 196.713 281.312L196.549 281.302C196.214 281.284 195.864 281.277 195.509 281.269C194.521 281.249 193.489 281.227 192.601 280.965C191.021 280.495 192.226 278.864 193.064 278.138L193.155 278.061L193.243 277.992C194.199 277.27 195.396 276.867 196.579 276.732C197.93 276.579 199.296 276.718 200.634 276.932L201.163 277.019C202.444 277.229 203.87 277.386 205.023 278C206.401 278.732 207.036 280.067 206.233 281.51C205.642 282.572 204.533 283.237 203.465 283.826L203.054 284.051L202.753 284.217C202.574 284.317 202.699 284.577 202.888 284.537C203.171 284.48 203.454 284.415 203.733 284.345C205.151 283.985 206.509 283.415 207.438 282.215C208.533 280.802 208.511 279 207.421 277.597C206.41 276.3 204.886 275.793 203.342 275.445L203.127 275.398L202.696 275.307C201.955 275.157 201.205 275.008 200.451 274.886C200.767 274.611 200.97 274.196 200.896 273.686C200.332 269.789 199.671 265.908 198.926 262.044C198.982 260.935 198.721 259.729 198.481 258.62C198.414 258.314 198.349 258.015 198.293 257.727L198.208 257.296C197.889 255.714 197.505 254.146 197.051 252.597C196.879 252.012 196.695 251.431 196.504 250.853C196.237 249.745 194.09 244.815 193.269 243.129L193.175 242.938L193.094 242.78C189.726 236.385 184.868 230.95 179.124 226.59C178.138 225.841 177.134 225.121 176.117 224.423C176.591 224.115 176.882 223.482 176.73 222.925C176.536 222.215 176.465 221.912 176.608 221.174C176.768 220.354 176.907 219.568 176.821 218.727C176.66 217.148 175.9 215.617 174.675 214.594C173.474 213.589 171.925 213.239 170.675 212.332C169.868 211.747 169.542 210.823 169.033 210.006C168.608 209.324 168.101 208.706 167.489 208.184C165.011 206.071 161.351 205.031 158.188 204.561C155.743 204.198 153.208 204.343 151.062 205.472C150.858 204.315 150.72 203.148 150.675 201.974C150.658 201.533 150.681 201.076 150.703 200.615ZM100.938 226.628C99.5715 225.226 98.249 223.587 96.6342 222.466C96.5197 222.387 96.4062 222.537 96.458 222.643C97.3795 224.519 98.9202 226.175 100.179 227.836L100.779 228.623C101.78 229.93 102.796 231.226 103.819 232.517C106.007 235.276 108.25 237.987 110.695 240.524C115.415 245.423 120.766 249.753 127.226 252.095C128.758 252.65 129.427 250.198 127.899 249.654C121.583 247.408 116.407 243.011 111.831 238.232C109.534 235.834 107.311 233.367 105.047 230.939C103.692 229.487 102.324 228.051 100.938 226.628ZM69.332 236.738C70.5417 238.51 71.297 240.867 72.042 242.893L72.1165 243.094C72.9085 245.223 73.6725 247.369 74.385 249.526C75.8072 253.832 77.6607 258.339 78.0032 262.888C78.0665 263.727 76.7817 264.064 76.4092 263.32C75.339 261.18 74.7635 258.951 74.1302 256.657C73.5262 254.47 72.897 252.29 72.2675 250.11C71.6382 247.931 71.0295 245.746 70.4097 243.564C69.807 241.442 68.9677 239.082 68.8297 236.874C68.8117 236.587 69.193 236.534 69.332 236.738ZM62.231 253.534C64.605 258.331 66.391 263.431 67.7385 268.605C68.3892 271.104 68.9412 273.627 69.3852 276.17L69.531 277.02L69.6137 277.481C69.6412 277.63 69.669 277.781 69.697 277.932C70.093 280.071 70.515 282.35 69.946 284.416C69.7472 285.139 68.5472 285.425 68.2112 284.643C67.1977 282.283 67.3402 279.57 67.0465 277.045C66.7377 274.395 66.3165 271.757 65.7915 269.142C64.7832 264.115 63.3677 259.207 61.79 254.335L61.614 253.794C61.48 253.434 62.0635 253.196 62.231 253.534ZM173.961 273.481C173.827 272.993 174.128 272.349 174.66 272.251C175.604 272.077 176.583 272.058 177.495 272.395C178.004 272.583 178.347 273.067 178.194 273.625C178.06 274.115 177.47 274.511 176.964 274.324C176.388 274.112 175.796 274.069 175.191 274.18L175.14 274.188C174.624 274.262 174.11 274.022 173.961 273.481ZM181.164 272.59C181.058 272.624 180.964 272.68 180.882 272.756L180.843 272.796C180.745 272.887 180.676 272.994 180.636 273.118C180.573 273.238 180.544 273.366 180.55 273.504L180.585 273.769C180.633 273.939 180.719 274.086 180.843 274.211L181.045 274.367C181.181 274.446 181.327 274.491 181.483 274.501L181.55 274.504L181.752 274.504C181.868 274.5 181.977 274.471 182.079 274.417C182.185 274.383 182.279 274.327 182.361 274.251L182.401 274.211C182.498 274.12 182.567 274.013 182.607 273.889C182.661 273.787 182.69 273.678 182.694 273.562V273.504L182.658 273.238C182.616 273.089 182.545 272.958 182.445 272.844L182.401 272.796L182.198 272.64C182.062 272.561 181.916 272.516 181.761 272.506L181.694 272.504H181.55C181.412 272.498 181.283 272.527 181.164 272.59ZM151.441 275.934C152.066 275.63 152.773 275.325 153.481 274.992C153.436 275.212 153.414 275.439 153.421 275.669C152.711 275.775 152.001 275.887 151.293 276.007C151.344 275.982 151.394 275.96 151.441 275.934ZM172.464 288.58L172.529 288.255C173.493 288.27 174.461 288.36 175.426 288.522C176.914 288.772 177.793 289.025 179.006 289.23C178.934 289.264 178.858 289.304 178.786 289.345L178.618 289.438C177.278 290.195 176.027 291.264 175.749 292.857C175.256 295.676 177.534 296.466 179.949 296.67L180.097 296.682L180.326 296.697C178.881 296.974 177.456 297.345 176.061 297.787C175.894 297.84 175.721 297.905 175.546 297.977C175.533 297.892 175.503 297.804 175.456 297.717C174.999 296.895 174.281 296.264 173.786 295.462C173.263 294.61 172.896 293.679 172.634 292.717C172.366 291.744 172.251 290.737 172.301 289.73C172.319 289.345 172.389 288.961 172.464 288.58ZM72.9565 292.025C72.9755 293.234 72.6265 294.503 72.29 295.728C72.1595 296.202 72.0307 296.67 71.926 297.126C71.5225 298.881 71.12 300.637 70.712 302.392L70.3452 303.964C70.0395 305.275 69.7382 306.586 69.4682 307.904C69.2462 308.988 69.1532 310.416 68.7895 311.611C73.1162 309.861 77.4497 308.129 81.776 306.385C87.106 304.235 92.461 302.145 97.8035 300.03C103.126 297.925 108.418 295.53 113.849 293.73C115.141 293.3 116.016 295.362 114.778 295.934C109.263 298.492 103.428 300.495 97.7785 302.735L89.6057 305.979C82.1135 308.952 74.616 311.911 67.081 314.767C61.9485 316.712 56.836 318.715 51.671 320.562C49.2085 321.442 46.7238 322.275 44.2736 323.187C42.2211 323.952 40.0011 325.087 39.2411 327.292C39.2011 327.407 39.0436 327.36 39.0611 327.242C39.3686 325.107 40.9538 323.772 42.7411 322.762C45.1133 321.418 47.7187 320.44 50.2227 319.362L50.5635 319.215C55.6767 316.985 60.8312 314.845 66.001 312.741C65.9497 312.616 65.9195 312.482 65.9172 312.342L65.9025 312.346C65.8267 311.575 66.0972 310.872 66.3702 310.162C66.4355 309.992 66.5012 309.821 66.562 309.649L67.4662 307.098C68.0687 305.399 68.6092 303.68 69.166 301.966C69.7482 300.174 70.336 298.384 70.9227 296.594C71.4197 295.078 71.7537 293.271 72.604 291.916C72.7065 291.752 72.989 291.844 72.9565 292.025ZM201.758 304.607L201.767 304.606C202.072 304.653 202.813 315.673 203.996 320.687L204.086 321.071C205.492 327.091 206.502 333.052 206.543 339.287C206.579 344.827 205.469 350.365 202.443 355.07C199.924 358.992 196.099 362.202 191.499 363.292C189.476 363.77 187.181 363.782 185.281 362.837C184.381 362.389 183.709 361.385 182.724 361.155C182.628 361.132 182.533 361.117 182.438 361.11C182.404 359.16 182.462 357.208 182.533 355.259L182.622 352.864C182.8 347.954 182.92 343.061 182.681 338.15C182.434 333.077 181.946 328.007 181.246 322.977C180.886 320.382 180.511 317.78 180.051 315.2C179.721 313.36 179.463 311.365 178.908 309.527C179.081 309.554 179.253 309.577 179.424 309.599C180.846 309.777 182.293 309.777 183.693 310.127C184.927 310.434 185.987 311.035 187.057 311.686L187.442 311.922C187.569 312 187.697 312.08 187.826 312.161C189.434 313.162 191.205 314.265 193.146 313.972C194.126 313.825 194.904 313.442 195.551 312.909C195.566 314.107 195.668 315.312 195.918 316.485C196.311 318.324 196.986 320.056 197.726 321.772L197.938 322.262L198.154 322.752C199.039 324.757 200.023 326.72 200.706 328.809L200.707 328.812C200.805 328.834 200.898 328.855 200.987 328.876C201.985 329.106 202.46 329.215 203.054 328.103C203.105 328.008 203.165 327.931 203.229 327.866C202.633 326.177 201.866 324.544 201.084 322.939C200.111 320.945 199.059 318.985 198.219 316.927C197.741 315.762 197.329 314.55 197.013 313.327C196.876 312.794 196.806 312.222 196.706 311.659C197.926 309.982 199.166 306.143 201.758 304.607Z" fill="black"/>
<path d="M168.106 122.481C167.14 116.641 170.308 115.429 168.106 109.878C163.21 99.5919 149.869 100.035 140.079 99.2443C129.159 98.8258 118.107 100.267 108.041 104.644C105.636 105.689 103.324 106.918 101.107 108.315C99.1896 109.523 99.4531 111.819 100.662 113.072C91.9456 125.415 96.9309 141.983 89.9761 154.976C88.6914 157.298 86.9921 159.38 85.8754 161.797C84.1779 165.47 84.0691 170.733 87.9186 173.173C93.3404 176.083 96.3659 170.321 99.0299 178.673C112.334 207.796 139.084 209.436 164.478 194.253C166.675 193.031 168.917 191.649 170.576 189.729C174.342 185.492 173.899 179.532 173.982 174.24C174.028 171.139 174.036 168.037 174.006 164.935C173.887 152.37 169.723 134.941 168.106 122.481Z" fill="white"/>
<mask id="path-5-inside-1_14_193" fill="white">
<path fill-rule="evenodd" clip-rule="evenodd" d="M163.466 79.6895C146.741 77.9595 129.351 80.597 114.019 87.552C105.906 91.232 98.4561 96.297 91.9264 102.36C90.7339 102.025 89.4289 101.955 88.3439 102.142C86.5689 102.45 84.9439 103.465 83.8789 104.914C82.2589 107.114 82.3164 109.919 83.5464 112.149C83.3511 112.307 83.1714 112.487 83.0064 112.682C81.7089 114.229 81.8439 116.227 82.7964 117.919C83.0628 118.394 83.5422 118.919 84.0495 119.475C85.0844 120.609 86.2358 121.87 85.9339 123.089C85.7314 123.917 84.9964 124.692 84.5689 125.419C84.0364 126.324 83.5864 127.269 83.1864 128.239C80.0724 135.758 81.2514 143.837 83.0081 151.51L83.1662 152.197C83.5138 153.734 83.8336 155.536 84.4064 157.197C80.1589 163.047 81.1789 172.967 88.1264 176.279C89.8339 177.094 91.7339 177.554 93.6314 177.492C94.6214 177.457 95.6539 177.322 96.5914 176.997C97.0589 176.834 97.5214 176.627 97.8839 176.294C98.7539 180.897 100.741 185.137 103.239 189.124C104.646 191.367 106.279 193.607 108.169 195.469C110.166 197.434 113.614 199.354 116.049 196.937C116.879 196.114 116.612 194.837 115.699 194.227C113.989 193.077 112.179 192.372 110.669 190.909C108.989 189.282 107.399 187.524 105.899 185.732C103.76 183.176 101.88 180.389 100.041 177.592L98.5414 175.304C98.5447 175.297 98.5475 175.289 98.55 175.282L98.5639 175.234C98.5679 175.211 98.5717 175.188 98.5753 175.166L98.6116 174.932C98.6201 174.914 98.6308 174.891 98.6435 174.863L98.7039 174.727C99.1636 173.844 98.5914 172.829 97.5914 172.787C97.2699 172.787 97.2255 172.777 97.4564 172.755L97.5514 172.747C97.2089 172.547 96.8389 172.447 96.4389 172.447C95.9714 172.447 95.5264 172.607 95.0789 172.717C94.4189 172.879 93.8311 172.994 93.1514 172.992C91.7564 172.987 90.4114 172.584 89.2339 171.842C86.5139 170.127 85.7289 166.449 86.1689 163.439C86.2939 162.587 86.4989 161.782 86.7914 161.032C87.1539 161.339 87.5589 161.602 88.0114 161.814C88.0789 161.847 88.1339 161.754 88.0714 161.712C87.6289 161.427 87.2489 161.087 86.9241 160.707C87.7389 158.802 89.1164 157.259 91.0739 156.177C92.3089 155.494 93.7039 155.169 95.0764 155.217C95.0811 155.257 95.0889 155.297 95.0964 155.337C95.2465 156.119 95.6176 156.513 96.1575 156.987L96.3511 157.154C97.0889 157.784 98.0339 157.727 98.6289 157.134L98.6436 157.154C98.8339 156.967 98.9964 156.792 99.1364 156.619C99.4136 156.827 99.6764 157.059 99.9241 157.317C100.016 157.412 100.171 157.289 100.109 157.174C99.9136 156.822 99.6939 156.489 99.4489 156.182C99.7664 155.652 99.8889 155.092 99.8914 154.272C99.893 153.426 99.8694 152.577 99.8459 151.73C99.8373 151.42 99.8287 151.111 99.8214 150.802C99.7686 148.569 99.6539 146.337 99.5664 144.104C99.5449 143.545 99.4993 142.967 99.4531 142.38C99.3433 140.986 99.23 139.548 99.4289 138.227C99.5935 137.134 100.254 136.877 101.164 136.612L102.347 136.27C105.127 135.456 107.943 134.437 108.546 131.149C108.921 129.103 108.299 127.19 107.675 125.27C107.229 123.895 106.781 122.516 106.696 121.082C106.516 118.069 107.441 115.002 109.154 112.509C110.814 112.939 112.466 113.397 114.154 113.734C116.489 114.204 118.831 114.624 121.181 115.004C125.799 115.752 130.431 116.349 135.099 116.697C144.454 117.392 153.879 117.042 163.159 115.644C164.479 115.447 165.794 115.214 167.099 114.927C167.091 115.149 167.081 115.374 167.069 115.599C166.996 116.854 166.961 118.102 166.959 119.357C166.916 119.684 166.926 120.039 166.987 120.427L167.056 120.879C167.106 121.194 167.231 121.482 167.416 121.734C167.862 128.684 168.799 135.597 169.691 142.507L169.904 144.16C170.963 152.425 171.968 160.7 172.811 168.989C172.886 169.724 172.975 170.471 173.065 171.225C173.467 174.593 173.886 178.108 173.149 181.374C172.419 184.617 170.349 187.137 167.771 189.152C161.714 193.894 154.119 197.025 146.724 198.944C142.764 199.972 138.481 200.997 134.369 200.949C132.896 200.932 131.334 200.754 129.987 200.119C128.836 199.579 128.113 198.607 127.453 197.56L127.326 197.357C126.776 196.469 125.171 196.519 124.949 197.667C124.286 201.064 127.362 203.179 130.294 203.999C133.631 204.933 137.107 204.499 140.481 203.984L141.064 203.894C149.804 202.539 158.121 199.619 166.024 195.697C169.521 193.962 172.774 191.624 175.159 188.504C177.816 185.024 178.639 180.907 178.406 176.594C178.146 171.842 177.396 167.077 176.796 162.359L176.609 160.901C176.046 156.525 175.458 152.152 174.801 147.789C173.544 139.432 172.181 131.024 169.926 122.869C169.976 122.864 170.026 122.859 170.076 122.852C171.501 122.637 172.341 121.549 172.464 120.147L172.694 117.514L172.819 117.522C176.955 117.777 182.331 117.266 184.239 112.982C184.904 111.489 185.071 109.832 184.761 108.334C187.521 107.619 190.084 106.127 192.059 104.065C193.084 102.994 193.011 101.447 192.059 100.362C191.494 99.7145 190.891 99.1345 190.256 98.6145C192.059 97.9743 193.749 96.7745 194.689 95.102C195.899 92.9495 195.424 90.3145 193.731 88.572C192.277 87.0726 190.214 86.3415 188.3 85.6049L187.621 85.3423C179.868 82.3711 171.721 80.5421 163.466 79.6895ZM94.9865 161.269C92.6115 161.067 90.6865 161.872 88.9437 163.409C88.7715 163.559 88.9612 163.794 89.1512 163.762C90.8787 163.457 92.9212 163.799 94.5715 164.332C96.4087 164.927 97.3965 166.177 98.8765 167.284C100.501 168.499 102.759 166.127 101.651 164.509C100.249 162.462 97.374 161.474 94.9865 161.269Z"/>
</mask>
<path fill-rule="evenodd" clip-rule="evenodd" d="M163.466 79.6895C146.741 77.9595 129.351 80.597 114.019 87.552C105.906 91.232 98.4561 96.297 91.9264 102.36C90.7339 102.025 89.4289 101.955 88.3439 102.142C86.5689 102.45 84.9439 103.465 83.8789 104.914C82.2589 107.114 82.3164 109.919 83.5464 112.149C83.3511 112.307 83.1714 112.487 83.0064 112.682C81.7089 114.229 81.8439 116.227 82.7964 117.919C83.0628 118.394 83.5422 118.919 84.0495 119.475C85.0844 120.609 86.2358 121.87 85.9339 123.089C85.7314 123.917 84.9964 124.692 84.5689 125.419C84.0364 126.324 83.5864 127.269 83.1864 128.239C80.0724 135.758 81.2514 143.837 83.0081 151.51L83.1662 152.197C83.5138 153.734 83.8336 155.536 84.4064 157.197C80.1589 163.047 81.1789 172.967 88.1264 176.279C89.8339 177.094 91.7339 177.554 93.6314 177.492C94.6214 177.457 95.6539 177.322 96.5914 176.997C97.0589 176.834 97.5214 176.627 97.8839 176.294C98.7539 180.897 100.741 185.137 103.239 189.124C104.646 191.367 106.279 193.607 108.169 195.469C110.166 197.434 113.614 199.354 116.049 196.937C116.879 196.114 116.612 194.837 115.699 194.227C113.989 193.077 112.179 192.372 110.669 190.909C108.989 189.282 107.399 187.524 105.899 185.732C103.76 183.176 101.88 180.389 100.041 177.592L98.5414 175.304C98.5447 175.297 98.5475 175.289 98.55 175.282L98.5639 175.234C98.5679 175.211 98.5717 175.188 98.5753 175.166L98.6116 174.932C98.6201 174.914 98.6308 174.891 98.6435 174.863L98.7039 174.727C99.1636 173.844 98.5914 172.829 97.5914 172.787C97.2699 172.787 97.2255 172.777 97.4564 172.755L97.5514 172.747C97.2089 172.547 96.8389 172.447 96.4389 172.447C95.9714 172.447 95.5264 172.607 95.0789 172.717C94.4189 172.879 93.8311 172.994 93.1514 172.992C91.7564 172.987 90.4114 172.584 89.2339 171.842C86.5139 170.127 85.7289 166.449 86.1689 163.439C86.2939 162.587 86.4989 161.782 86.7914 161.032C87.1539 161.339 87.5589 161.602 88.0114 161.814C88.0789 161.847 88.1339 161.754 88.0714 161.712C87.6289 161.427 87.2489 161.087 86.9241 160.707C87.7389 158.802 89.1164 157.259 91.0739 156.177C92.3089 155.494 93.7039 155.169 95.0764 155.217C95.0811 155.257 95.0889 155.297 95.0964 155.337C95.2465 156.119 95.6176 156.513 96.1575 156.987L96.3511 157.154C97.0889 157.784 98.0339 157.727 98.6289 157.134L98.6436 157.154C98.8339 156.967 98.9964 156.792 99.1364 156.619C99.4136 156.827 99.6764 157.059 99.9241 157.317C100.016 157.412 100.171 157.289 100.109 157.174C99.9136 156.822 99.6939 156.489 99.4489 156.182C99.7664 155.652 99.8889 155.092 99.8914 154.272C99.893 153.426 99.8694 152.577 99.8459 151.73C99.8373 151.42 99.8287 151.111 99.8214 150.802C99.7686 148.569 99.6539 146.337 99.5664 144.104C99.5449 143.545 99.4993 142.967 99.4531 142.38C99.3433 140.986 99.23 139.548 99.4289 138.227C99.5935 137.134 100.254 136.877 101.164 136.612L102.347 136.27C105.127 135.456 107.943 134.437 108.546 131.149C108.921 129.103 108.299 127.19 107.675 125.27C107.229 123.895 106.781 122.516 106.696 121.082C106.516 118.069 107.441 115.002 109.154 112.509C110.814 112.939 112.466 113.397 114.154 113.734C116.489 114.204 118.831 114.624 121.181 115.004C125.799 115.752 130.431 116.349 135.099 116.697C144.454 117.392 153.879 117.042 163.159 115.644C164.479 115.447 165.794 115.214 167.099 114.927C167.091 115.149 167.081 115.374 167.069 115.599C166.996 116.854 166.961 118.102 166.959 119.357C166.916 119.684 166.926 120.039 166.987 120.427L167.056 120.879C167.106 121.194 167.231 121.482 167.416 121.734C167.862 128.684 168.799 135.597 169.691 142.507L169.904 144.16C170.963 152.425 171.968 160.7 172.811 168.989C172.886 169.724 172.975 170.471 173.065 171.225C173.467 174.593 173.886 178.108 173.149 181.374C172.419 184.617 170.349 187.137 167.771 189.152C161.714 193.894 154.119 197.025 146.724 198.944C142.764 199.972 138.481 200.997 134.369 200.949C132.896 200.932 131.334 200.754 129.987 200.119C128.836 199.579 128.113 198.607 127.453 197.56L127.326 197.357C126.776 196.469 125.171 196.519 124.949 197.667C124.286 201.064 127.362 203.179 130.294 203.999C133.631 204.933 137.107 204.499 140.481 203.984L141.064 203.894C149.804 202.539 158.121 199.619 166.024 195.697C169.521 193.962 172.774 191.624 175.159 188.504C177.816 185.024 178.639 180.907 178.406 176.594C178.146 171.842 177.396 167.077 176.796 162.359L176.609 160.901C176.046 156.525 175.458 152.152 174.801 147.789C173.544 139.432 172.181 131.024 169.926 122.869C169.976 122.864 170.026 122.859 170.076 122.852C171.501 122.637 172.341 121.549 172.464 120.147L172.694 117.514L172.819 117.522C176.955 117.777 182.331 117.266 184.239 112.982C184.904 111.489 185.071 109.832 184.761 108.334C187.521 107.619 190.084 106.127 192.059 104.065C193.084 102.994 193.011 101.447 192.059 100.362C191.494 99.7145 190.891 99.1345 190.256 98.6145C192.059 97.9743 193.749 96.7745 194.689 95.102C195.899 92.9495 195.424 90.3145 193.731 88.572C192.277 87.0726 190.214 86.3415 188.3 85.6049L187.621 85.3423C179.868 82.3711 171.721 80.5421 163.466 79.6895ZM94.9865 161.269C92.6115 161.067 90.6865 161.872 88.9437 163.409C88.7715 163.559 88.9612 163.794 89.1512 163.762C90.8787 163.457 92.9212 163.799 94.5715 164.332C96.4087 164.927 97.3965 166.177 98.8765 167.284C100.501 168.499 102.759 166.127 101.651 164.509C100.249 162.462 97.374 161.474 94.9865 161.269Z" fill="black" stroke="white" stroke-width="1.35379" mask="url(#path-5-inside-1_14_193)"/>
<path fill-rule="evenodd" clip-rule="evenodd" d="M136.673 134.757L136.836 134.732C138.063 134.555 138.897 134.759 139.695 135.808C140.075 136.307 139.958 137.062 139.695 137.573C139.064 138.798 137.613 138.925 136.264 139.044C135.795 139.085 135.34 139.125 134.934 139.21C133.397 139.529 131.864 139.965 130.426 140.598C128.959 141.245 127.582 142.009 126.239 142.883C125.024 143.673 123.922 144.861 122.535 145.32C122.472 145.341 122.397 145.285 122.401 145.219C122.5 143.641 123.818 142.192 124.839 141.068C126.02 139.768 127.456 138.614 128.952 137.697C130.495 136.75 132.164 135.971 133.891 135.427C134.801 135.141 135.732 134.914 136.673 134.757ZM163.019 135.678C160.753 135.074 156.912 134.641 155.367 136.9C155.313 136.979 155.367 137.103 155.458 137.124C157.785 137.648 160.016 138.127 162.217 139.11C164.095 139.949 165.621 141.088 167.161 142.347L167.504 142.628L168.04 143.072C170.047 144.742 172.717 142.164 170.932 140.18C168.94 137.965 165.861 136.434 163.019 135.678ZM144.243 146.489C141.486 144.482 138.03 143.479 134.632 143.508C133.922 143.514 133.231 143.565 132.558 143.66C128.094 143.192 123.617 147.089 121.848 151.085C119.557 156.261 119.748 164.358 125.934 166.601C127.234 167.073 128.619 167.282 129.99 167.459L130.986 167.584C132.842 167.812 134.724 167.977 136.594 167.96C140.19 167.929 143.05 166.55 145.238 163.692C147.188 161.146 148.946 157.912 148.948 154.623C148.951 151.246 146.88 148.41 144.243 146.489ZM173.542 159.755C172.658 162.428 170.728 164.487 168.041 165.392C165.377 166.289 162.415 165.962 159.692 165.477C159.097 165.371 158.493 165.254 157.891 165.117C158.384 165.423 158.819 165.853 159.236 166.307C159.853 166.979 160.412 167.688 160.581 168.529C160.749 169.364 160.484 169.999 160.001 170.478C159.257 171.216 158.057 171.613 157.041 171.832C154.766 172.324 152.487 172.248 150.222 171.743C149.644 171.615 149.252 171.305 149.032 170.9C148.765 170.409 148.743 169.799 148.896 169.242C149.05 168.686 149.381 168.174 149.862 167.89C150.257 167.656 150.752 167.592 151.314 167.779C152.442 168.154 153.561 168.403 154.752 168.432C155.256 168.443 155.764 168.428 156.267 168.382C156.552 168.356 156.836 168.32 157.118 168.275C156.952 168.053 156.79 167.827 156.632 167.6C156.446 167.33 156.264 167.057 156.091 166.78C155.589 165.977 155.171 165.151 154.804 164.28C154.687 164 154.578 163.72 154.473 163.439C154.458 163.398 154.443 163.357 154.428 163.317C154.395 163.29 154.363 163.262 154.331 163.235C153.614 162.614 153.012 161.849 152.586 160.901C151.434 158.335 151.621 155.149 152.321 152.484C152.881 150.348 154.118 148.373 155.752 147.03C156.038 146.561 156.226 146.276 156.457 146.036C157.396 145.059 158.707 144.4 159.986 143.999C162.842 143.103 165.954 143.746 168.375 145.451C170.611 147.026 172.361 149.388 173.307 152.015C174.203 154.502 174.378 157.231 173.542 159.755ZM140.37 147.316C136.116 145.406 130.947 145.978 126.82 148.016C125.185 149.799 123.991 152.047 123.507 154.11C122.991 156.313 123.066 158.686 123.843 160.821C124.79 163.427 127.124 164.073 129.642 164.473L130.619 164.627L131.029 164.689C133.503 165.058 136.207 165.345 138.584 164.883C141.234 164.368 142.916 162.227 144.241 160.033L144.302 159.93C145.678 157.631 146.829 154.835 145.675 152.2C144.695 149.961 142.552 148.295 140.37 147.316ZM160.778 147.566C162.355 147.025 164.02 147.172 165.48 147.981C168.65 149.737 170.45 153.61 170.083 157.167C169.927 158.673 169.327 160.198 168.055 161.096C166.595 162.128 164.685 162.169 162.943 162.048L162.604 162.022L161.33 161.916C159.676 161.771 157.825 161.521 156.601 160.48C155.261 159.337 154.963 157.253 154.932 155.548L154.929 155.353L154.929 155.162C154.933 153.721 155.136 152.256 155.627 150.902C156.048 150.954 156.511 150.796 156.776 150.401L156.843 150.304C157.368 149.58 158.02 149.308 158.719 148.772L158.946 148.6C159.514 148.177 160.1 147.799 160.778 147.566ZM133.701 148.31C136.043 147.114 138.858 147.413 140.842 148.912C140.666 148.947 140.492 148.991 140.319 149.078C139.869 149.303 139.59 149.755 139.483 150.236C139.363 150.78 139.645 151.295 140.182 151.466C140.649 151.615 141.202 151.684 141.636 151.4C141.863 151.251 142.022 151.056 142.126 150.809L142.141 150.773L142.16 150.746L142.166 150.734C142.168 150.729 142.16 150.738 142.147 150.758C142.16 150.728 142.172 150.697 142.185 150.666C142.203 150.628 142.22 150.591 142.235 150.552C142.26 150.53 142.283 150.506 142.306 150.482C142.667 151.037 142.95 151.663 143.129 152.36C144.283 156.834 139.553 161.477 135.327 161.941C133.73 162.117 132.274 161.736 131.065 160.987C131.076 160.972 131.089 160.959 131.099 160.943C131.584 161.031 132.164 160.813 132.34 160.272C132.79 158.891 132.328 157.275 130.823 156.824C129.855 156.533 128.864 156.854 128.172 157.516C127.648 156.235 127.461 154.792 127.709 153.348C128.058 151.309 129.288 149.473 131.201 148.625C132.133 148.211 132.936 148.125 133.701 148.31ZM158.444 150.957L158.372 151.07C157.418 152.61 157.182 154.452 157.671 156.072C157.673 156.102 157.676 156.132 157.679 156.161L157.701 156.34C158.332 156.178 159.004 156.305 159.455 156.858C159.637 156.858 159.816 156.898 159.96 156.982L160.009 157.013C160.451 157.304 160.526 157.836 160.34 158.301L160.32 158.347L160.324 158.341C160.339 158.312 160.283 158.472 160.277 158.49L160.241 158.585C160.216 158.647 160.19 158.71 160.163 158.772C160.055 159.017 159.908 159.216 159.731 159.417C159.663 159.494 159.585 159.551 159.501 159.596C160.542 160.419 161.9 160.82 163.257 160.682C164.723 160.532 165.944 159.792 166.736 158.702C166.819 158.629 166.903 158.558 166.981 158.48C168.932 156.531 169.162 153.017 167.499 150.831C167.398 150.698 167.292 150.581 167.182 150.476C167.136 150.645 167.051 150.809 166.931 150.921C166.709 151.128 166.438 151.263 166.131 151.268C165.921 151.273 165.708 151.217 165.526 151.111C165.261 150.956 165.065 150.7 164.928 150.431C164.801 150.182 164.765 149.931 164.827 149.66C164.829 149.652 164.832 149.644 164.835 149.636L164.853 149.589C164.176 149.173 163.351 148.994 162.563 149.101C162.385 148.99 162.187 148.905 161.986 148.853C160.551 148.477 159.168 149.843 158.444 150.957ZM135.283 172.922C135.22 172.882 135.137 172.899 135.084 172.948C134.621 173.376 134.615 173.969 134.449 174.558C134.22 175.373 133.956 176.188 133.671 176.984C133.115 178.538 132.475 180.167 131.454 181.481L131.412 181.535C130.544 182.707 130.657 184.357 132.15 184.986C133.421 185.522 134.699 184.771 135.053 183.558L135.068 183.585C135.715 182.046 136.25 180.446 136.436 178.789C136.609 178.88 136.781 178.97 136.945 179.059L137.215 179.202C138.207 179.726 139.222 180.204 140.272 180.599C142.753 181.532 145.316 182.176 147.933 182.595C150.354 182.983 152.794 183.207 155.244 183.003C157.641 182.803 160.474 182.337 162.551 181.045C164.97 179.54 162.863 176.109 160.35 177.28C159.346 177.747 158.486 178.281 157.406 178.603C156.493 178.875 155.554 179.079 154.609 179.201C152.408 179.486 150.137 179.424 147.93 179.255C145.656 179.081 143.383 178.733 141.151 178.262L140.484 178.125C139.593 177.944 138.7 177.773 137.813 177.576C137.395 177.484 136.953 177.351 136.505 177.235C136.493 175.906 136.365 173.606 135.283 172.922Z" fill="black"/>
<path fill-rule="evenodd" clip-rule="evenodd" d="M182.618 142.636C182.824 142.666 183.03 142.699 183.235 142.733C184.819 142.995 185.063 145.485 183.684 146.167C182.623 146.692 181.956 147.737 182.24 148.945C182.447 149.821 182.069 150.517 181.474 150.877C181.29 156.526 180.361 162.856 175.966 166.99C165.852 173.684 155.832 165.522 157.928 152.616C157.778 152.511 157.646 152.377 157.549 152.209C157.48 152.097 157.42 151.984 157.364 151.872C157.143 151.691 155.509 151.101 153.387 151.395C151.265 151.689 150.591 152.679 149.517 153.75C149.352 154.073 149.068 154.317 148.622 154.417C147.778 159.17 146.91 164.442 143.27 168.001C134.152 176.521 118.417 169.446 118.999 156.486C115.831 155.945 118.472 152.227 113.46 151.395C112.556 151.092 111.7 150.513 111.136 149.849C103.64 149.043 96.26 149.404 89.0118 152.008C88.5683 152.194 88.1046 152.363 87.643 152.531C85.0726 153.469 82.568 154.382 83.989 157.977C83.9348 159.17 82.4765 159.879 81.6173 158.998L81.6165 158.999C81.6153 158.997 81.6145 158.996 81.6135 158.994C76.7353 150.235 85.9966 148.769 93.1132 147.643C93.27 147.618 93.4258 147.594 93.5803 147.569C97.4085 146.744 101.326 146.395 105.239 146.477C105.692 146.497 106.178 146.504 106.676 146.511C108.192 146.534 109.827 146.559 111.032 146.932C111.039 146.934 111.045 146.935 111.051 146.937C112.717 141.887 147.363 140.705 149.367 149.081C150.299 149.057 151.147 149.127 151.955 149.193C153.43 149.314 154.77 149.424 156.237 148.934C156.918 142.847 173.42 140.568 180.553 142.173C181.05 142.219 181.547 142.305 182.049 142.432C182.268 142.475 182.457 142.545 182.618 142.636ZM175.176 148.016C175.433 147.575 176.103 147.344 176.545 147.656C177.556 148.367 178.289 149.425 178.338 150.691C178.388 151.986 176.386 151.98 176.336 150.691L176.332 150.63C176.286 150.138 175.915 149.657 175.535 149.389L175.493 149.358C175.078 149.041 174.893 148.501 175.176 148.016ZM139.774 148.856C138.518 148.58 137.982 150.515 139.241 150.792C140.133 150.988 140.889 151.438 141.4 152.2L141.454 152.283C142.139 153.373 143.872 152.367 143.182 151.269C142.405 150.034 141.199 149.169 139.774 148.856Z" fill="black"/>
</g>
<defs>
<clipPath id="clip0_14_193">
<rect width="340" height="372" fill="white"/>
</clipPath>
</defs>
</svg>
