<svg width="554" height="554" viewBox="0 0 554 554" fill="none" xmlns="http://www.w3.org/2000/svg">
<g clip-path="url(#clip0_14_193)">
<path d="M399.311 554H163.88C100.337 554 82.9656 516.01 61.0226 426.757C39.0796 337.503 142.852 330.18 171.195 251.911C199.538 173.643 108.566 130.618 156.566 88.0507C204.566 45.4836 237.024 130.618 344.453 114.598C451.882 98.5781 428.568 217.583 399.311 239.553C370.053 261.523 362.739 333.841 428.568 353.065C494.397 372.289 495.768 456.05 494.854 494.04C494.123 524.432 430.854 546.677 399.311 554Z" fill="black" stroke="black"/>
<path d="M404.491 435.504C404.491 432.516 400.355 427.211 400.348 424.504C403.826 423.882 406.733 419.171 405.962 416.22C404.605 415.183 401.047 413.14 399.576 412.187C390.611 412.459 394.018 399.987 393.004 393.647C391.982 387.444 391.224 380.959 389.728 374.721C387.073 369.73 385.827 364.135 383.289 359.169C382.155 357.523 380.323 356.014 379.775 354.102C374.222 348.038 366.579 344.403 360.288 339.266C362.729 338.485 362.567 335.192 362.409 333.078C362.977 330.319 362.37 326.859 359.854 325.305C359.004 322.535 355.288 321.568 353.115 323.333C351.687 316.935 346.102 313.053 340.252 310.679C340.257 310.66 340.262 310.642 340.268 310.623C334.368 308.282 327.296 307.114 321.409 308.431C324.516 273.806 297.997 272.535 284.538 275.445C277.654 276.933 267.325 281.567 264.978 288.008C263.654 291.645 259.852 303.373 259.311 307.114C249.034 301.25 237.119 293.516 228.205 305.323C226.42 307.381 224.444 308.909 221.773 309.616C213.434 311.78 202.365 311.852 197.625 320.354C194.792 325.62 197.34 329.091 196.579 334.359C159.039 360.722 127.667 457.839 134.711 503.021C136.405 519.19 144.678 547.809 165.099 544.241C175.514 555.633 350.328 555.633 368.354 544.241C383.192 548.122 398.269 542.114 404.491 527.903C412.393 508.416 404.019 487.371 402.535 467.381C401.634 462.334 400.293 458.328 399.576 453.161C399.277 451.008 400.308 447.426 399.576 445.442C399.921 444.15 404.491 438.493 404.491 435.504Z" fill="white"/>
<path fill-rule="evenodd" clip-rule="evenodd" d="M269.845 288.803C269.872 288.923 269.891 289.042 269.908 289.16C270.032 289.666 270.078 290.153 270.063 290.641C270.07 290.817 270.057 290.994 270.024 291.169C269.958 291.744 269.82 292.334 269.632 292.979C269.234 294.352 268.777 295.708 268.267 297.044C267.259 299.686 266.069 302.207 264.597 304.623C261.939 308.987 258.56 312.61 254.576 315.742C255.332 316.365 256.071 317.014 256.812 317.651C260.391 320.732 263.874 323.951 267.247 327.256C273.237 333.126 279.107 339.105 284.839 345.227C287.666 348.246 290.441 351.305 293.201 354.384L293.291 354.488L293.389 354.605C293.519 354.762 293.665 354.947 293.825 355.149C294.878 356.48 296.521 358.556 297.789 358.162C298.527 357.932 299.304 356.831 299.807 356.306L300.734 355.34C301.042 355.017 301.348 354.692 301.649 354.363C307.039 348.456 312.14 342.323 316.93 335.913C319.267 332.785 321.526 329.598 323.703 326.356C324.823 324.689 325.921 323.008 326.997 321.312C328.038 319.672 328.88 317.91 330.413 316.686C331.539 315.788 333.099 316.611 332.815 318.084C332.368 320.403 330.763 322.364 329.499 324.324C328.23 326.294 326.931 328.244 325.602 330.174C323.045 333.889 320.378 337.527 317.615 341.091C315.235 344.16 312.753 347.151 310.203 350.081L309.506 350.878C306.764 354.004 304.072 357.323 301.042 360.177C298.328 362.732 295.365 361.988 292.893 359.504C289.767 356.364 286.864 352.969 283.856 349.715C277.844 343.211 271.77 336.758 265.634 330.373L263.616 328.271C261.264 325.816 258.921 323.345 256.64 320.829L256.346 320.501C253.744 317.575 251.098 313.908 247.399 312.42C247.132 312.313 247.23 311.933 247.519 311.986C249.887 312.424 251.863 313.617 253.703 315.042C255.356 312.306 256.831 309.423 258.117 306.473L257.292 306.115C251.388 303.564 244.735 300.992 238.397 301.406C235.842 301.572 233.117 302.539 231.353 304.457C229.756 306.194 228.959 308.536 227.494 310.386C225.815 312.505 223.626 313.459 220.939 313.545L219.632 313.584C218.13 313.633 216.688 313.712 215.164 314.043C211.034 314.938 206.68 316.39 203.217 318.871C201.96 319.771 200.663 321.008 200.055 322.371C199.453 323.722 199.28 325.302 199.221 326.76C199.21 327.028 199.234 327.327 199.258 327.633C199.298 328.14 199.339 328.664 199.228 329.088C199.248 329.012 199.257 329.053 199.26 329.134C199.814 329.57 200.191 330.296 200.232 331.019C203.684 329.22 207.258 327.643 210.902 326.221C214.958 324.639 219.141 323.371 223.325 322.169C227.419 320.995 231.705 320.509 235.879 319.671C236.41 319.564 236.595 320.282 236.099 320.472C231.712 322.157 227.468 324.154 223.044 325.74C218.623 327.324 214.235 329.04 209.941 330.946C201.643 334.632 193.628 339.323 187.09 345.687C180.705 351.903 175.78 359.454 171.199 367.046C166.586 374.691 162.469 382.616 158.8 390.755C151.541 406.858 146.098 423.788 142.514 441.082C139.027 457.911 137.078 475.341 137.727 492.542C138.035 500.712 139.033 508.888 141.354 516.745C142.463 520.499 143.851 524.167 145.604 527.668C147.454 531.36 149.945 534.649 151.634 538.403C151.772 538.712 151.826 539.009 151.818 539.284C159.02 545.524 170.293 541.319 178.087 537.594C196.022 529.018 213.624 519.633 230.355 508.863C246.868 498.233 262.517 486.37 277.796 474.057C276.614 472.838 275.572 471.472 274.657 470.235C272.766 467.679 271.344 464.783 270.365 461.762C269.22 458.224 268.865 454.438 269.191 450.741L269.283 449.696C269.594 446.205 269.954 442.662 270.72 439.251C270.727 439.207 270.76 439.188 270.797 439.188C270.834 439.188 270.871 439.211 270.886 439.251C272.95 445.859 273.117 452.961 275.436 459.483C276.37 462.106 277.818 464.639 279.554 466.815C280.304 467.756 281.183 468.573 282.08 469.37C282.139 468.964 282.22 468.562 282.342 468.166L282.439 467.854C282.559 467.474 282.708 467.051 282.915 466.678C282.623 466.593 282.339 466.501 282.058 466.397C281.836 466.316 281.788 465.958 282.058 465.899C282.793 465.729 283.55 465.644 284.322 465.607C284.444 465.588 284.562 465.585 284.68 465.592C285.621 465.563 286.574 465.597 287.508 465.631C288.007 465.648 288.502 465.666 288.987 465.673C291.399 465.71 293.803 465.754 296.211 465.862C297.368 465.912 298.563 466.005 299.775 466.099C303.391 466.381 307.163 466.675 310.56 465.872C314.681 464.898 318.744 462.15 322.049 459.564C324.937 457.304 327.165 454.619 329.561 451.942C329.389 451.969 329.219 451.994 329.048 452.018L327.503 452.23C325.552 452.49 323.236 452.695 321.688 451.757C321.096 451.399 321.267 450.586 321.869 450.364C322.905 449.985 324.105 450.06 325.283 450.134C325.902 450.173 326.514 450.212 327.094 450.184C328.416 450.12 329.754 449.98 331.058 449.707C331.486 449.619 331.91 449.515 332.331 449.393C335.419 448.503 339.046 445.371 336.594 441.951C336.502 441.822 336.605 441.704 336.73 441.681C336.786 441.67 336.845 441.681 336.893 441.722C339.685 444.034 338.233 448.178 335.593 449.955C334.684 450.568 333.658 450.996 332.594 451.31C332.797 451.683 332.834 452.141 332.59 452.576C330.522 456.263 327.021 459.501 323.741 462.106C320.373 464.779 316.487 467.302 312.31 468.484C308.403 469.585 304.183 469.123 300.119 468.678C299.166 468.573 298.222 468.47 297.293 468.388C294.641 468.155 291.997 467.878 289.349 467.571C288.639 467.491 287.905 467.428 287.158 467.358C287.86 468.281 288.418 469.345 288.784 469.984C289.973 472.059 288.876 474.792 286.571 475.427C286.331 475.494 286.084 475.531 285.84 475.538C285.219 476.783 283.742 477.699 282.375 477.229C281.781 477.027 281.208 476.75 280.658 476.417C272.064 483.966 263.015 491.05 253.708 497.691C236.449 510.005 218.359 521.251 199.601 531.138C195.376 533.365 191.118 535.532 186.825 537.615L183.129 539.396C179.039 541.365 174.853 543.323 170.508 544.544C169.662 544.782 168.775 544.975 167.866 545.122C167.854 545.204 167.851 545.281 167.857 545.356C167.04 545.465 166.327 545.482 165.719 545.406L165.58 545.387C160.255 545.759 154.56 544.459 151.134 540.57C150.563 540.971 149.731 541.015 148.996 540.438C145.302 537.539 143.099 533.126 141.167 528.912C139.207 524.638 137.671 520.183 136.542 515.62C134.288 506.505 133.394 497.104 133.347 487.728C133.176 451.6 142.224 415.155 157.94 382.721C161.926 374.495 166.319 366.422 171.197 358.689C176.061 350.978 181.709 343.811 188.943 338.187C191.023 336.57 193.187 335.091 195.418 333.729C193.92 332.987 193.325 331.098 193.221 329.421C192.988 325.695 193.432 321.403 195.613 318.26C198.673 313.85 204.151 311.131 209.23 309.809C211.881 309.119 214.624 308.717 217.359 308.581C217.98 308.55 218.612 308.577 219.244 308.605C220.046 308.64 220.848 308.675 221.627 308.59C222.856 308.456 223.616 307.723 224.323 306.759C226.134 304.287 227.313 301.694 229.91 299.882C232.576 298.023 236.029 297.312 239.24 297.505C242.98 297.73 246.392 299.203 249.686 300.897C252.66 302.425 255.546 304.118 258.358 305.924C258.874 304.716 259.359 303.499 259.811 302.277C260.687 299.909 261.449 297.465 262.067 295.018C262.694 292.535 262.602 289.257 264.496 287.39C266.142 285.768 269.312 286.405 269.845 288.803ZM322.004 300.807C322.063 299.597 322.123 298.372 321.858 297.24C321.821 297.083 321.623 297.085 321.541 297.198C320.697 298.375 320.386 299.949 320.176 301.45L320.13 301.794L319.937 303.279C319.686 305.3 319.591 307.333 319.713 309.368C319.839 311.48 320.136 313.594 320.6 315.658C321.081 317.792 321.439 320.032 323.232 321.407C324.497 322.379 326.023 321.02 326.123 319.748C326.223 318.488 325.586 317.202 324.974 315.969C324.694 315.405 324.42 314.852 324.225 314.318C323.64 312.72 323.172 311.079 322.815 309.415C326.626 308.28 330.75 308.912 334.563 310.094L335.082 310.255C339.207 311.537 344.008 313.136 346.132 317.122C347.242 319.204 348.324 320.845 350.396 322.071C352.195 323.135 354.452 323.709 355.65 325.551C356.607 327.023 356.476 328.426 356.221 329.935L356.043 330.959L356.001 331.221C355.87 332.046 355.835 332.871 355.975 333.618C353.534 332.069 351.038 330.605 348.49 329.219C349.207 328.393 349.862 327.534 350.379 326.633C350.743 325.999 350.759 325.188 350.379 324.555C348.783 321.896 346.468 324.807 345.132 326.488C344.946 326.721 344.78 326.931 344.637 327.098L344.19 327.617C342.394 329.684 340.49 331.656 338.524 333.562C334.308 337.651 329.821 341.461 325.436 345.365C317.098 352.79 307.919 360.791 303.492 371.316C303.402 371.529 303.724 371.623 303.84 371.462C310.295 362.574 318.053 355.345 326.635 348.538C330.892 345.161 335.179 341.837 339.253 338.236C341.202 336.513 343.109 334.741 344.937 332.89L345.317 332.507C346.215 331.609 347.175 330.677 348.065 329.696C358.163 338.409 369.405 345.987 377.209 357.008C380.308 361.382 382.863 366.121 384.885 371.079C388.053 383.493 390.573 396.06 392.443 408.735C391.672 407.329 389.663 406.343 388.245 405.822L388.008 405.738C386.014 405.044 383.931 404.969 381.948 405.635C380.947 404.995 379.85 404.49 378.698 404.094C379.193 402.739 378.377 400.708 377.365 399.825C375.481 398.19 372.716 398.239 370.244 398.473L369.802 398.517L368.482 398.658C367.891 398.72 367.492 399.086 367.448 399.692C367.422 400.047 367.407 400.394 367.411 400.741C367.418 401.365 367.477 401.978 367.611 402.573C363.374 402.498 359.123 402.683 354.88 402.868C353.272 402.938 351.665 403.008 350.059 403.064C348.383 403.123 346.71 403.182 345.033 403.238C344.863 400.985 342.857 399.88 340.572 399.467C342.248 397.971 343.685 395.932 342.632 393.679C341.532 391.319 338.489 391.109 336.342 391.991C334.802 392.619 333.572 393.801 332.044 394.433C330.5 395.072 328.827 394.891 327.209 394.676L326.911 394.637C326.728 394.612 326.544 394.586 326.36 394.56C324.016 394.229 321.507 393.875 319.42 395.208C316.794 396.885 317.049 400.578 314.423 402.137C313.082 402.934 311.45 403.193 309.994 403.714C308.436 404.268 307.043 405.062 305.755 406.1C303.102 408.235 301.086 411.053 298.811 413.56C296.207 416.419 293.5 419.174 290.656 421.793C284.241 427.699 276.935 432.618 270.69 438.686C270.56 438.812 270.668 438.996 270.812 439.011C270.845 439.011 270.882 439.003 270.919 438.985C276.266 436.078 281.195 432.363 285.97 428.588L286.893 427.857C292.078 423.736 297.112 419.351 301.511 414.387C303.505 412.134 305.337 409.593 307.775 407.784C310.05 406.093 312.801 405.849 315.279 404.619C317.872 403.33 318.323 401.195 319.608 398.853C320.807 396.664 322.985 396.703 325.132 396.985L325.354 397.015L326.688 397.206C329.658 397.609 332.173 397.528 334.773 395.906C335.003 395.763 335.235 395.608 335.472 395.449C336.522 394.746 337.644 393.995 338.928 394.086C341.891 394.292 339.43 397.127 338.191 398.133L338.113 398.195L338.004 398.277C337.635 398.551 337.469 398.916 337.454 399.289C336.749 399.323 336.088 399.411 335.515 399.529C333.669 399.921 332.07 401.036 331.866 403.034C331.811 403.592 331.922 404.253 332.228 404.73C331.161 405.169 330.001 405.816 328.978 406.621C326.707 407.319 324.413 409.036 322.412 410.203C320.952 411.053 319.176 411.932 317.706 413.028C315.331 413.446 312.964 413.978 310.837 414.879C310.637 414.967 310.755 415.263 310.944 415.267C312.591 415.318 314.286 415.138 315.974 414.901C315.992 414.912 316.014 414.919 316.041 414.916C316.395 414.883 316.75 414.82 317.112 414.731C318.271 414.554 319.424 414.369 320.55 414.229C322.567 413.978 324.591 413.741 326.611 413.516C327.929 413.368 329.247 413.224 330.566 413.084C337.026 412.39 343.508 411.939 349.997 411.692C350.305 411.68 350.67 411.653 351.071 411.622C353.749 411.422 358.03 411.101 357.838 414.432C357.688 416.965 355.126 418.464 352.98 419.205L352.763 419.277C347.493 421.006 341.521 420.991 336.044 421.634C332.804 422.018 329.569 422.45 326.367 423.067C323.032 423.713 319.464 424.423 316.425 425.992C315.45 426.495 315.785 427.736 316.591 428.105C316.58 428.127 316.568 428.152 316.561 428.179C316.506 428.341 316.624 428.544 316.79 428.585C316.835 428.596 316.879 428.603 316.923 428.611C315.028 429.013 313.156 429.523 311.324 430.129C311.132 430.192 311.213 430.465 311.409 430.431C316.107 429.575 320.897 429.187 325.673 429.412C328.099 429.526 330.522 429.7 332.926 430.08C335.124 430.428 337.665 430.749 339.597 431.923C340.032 432.186 340.435 432.526 340.767 432.909C340.697 433.308 340.767 433.722 341.044 434.143C341.137 434.287 341.421 434.294 341.454 434.088C341.458 434.062 341.465 434.032 341.472 434.007C341.916 435.048 341.816 436.201 340.708 437.087C339.516 438.041 337.742 438.28 336.236 438.41L335.929 438.435C331.131 438.83 326.282 438.856 321.499 439.395C320.332 439.525 319.8 440.603 319.959 441.489C319.948 441.482 319.933 441.475 319.922 441.464C319.94 441.604 319.992 441.737 320.07 441.863C320.07 441.87 320.074 441.874 320.081 441.881C320.303 442.354 320.771 442.694 321.499 442.66C324.812 442.52 328.132 442.087 331.434 441.785C333.159 441.626 334.936 441.552 336.675 441.312C337.447 441.201 338.212 441.064 338.961 440.869C342.898 439.846 345.968 436.263 343.578 432.312C343.955 432.155 344.336 432.022 344.673 431.909L345.343 431.687C346.666 431.251 348.006 430.901 349.373 430.661C350.555 430.457 351.737 430.336 352.918 430.295C352.095 432.463 352.179 435.347 352.446 437.275C352.837 440.086 354.311 444.126 356.955 445.608C355.234 446.819 354.093 448.614 355.485 450.519C354.045 452.787 354.285 455.616 355.906 457.829C357.435 459.915 359.876 460.935 362.362 461.467C362.373 464.658 363.023 467.989 363.411 471.084C363.895 474.929 364.367 478.773 364.785 482.626C365.59 490.093 366.233 497.569 366.44 505.078C366.62 511.602 366.352 518.093 366.022 524.599L365.878 527.389C365.683 531.178 365.594 534.979 365.719 538.772C365.742 539.381 365.756 540.005 365.779 540.641L365.801 541.295C365.886 543.593 366.058 545.98 366.645 548.161L366.809 548.307C367.799 549.169 368.899 549.8 370.109 550.198C370.394 549.478 370.168 548.637 369.667 548.079C369.637 547.108 369.566 546.135 369.475 545.161C370.994 545.988 372.685 546.535 373.893 546.783C377.416 547.51 381.058 547.241 384.492 546.202C399.329 541.719 407.495 526.436 408.662 511.829C409.047 507.03 408.789 502.223 408.139 497.456C407.932 491.807 406.844 486.26 405.678 480.734L405.209 478.525L404.859 476.869C403.223 469.075 402.221 461.195 401.289 453.292C401.21 452.625 400.852 452.148 400.387 451.86C400.552 451.511 400.679 451.121 400.758 450.678C400.974 449.478 400.87 448.308 400.77 447.172C400.589 445.113 400.417 443.167 402.169 441.36C402.237 441.29 402.305 441.22 402.373 441.15C404.419 439.049 406.323 437.093 405.065 433.929C404.642 432.865 403.942 431.882 403.241 430.897C402.049 429.223 400.855 427.545 401.013 425.457C401.031 425.194 400.713 425.061 400.514 425.168C400.466 425.194 400.429 425.235 400.4 425.29C399.28 427.488 400.563 429.53 401.815 431.524C403.099 433.568 404.352 435.562 402.952 437.622C401.497 439.761 399.07 440.732 398.509 443.491C398.329 444.378 398.445 445.489 398.564 446.631C398.764 448.545 398.972 450.547 397.818 451.731C397.39 452.167 394.649 453.622 394.258 453.958C393.386 454.697 392.673 455.605 392.042 456.551C390.804 458.405 389.959 460.488 388.784 462.379C388.707 462.505 388.626 462.63 388.544 462.756C387.052 465.038 385.017 466.271 382.217 465.784C379.086 465.241 376.526 462.951 373.73 461.577C370.406 459.945 366.787 460.007 363.234 459.284C363.082 459.254 362.931 459.221 362.779 459.188C361.162 458.819 359.474 458.228 358.303 457.023C357.073 455.76 356.361 453.622 357.313 452.026C358.345 452.505 359.534 452.639 360.698 452.702L361.085 452.72L363.268 452.807C365.738 452.897 368.211 452.948 370.683 452.957C373.564 452.965 376.448 452.92 379.329 452.817L379.637 452.807C382.32 452.723 385.231 452.78 387.828 452.123C388.81 451.875 388.507 450.545 387.602 450.457C386.077 450.31 384.473 450.434 382.901 450.556C382.303 450.602 381.71 450.648 381.128 450.678C378.968 450.789 376.807 450.866 374.646 450.914C370.321 451.007 365.996 450.977 361.675 450.815C360.597 450.774 358.381 450.619 357.339 449.796C356.748 449.327 356.538 448.636 357.136 447.627C358.037 446.11 360.649 445.596 362.178 445.079L362.695 444.907C365.284 444.05 367.895 443.291 370.557 442.782L371.306 442.781C378.141 442.741 384.875 441.892 391.536 440.345C392.585 440.101 392.134 438.538 391.093 438.741C385.446 439.846 379.691 440.474 373.941 440.677C371.196 440.773 368.453 440.754 365.712 440.622L365.609 440.617C365.435 440.61 365.25 440.606 365.058 440.603C363.813 440.577 362.254 440.545 361.454 439.639C360.589 438.667 360.859 437.098 361.472 436.082C362.644 434.135 365.283 433.1 367.322 432.216L367.603 432.093L368.283 431.801C370.53 430.848 372.847 430.031 375.193 429.345C378.402 428.411 381.686 427.798 384.991 427.34C387.126 427.041 389.268 426.805 391.41 426.587C391.702 426.557 391.698 426.169 391.41 426.136C390.52 426.025 389.626 425.952 388.733 425.911C389.771 425.516 390.801 425.113 391.828 424.707C392.902 424.282 394.158 423.972 395.066 423.289C395.414 423.281 395.761 423.263 396.101 423.226C397.49 423.078 398.033 420.98 396.455 420.607C395.905 420.478 395.343 420.385 394.775 420.319C393.187 420.131 391.547 420.131 389.977 420.024L389.734 420.009C389.239 419.982 388.722 419.971 388.198 419.961C386.738 419.93 385.214 419.899 383.902 419.51C381.568 418.816 383.347 416.407 384.585 415.335L384.72 415.221L384.851 415.119C386.262 414.052 388.031 413.457 389.778 413.257C391.774 413.032 393.792 413.237 395.77 413.552L396.551 413.681C398.443 413.991 400.55 414.223 402.254 415.13C404.289 416.212 405.227 418.185 404.041 420.316C403.168 421.886 401.529 422.868 399.951 423.738L399.344 424.07L398.9 424.315C398.635 424.463 398.819 424.847 399.1 424.788C399.517 424.703 399.935 424.607 400.348 424.504C402.442 423.972 404.448 423.13 405.821 421.357C407.439 419.27 407.406 416.607 405.796 414.535C404.302 412.62 402.051 411.871 399.77 411.356L399.451 411.286L398.815 411.152C397.72 410.93 396.613 410.71 395.499 410.531C395.965 410.124 396.265 409.511 396.156 408.757C395.323 403 394.347 397.267 393.245 391.558C393.328 389.919 392.942 388.139 392.588 386.5C392.49 386.047 392.394 385.606 392.311 385.181L392.185 384.543C391.714 382.207 391.146 379.891 390.476 377.602C390.222 376.738 389.949 375.88 389.667 375.025C389.273 373.388 386.101 366.106 384.889 363.615L384.75 363.333L384.629 363.098C379.654 353.651 372.478 345.622 363.991 339.18C362.534 338.074 361.052 337.011 359.549 335.979C360.25 335.525 360.68 334.59 360.455 333.766C360.168 332.717 360.064 332.27 360.275 331.18C360.511 329.969 360.716 328.807 360.589 327.565C360.352 325.232 359.228 322.971 357.419 321.458C355.644 319.975 353.356 319.457 351.51 318.118C350.317 317.253 349.836 315.888 349.084 314.68C348.457 313.674 347.708 312.761 346.803 311.99C343.141 308.868 337.735 307.332 333.062 306.637C329.45 306.101 325.704 306.315 322.535 307.982C322.233 306.274 322.029 304.55 321.963 302.816C321.938 302.163 321.971 301.488 322.004 300.807ZM248.485 339.238C246.466 337.166 244.512 334.745 242.127 333.089C241.957 332.972 241.79 333.194 241.866 333.35C243.228 336.121 245.504 338.568 247.364 341.022L248.249 342.184C249.729 344.116 251.23 346.029 252.742 347.937C255.973 352.013 259.287 356.018 262.899 359.766C269.872 367.003 277.778 373.401 287.321 376.861C289.584 377.68 290.573 374.057 288.315 373.254C278.985 369.936 271.337 363.44 264.577 356.38C261.185 352.837 257.9 349.192 254.555 345.606C252.553 343.46 250.533 341.339 248.485 339.238ZM201.792 354.172C203.579 356.791 204.695 360.273 205.796 363.266L205.906 363.563C207.076 366.708 208.204 369.878 209.257 373.065C211.358 379.427 214.096 386.084 214.602 392.805C214.696 394.045 212.798 394.542 212.247 393.443C210.666 390.283 209.816 386.988 208.881 383.6C207.988 380.369 207.059 377.149 206.129 373.928C205.199 370.709 204.3 367.481 203.384 364.258C202.494 361.123 201.254 357.636 201.05 354.373C201.023 353.949 201.587 353.871 201.792 354.172ZM191.301 378.986C194.809 386.072 197.447 393.607 199.438 401.251C200.399 404.942 201.215 408.67 201.871 412.428L202.086 413.683L202.208 414.364C202.249 414.585 202.29 414.807 202.331 415.03C202.916 418.19 203.54 421.557 202.699 424.609C202.406 425.677 200.633 426.1 200.136 424.945C198.639 421.458 198.85 417.451 198.416 413.72C197.959 409.805 197.337 405.908 196.562 402.044C195.072 394.618 192.981 387.367 190.65 380.17L190.39 379.371C190.192 378.838 191.054 378.487 191.301 378.986ZM356.365 408.455C356.166 407.734 356.611 406.782 357.396 406.638C358.792 406.381 360.238 406.353 361.586 406.851C362.337 407.128 362.844 407.843 362.618 408.668C362.419 409.391 361.549 409.976 360.8 409.7C359.95 409.386 359.075 409.323 358.182 409.487L358.106 409.5C357.343 409.609 356.584 409.254 356.365 408.455ZM367.006 407.138C366.849 407.189 366.71 407.271 366.589 407.384L366.531 407.443C366.387 407.577 366.285 407.736 366.225 407.919C366.133 408.095 366.09 408.285 366.098 408.488L366.151 408.881C366.221 409.131 366.347 409.348 366.531 409.533L366.829 409.763C367.031 409.88 367.247 409.947 367.476 409.962L367.575 409.965L367.874 409.966C368.045 409.96 368.206 409.917 368.357 409.838C368.514 409.787 368.653 409.705 368.774 409.592L368.832 409.533C368.977 409.398 369.078 409.24 369.138 409.057C369.217 408.906 369.26 408.745 369.265 408.574V408.488L369.212 408.095C369.151 407.876 369.046 407.683 368.898 407.514L368.832 407.443L368.533 407.212C368.332 407.095 368.116 407.03 367.887 407.014L367.788 407.011H367.575C367.372 407.003 367.182 407.045 367.006 407.138ZM323.094 412.079C324.018 411.629 325.063 411.178 326.108 410.687C326.042 411.012 326.009 411.348 326.02 411.688C324.971 411.843 323.922 412.009 322.877 412.187C322.951 412.149 323.025 412.116 323.094 412.079ZM354.153 430.761L354.248 430.28C355.673 430.302 357.103 430.435 358.529 430.675C360.726 431.045 362.026 431.418 363.817 431.721C363.71 431.772 363.599 431.831 363.492 431.891L363.244 432.028C361.264 433.147 359.416 434.726 359.005 437.079C358.278 441.243 361.643 442.411 365.21 442.712L365.429 442.73L365.767 442.753C363.632 443.162 361.528 443.709 359.467 444.363C359.219 444.44 358.964 444.536 358.706 444.644C358.687 444.518 358.643 444.388 358.573 444.259C357.897 443.044 356.837 442.113 356.106 440.928C355.334 439.669 354.791 438.294 354.403 436.873C354.008 435.436 353.838 433.948 353.912 432.459C353.938 431.89 354.042 431.324 354.153 430.761ZM207.147 435.851C207.175 437.636 206.659 439.511 206.162 441.32C205.969 442.022 205.779 442.713 205.624 443.386C205.028 445.979 204.434 448.573 203.831 451.166L203.289 453.489C202.837 455.424 202.392 457.362 201.993 459.309C201.665 460.91 201.528 463.02 200.991 464.786C207.383 462.2 213.785 459.641 220.176 457.064C228.05 453.888 235.961 450.8 243.854 447.676C251.717 444.566 259.536 441.028 267.558 438.369C269.468 437.733 270.76 440.78 268.932 441.626C260.784 445.404 252.164 448.363 243.817 451.672L231.743 456.466C220.675 460.857 209.598 465.228 198.467 469.448C190.884 472.322 183.331 475.28 175.701 478.009C172.063 479.31 168.392 480.539 164.772 481.887C161.74 483.017 158.461 484.694 157.338 487.952C157.279 488.122 157.046 488.052 157.072 487.878C157.526 484.724 159.868 482.751 162.508 481.259C166.013 479.274 169.862 477.829 173.561 476.237L174.065 476.019C181.619 472.724 189.234 469.563 196.871 466.455C196.795 466.27 196.751 466.072 196.747 465.865L196.726 465.871C196.614 464.732 197.013 463.693 197.417 462.644C197.513 462.393 197.61 462.141 197.7 461.887L199.036 458.118C199.926 455.609 200.724 453.068 201.547 450.536C202.407 447.889 203.275 445.245 204.142 442.601C204.876 440.361 205.37 437.691 206.626 435.689C206.777 435.448 207.195 435.583 207.147 435.851ZM397.429 454.439L397.442 454.436C397.894 454.506 398.988 470.786 400.736 478.194L400.869 478.761C402.946 487.654 404.438 496.461 404.499 505.672C404.551 513.856 402.911 522.037 398.442 528.988C394.72 534.783 389.069 539.525 382.273 541.136C379.285 541.841 375.894 541.86 373.088 540.463C371.758 539.802 370.765 538.318 369.309 537.978C369.169 537.945 369.028 537.922 368.888 537.911C368.837 535.031 368.923 532.148 369.028 529.267L369.16 525.73C369.422 518.476 369.6 511.248 369.246 503.992C368.881 496.498 368.161 489.008 367.127 481.577C366.595 477.743 366.041 473.898 365.361 470.087C364.873 467.369 364.493 464.421 363.673 461.707C363.928 461.747 364.183 461.78 364.434 461.814C366.535 462.076 368.674 462.076 370.742 462.593C372.564 463.047 374.13 463.935 375.711 464.896L376.28 465.245C376.467 465.361 376.657 465.478 376.848 465.597C379.222 467.077 381.839 468.706 384.707 468.273C386.154 468.056 387.303 467.491 388.26 466.703C388.282 468.473 388.433 470.253 388.803 471.985C389.383 474.703 390.38 477.262 391.472 479.797L391.787 480.521L392.105 481.244C393.412 484.207 394.867 487.106 395.876 490.193L395.877 490.197C396.021 490.229 396.159 490.261 396.29 490.291C397.764 490.631 398.467 490.793 399.344 489.149C399.419 489.009 399.508 488.895 399.603 488.8C398.722 486.305 397.589 483.891 396.433 481.521C394.997 478.574 393.442 475.679 392.201 472.639C391.495 470.918 390.886 469.127 390.42 467.32C390.217 466.534 390.114 465.688 389.966 464.857C391.769 462.379 393.6 456.708 397.429 454.439Z" fill="black"/>
<path d="M347.713 185.377C346.287 176.749 350.967 174.959 347.713 166.758C340.481 151.562 320.771 152.217 306.308 151.049C290.176 150.431 273.849 152.56 258.977 159.026C255.425 160.57 252.008 162.386 248.733 164.449C245.901 166.234 246.29 169.627 248.076 171.477C235.199 189.712 242.564 214.188 232.29 233.383C230.392 236.813 227.881 239.89 226.231 243.46C223.724 248.886 223.563 256.662 229.25 260.266C237.26 264.565 241.729 256.053 245.665 268.392C265.32 311.416 304.839 313.839 342.354 291.408C345.6 289.603 348.912 287.562 351.363 284.725C356.926 278.465 356.271 269.661 356.394 261.842C356.463 257.261 356.474 252.678 356.43 248.096C356.255 229.534 350.103 203.785 347.713 185.377Z" fill="white"/>
<mask id="path-5-inside-1_14_193" fill="white">
<path fill-rule="evenodd" clip-rule="evenodd" d="M340.859 122.16C316.151 119.604 290.46 123.501 267.808 133.776C255.824 139.212 244.817 146.695 235.171 155.651C233.409 155.156 231.481 155.053 229.878 155.33C227.256 155.784 224.855 157.284 223.282 159.426C220.888 162.676 220.973 166.82 222.79 170.114C222.502 170.346 222.236 170.613 221.993 170.9C220.076 173.187 220.275 176.138 221.682 178.638C222.076 179.339 222.784 180.115 223.534 180.936C225.063 182.611 226.764 184.474 226.318 186.276C226.018 187.499 224.933 188.644 224.301 189.718C223.514 191.055 222.85 192.451 222.259 193.884C217.658 204.992 219.4 216.927 221.995 228.263L222.229 229.278C222.742 231.548 223.215 234.211 224.061 236.664C217.786 245.307 219.293 259.962 229.557 264.855C232.079 266.059 234.886 266.739 237.689 266.647C239.152 266.595 240.677 266.396 242.062 265.915C242.753 265.675 243.436 265.369 243.972 264.878C245.257 271.677 248.193 277.941 251.883 283.832C253.962 287.145 256.374 290.454 259.166 293.205C262.117 296.108 267.21 298.945 270.808 295.373C272.034 294.158 271.639 292.271 270.291 291.37C267.764 289.671 265.09 288.629 262.86 286.469C260.378 284.064 258.029 281.468 255.813 278.82C252.652 275.045 249.875 270.927 247.159 266.794L244.943 263.415C244.948 263.404 244.952 263.393 244.956 263.382L244.976 263.312C244.982 263.277 244.988 263.243 244.993 263.21L245.047 262.864C245.059 262.838 245.075 262.804 245.094 262.764L245.183 262.562C245.862 261.258 245.017 259.759 243.54 259.696C243.065 259.696 242.999 259.681 243.34 259.649L243.481 259.637C242.975 259.341 242.428 259.194 241.837 259.194C241.146 259.194 240.489 259.43 239.828 259.592C238.853 259.833 237.984 260.002 236.98 259.999C234.919 259.991 232.932 259.397 231.193 258.3C227.174 255.766 226.015 250.333 226.665 245.887C226.849 244.627 227.152 243.438 227.584 242.33C228.12 242.784 228.718 243.172 229.387 243.486C229.486 243.534 229.568 243.397 229.475 243.334C228.822 242.913 228.26 242.411 227.781 241.85C228.984 239.035 231.019 236.757 233.911 235.157C235.736 234.149 237.796 233.669 239.824 233.739C239.831 233.798 239.843 233.857 239.854 233.916C240.076 235.072 240.624 235.654 241.421 236.354L241.707 236.601C242.797 237.532 244.193 237.447 245.072 236.572L245.094 236.601C245.375 236.324 245.615 236.066 245.822 235.811C246.232 236.118 246.62 236.461 246.986 236.842C247.122 236.982 247.351 236.801 247.259 236.631C246.97 236.11 246.646 235.619 246.284 235.164C246.753 234.382 246.934 233.554 246.937 232.343C246.94 231.093 246.905 229.839 246.87 228.587C246.858 228.13 246.845 227.673 246.834 227.217C246.756 223.919 246.587 220.62 246.457 217.322C246.426 216.496 246.358 215.642 246.29 214.775C246.128 212.716 245.96 210.592 246.254 208.639C246.497 207.024 247.473 206.646 248.818 206.253L250.565 205.748C254.672 204.546 258.833 203.04 259.724 198.183C260.277 195.16 259.359 192.334 258.437 189.497C257.777 187.466 257.116 185.429 256.991 183.31C256.725 178.86 258.092 174.328 260.621 170.646C263.074 171.281 265.515 171.957 268.008 172.456C271.458 173.15 274.918 173.77 278.39 174.332C285.212 175.436 292.055 176.319 298.951 176.832C312.771 177.859 326.695 177.342 340.405 175.277C342.355 174.986 344.298 174.642 346.226 174.217C346.214 174.546 346.199 174.878 346.181 175.211C346.074 177.065 346.022 178.908 346.019 180.762C345.956 181.246 345.971 181.77 346.06 182.343L346.163 183.011C346.237 183.477 346.421 183.901 346.695 184.274C347.352 194.542 348.737 204.754 350.055 214.962L350.369 217.404C351.935 229.615 353.418 241.839 354.665 254.086C354.776 255.172 354.907 256.275 355.04 257.389C355.633 262.365 356.253 267.558 355.163 272.382C354.085 277.173 351.027 280.896 347.219 283.872C338.27 290.879 327.05 295.503 316.125 298.339C310.275 299.857 303.948 301.371 297.872 301.301C295.697 301.275 293.389 301.013 291.398 300.075C289.698 299.277 288.63 297.841 287.656 296.295L287.468 295.994C286.656 294.683 284.285 294.757 283.956 296.452C282.977 301.471 287.52 304.596 291.852 305.807C296.782 307.187 301.918 306.545 306.902 305.785L307.763 305.652C320.675 303.65 332.963 299.336 344.637 293.542C349.804 290.978 354.609 287.525 358.133 282.916C362.059 277.775 363.274 271.692 362.93 265.321C362.546 258.3 361.438 251.26 360.552 244.291L360.276 242.136C359.444 235.672 358.575 229.211 357.605 222.766C355.747 210.419 353.734 197.999 350.403 185.951C350.476 185.944 350.55 185.936 350.624 185.925C352.729 185.608 353.97 184.001 354.151 181.929L354.491 178.04L354.675 178.052C360.786 178.428 368.728 177.673 371.547 171.344C372.529 169.139 372.777 166.69 372.319 164.478C376.396 163.421 380.182 161.217 383.1 158.17C384.614 156.589 384.507 154.303 383.1 152.7C382.265 151.744 381.375 150.887 380.437 150.119C383.1 149.173 385.596 147.4 386.985 144.929C388.773 141.749 388.071 137.857 385.571 135.282C383.422 133.067 380.374 131.987 377.547 130.899L376.543 130.511C365.09 126.122 353.054 123.419 340.859 122.16ZM239.691 242.681C236.183 242.382 233.339 243.571 230.764 245.842C230.51 246.064 230.79 246.411 231.071 246.363C233.623 245.912 236.64 246.418 239.078 247.205C241.792 248.084 243.252 249.931 245.438 251.567C247.839 253.362 251.174 249.857 249.537 247.467C247.466 244.442 243.218 242.983 239.691 242.681Z"/>
</mask>
<path fill-rule="evenodd" clip-rule="evenodd" d="M340.859 122.16C316.151 119.604 290.46 123.501 267.808 133.776C255.824 139.212 244.817 146.695 235.171 155.651C233.409 155.156 231.481 155.053 229.878 155.33C227.256 155.784 224.855 157.284 223.282 159.426C220.888 162.676 220.973 166.82 222.79 170.114C222.502 170.346 222.236 170.613 221.993 170.9C220.076 173.187 220.275 176.138 221.682 178.638C222.076 179.339 222.784 180.115 223.534 180.936C225.063 182.611 226.764 184.474 226.318 186.276C226.018 187.499 224.933 188.644 224.301 189.718C223.514 191.055 222.85 192.451 222.259 193.884C217.658 204.992 219.4 216.927 221.995 228.263L222.229 229.278C222.742 231.548 223.215 234.211 224.061 236.664C217.786 245.307 219.293 259.962 229.557 264.855C232.079 266.059 234.886 266.739 237.689 266.647C239.152 266.595 240.677 266.396 242.062 265.915C242.753 265.675 243.436 265.369 243.972 264.878C245.257 271.677 248.193 277.941 251.883 283.832C253.962 287.145 256.374 290.454 259.166 293.205C262.117 296.108 267.21 298.945 270.808 295.373C272.034 294.158 271.639 292.271 270.291 291.37C267.764 289.671 265.09 288.629 262.86 286.469C260.378 284.064 258.029 281.468 255.813 278.82C252.652 275.045 249.875 270.927 247.159 266.794L244.943 263.415C244.948 263.404 244.952 263.393 244.956 263.382L244.976 263.312C244.982 263.277 244.988 263.243 244.993 263.21L245.047 262.864C245.059 262.838 245.075 262.804 245.094 262.764L245.183 262.562C245.862 261.258 245.017 259.759 243.54 259.696C243.065 259.696 242.999 259.681 243.34 259.649L243.481 259.637C242.975 259.341 242.428 259.194 241.837 259.194C241.146 259.194 240.489 259.43 239.828 259.592C238.853 259.833 237.984 260.002 236.98 259.999C234.919 259.991 232.932 259.397 231.193 258.3C227.174 255.766 226.015 250.333 226.665 245.887C226.849 244.627 227.152 243.438 227.584 242.33C228.12 242.784 228.718 243.172 229.387 243.486C229.486 243.534 229.568 243.397 229.475 243.334C228.822 242.913 228.26 242.411 227.781 241.85C228.984 239.035 231.019 236.757 233.911 235.157C235.736 234.149 237.796 233.669 239.824 233.739C239.831 233.798 239.843 233.857 239.854 233.916C240.076 235.072 240.624 235.654 241.421 236.354L241.707 236.601C242.797 237.532 244.193 237.447 245.072 236.572L245.094 236.601C245.375 236.324 245.615 236.066 245.822 235.811C246.232 236.118 246.62 236.461 246.986 236.842C247.122 236.982 247.351 236.801 247.259 236.631C246.97 236.11 246.646 235.619 246.284 235.164C246.753 234.382 246.934 233.554 246.937 232.343C246.94 231.093 246.905 229.839 246.87 228.587C246.858 228.13 246.845 227.673 246.834 227.217C246.756 223.919 246.587 220.62 246.457 217.322C246.426 216.496 246.358 215.642 246.29 214.775C246.128 212.716 245.96 210.592 246.254 208.639C246.497 207.024 247.473 206.646 248.818 206.253L250.565 205.748C254.672 204.546 258.833 203.04 259.724 198.183C260.277 195.16 259.359 192.334 258.437 189.497C257.777 187.466 257.116 185.429 256.991 183.31C256.725 178.86 258.092 174.328 260.621 170.646C263.074 171.281 265.515 171.957 268.008 172.456C271.458 173.15 274.918 173.77 278.39 174.332C285.212 175.436 292.055 176.319 298.951 176.832C312.771 177.859 326.695 177.342 340.405 175.277C342.355 174.986 344.298 174.642 346.226 174.217C346.214 174.546 346.199 174.878 346.181 175.211C346.074 177.065 346.022 178.908 346.019 180.762C345.956 181.246 345.971 181.77 346.06 182.343L346.163 183.011C346.237 183.477 346.421 183.901 346.695 184.274C347.352 194.542 348.737 204.754 350.055 214.962L350.369 217.404C351.935 229.615 353.418 241.839 354.665 254.086C354.776 255.172 354.907 256.275 355.04 257.389C355.633 262.365 356.253 267.558 355.163 272.382C354.085 277.173 351.027 280.896 347.219 283.872C338.27 290.879 327.05 295.503 316.125 298.339C310.275 299.857 303.948 301.371 297.872 301.301C295.697 301.275 293.389 301.013 291.398 300.075C289.698 299.277 288.63 297.841 287.656 296.295L287.468 295.994C286.656 294.683 284.285 294.757 283.956 296.452C282.977 301.471 287.52 304.596 291.852 305.807C296.782 307.187 301.918 306.545 306.902 305.785L307.763 305.652C320.675 303.65 332.963 299.336 344.637 293.542C349.804 290.978 354.609 287.525 358.133 282.916C362.059 277.775 363.274 271.692 362.93 265.321C362.546 258.3 361.438 251.26 360.552 244.291L360.276 242.136C359.444 235.672 358.575 229.211 357.605 222.766C355.747 210.419 353.734 197.999 350.403 185.951C350.476 185.944 350.55 185.936 350.624 185.925C352.729 185.608 353.97 184.001 354.151 181.929L354.491 178.04L354.675 178.052C360.786 178.428 368.728 177.673 371.547 171.344C372.529 169.139 372.777 166.69 372.319 164.478C376.396 163.421 380.182 161.217 383.1 158.17C384.614 156.589 384.507 154.303 383.1 152.7C382.265 151.744 381.375 150.887 380.437 150.119C383.1 149.173 385.596 147.4 386.985 144.929C388.773 141.749 388.071 137.857 385.571 135.282C383.422 133.067 380.374 131.987 377.547 130.899L376.543 130.511C365.09 126.122 353.054 123.419 340.859 122.16ZM239.691 242.681C236.183 242.382 233.339 243.571 230.764 245.842C230.51 246.064 230.79 246.411 231.071 246.363C233.623 245.912 236.64 246.418 239.078 247.205C241.792 248.084 243.252 249.931 245.438 251.567C247.839 253.362 251.174 249.857 249.537 247.467C247.466 244.442 243.218 242.983 239.691 242.681Z" fill="black" stroke="white" stroke-width="2" mask="url(#path-5-inside-1_14_193)"/>
<path fill-rule="evenodd" clip-rule="evenodd" d="M301.277 203.513L301.516 203.476C303.329 203.214 304.562 203.516 305.74 205.065C306.302 205.803 306.129 206.918 305.74 207.673C304.809 209.483 302.665 209.671 300.671 209.846C299.98 209.907 299.306 209.966 298.708 210.091C296.437 210.563 294.172 211.206 292.048 212.142C289.88 213.097 287.846 214.227 285.862 215.517C284.067 216.685 282.439 218.439 280.389 219.119C280.297 219.149 280.186 219.066 280.192 218.969C280.338 216.637 282.285 214.497 283.793 212.836C285.538 210.916 287.66 209.211 289.87 207.856C292.15 206.457 294.615 205.306 297.167 204.503C298.511 204.08 299.886 203.744 301.277 203.513ZM340.198 204.874C336.85 203.982 331.176 203.342 328.894 206.679C328.814 206.796 328.893 206.98 329.028 207.01C332.466 207.784 335.761 208.492 339.014 209.944C341.788 211.184 344.042 212.866 346.318 214.725L346.824 215.141L347.615 215.797C350.58 218.264 354.525 214.456 351.889 211.524C348.945 208.252 344.396 205.991 340.198 204.874ZM312.46 220.845C308.387 217.88 303.28 216.398 298.262 216.441C297.212 216.45 296.192 216.526 295.198 216.665C288.602 215.974 281.988 221.731 279.374 227.635C275.99 235.281 276.273 247.243 285.411 250.558C287.331 251.254 289.378 251.563 291.403 251.824L292.874 252.01C295.616 252.346 298.398 252.59 301.159 252.565C306.472 252.518 310.697 250.482 313.93 246.259C316.81 242.498 319.408 237.721 319.411 232.862C319.415 227.872 316.356 223.683 312.46 220.845ZM355.745 240.443C354.438 244.392 351.588 247.434 347.617 248.771C343.682 250.096 339.306 249.613 335.284 248.897C334.404 248.74 333.512 248.567 332.622 248.365C333.35 248.816 333.994 249.452 334.61 250.123C335.52 251.116 336.346 252.162 336.597 253.406C336.845 254.639 336.454 255.577 335.739 256.285C334.641 257.374 332.868 257.961 331.367 258.286C328.006 259.012 324.638 258.899 321.293 258.154C320.439 257.964 319.86 257.506 319.535 256.909C319.14 256.183 319.108 255.281 319.334 254.459C319.561 253.638 320.05 252.88 320.76 252.461C321.345 252.116 322.076 252.022 322.906 252.298C324.572 252.852 326.226 253.219 327.985 253.262C328.73 253.279 329.48 253.257 330.223 253.188C330.644 253.15 331.063 253.096 331.481 253.03C331.235 252.702 330.996 252.369 330.763 252.032C330.487 251.635 330.219 251.231 329.963 250.821C329.222 249.635 328.605 248.415 328.062 247.128C327.889 246.715 327.727 246.301 327.573 245.885C327.55 245.825 327.528 245.765 327.506 245.705C327.458 245.665 327.411 245.625 327.364 245.584C326.303 244.667 325.414 243.537 324.785 242.137C323.083 238.345 323.36 233.639 324.393 229.702C325.221 226.547 327.049 223.628 329.463 221.645C329.884 220.951 330.163 220.531 330.504 220.176C331.891 218.733 333.828 217.759 335.717 217.167C339.937 215.843 344.534 216.793 348.111 219.312C351.414 221.639 354 225.128 355.397 229.009C356.721 232.684 356.979 236.714 355.745 240.443ZM306.738 222.066C300.453 219.245 292.817 220.09 286.72 223.1C284.305 225.735 282.54 229.056 281.826 232.104C281.063 235.359 281.175 238.864 282.322 242.018C283.722 245.868 287.169 246.822 290.889 247.414L292.333 247.64L292.938 247.732C296.593 248.277 300.588 248.701 304.1 248.019C308.014 247.258 310.5 244.096 312.456 240.854L312.547 240.702C314.579 237.305 316.28 233.174 314.576 229.282C313.127 225.974 309.962 223.513 306.738 222.066ZM336.888 222.437C339.217 221.637 341.677 221.854 343.834 223.049C348.517 225.644 351.177 231.365 350.634 236.62C350.404 238.844 349.517 241.098 347.638 242.425C345.481 243.949 342.66 244.01 340.085 243.831L339.585 243.793L337.702 243.636C335.26 243.422 332.524 243.052 330.717 241.514C328.736 239.826 328.297 236.746 328.251 234.229L328.247 233.941L328.246 233.659C328.252 231.529 328.552 229.365 329.278 227.365C329.9 227.442 330.584 227.209 330.975 226.625L331.075 226.482C331.849 225.411 332.814 225.01 333.846 224.217L334.181 223.964C335.02 223.339 335.886 222.781 336.888 222.437ZM296.885 223.535C300.346 221.768 304.504 222.211 307.436 224.425C307.175 224.476 306.919 224.541 306.663 224.669C305.998 225.003 305.585 225.671 305.428 226.381C305.251 227.184 305.667 227.945 306.46 228.198C307.15 228.418 307.968 228.519 308.609 228.1C308.944 227.881 309.179 227.591 309.333 227.227L309.355 227.174L309.382 227.134L309.392 227.116C309.394 227.109 309.382 227.122 309.363 227.152C309.383 227.107 309.401 227.061 309.419 227.015C309.446 226.96 309.472 226.905 309.493 226.848C309.53 226.815 309.564 226.78 309.598 226.744C310.131 227.563 310.549 228.489 310.815 229.519C312.519 236.128 305.531 242.987 299.288 243.673C296.929 243.932 294.777 243.37 292.992 242.263C293.008 242.241 293.026 242.222 293.041 242.199C293.758 242.328 294.615 242.007 294.875 241.207C295.539 239.166 294.858 236.779 292.635 236.113C291.204 235.684 289.74 236.158 288.717 237.136C287.944 235.243 287.667 233.112 288.033 230.978C288.549 227.966 290.366 225.253 293.193 224C294.569 223.39 295.755 223.261 296.885 223.535ZM333.439 227.446L333.334 227.612C331.923 229.888 331.575 232.608 332.297 235.002C332.3 235.046 332.304 235.09 332.309 235.134L332.342 235.398C333.274 235.159 334.267 235.347 334.934 236.163C335.201 236.164 335.466 236.223 335.679 236.347L335.751 236.392C336.405 236.823 336.516 237.608 336.241 238.295L336.211 238.363L336.217 238.354C336.238 238.312 336.156 238.549 336.147 238.574L336.094 238.714C336.057 238.807 336.018 238.899 335.978 238.99C335.819 239.354 335.603 239.647 335.34 239.944C335.24 240.057 335.125 240.142 335.001 240.208C336.539 241.424 338.545 242.017 340.55 241.812C342.716 241.591 344.52 240.498 345.69 238.887C345.812 238.78 345.936 238.675 346.052 238.559C348.934 235.68 349.273 230.489 346.817 227.259C346.667 227.063 346.51 226.89 346.349 226.735C346.28 226.985 346.155 227.227 345.977 227.393C345.649 227.698 345.249 227.898 344.795 227.906C344.486 227.912 344.17 227.83 343.902 227.673C343.51 227.444 343.221 227.067 343.018 226.668C342.831 226.3 342.778 225.93 342.869 225.53C342.872 225.518 342.876 225.506 342.88 225.494L342.908 225.425C341.907 224.81 340.688 224.545 339.524 224.703C339.261 224.54 338.969 224.415 338.672 224.337C336.553 223.782 334.508 225.801 333.439 227.446ZM299.223 259.896C299.13 259.837 299.007 259.862 298.929 259.934C298.244 260.566 298.235 261.442 297.991 262.312C297.652 263.516 297.262 264.721 296.841 265.897C296.019 268.191 295.074 270.599 293.566 272.539L293.505 272.62C292.222 274.351 292.389 276.789 294.594 277.718C296.473 278.51 298.361 277.4 298.883 275.608L298.906 275.648C299.861 273.375 300.652 271.011 300.926 268.563C301.182 268.698 301.435 268.83 301.679 268.961L302.077 269.174C303.542 269.947 305.042 270.653 306.593 271.236C310.259 272.615 314.045 273.566 317.911 274.186C321.487 274.758 325.093 275.09 328.712 274.788C332.253 274.492 336.439 273.804 339.506 271.896C343.08 269.672 339.968 264.603 336.255 266.333C334.771 267.024 333.501 267.812 331.906 268.288C330.557 268.69 329.169 268.991 327.773 269.172C324.522 269.592 321.167 269.501 317.907 269.251C314.547 268.994 311.189 268.48 307.892 267.785L306.906 267.581C305.59 267.315 304.271 267.061 302.96 266.771C302.342 266.635 301.689 266.439 301.028 266.267C301.01 264.304 300.821 260.906 299.223 259.896Z" fill="black"/>
<path fill-rule="evenodd" clip-rule="evenodd" d="M369.152 215.153C369.457 215.198 369.761 215.245 370.065 215.296C372.405 215.684 372.765 219.362 370.728 220.369C369.16 221.144 368.175 222.689 368.595 224.473C368.9 225.767 368.342 226.796 367.462 227.327C367.191 235.674 365.819 245.024 359.326 251.132C344.383 261.021 329.581 248.963 332.678 229.897C332.456 229.741 332.261 229.543 332.118 229.296C332.015 229.129 331.927 228.963 331.844 228.797C331.518 228.53 329.104 227.658 325.969 228.093C322.834 228.527 321.838 229.989 320.252 231.572C320.007 232.049 319.588 232.41 318.929 232.558C317.682 239.579 316.4 247.368 311.022 252.625C297.553 265.212 274.307 254.761 275.166 235.613C270.486 234.815 274.388 229.322 266.983 228.093C265.647 227.645 264.383 226.79 263.55 225.809C252.475 224.619 241.573 225.152 230.865 228.999C230.21 229.273 229.525 229.523 228.843 229.772C225.046 231.156 221.345 232.506 223.445 237.817C223.365 239.579 221.21 240.626 219.941 239.325L219.94 239.326C219.938 239.324 219.937 239.322 219.935 239.319C212.728 226.379 226.411 224.214 236.924 222.55C237.156 222.514 237.386 222.477 237.614 222.441C243.27 221.222 249.057 220.706 254.837 220.828C255.507 220.856 256.225 220.867 256.961 220.878C259.201 220.912 261.617 220.948 263.397 221.499C263.406 221.502 263.415 221.504 263.425 221.507C265.886 214.046 317.07 212.3 320.03 224.674C321.407 224.639 322.66 224.742 323.854 224.84C326.032 225.019 328.011 225.181 330.179 224.457C331.185 215.465 355.564 212.098 366.101 214.469C366.836 214.537 367.571 214.664 368.312 214.852C368.636 214.915 368.915 215.018 369.152 215.153ZM358.158 223.101C358.538 222.45 359.527 222.108 360.181 222.568C361.674 223.619 362.757 225.183 362.83 227.054C362.903 228.966 359.946 228.956 359.872 227.054L359.866 226.963C359.798 226.235 359.251 225.526 358.689 225.13L358.627 225.084C358.014 224.615 357.74 223.817 358.158 223.101ZM305.857 224.341C304.003 223.933 303.21 226.793 305.071 227.202C306.389 227.492 307.505 228.156 308.26 229.282L308.339 229.404C309.352 231.015 311.912 229.528 310.892 227.907C309.745 226.082 307.963 224.804 305.857 224.341Z" fill="black"/>
</g>
<defs>
<clipPath id="clip0_14_193">
<rect width="554" height="554" fill="white"/>
</clipPath>
</defs>
</svg>
