<svg width="581" height="554" viewBox="0 0 581 554" fill="none" xmlns="http://www.w3.org/2000/svg">
<g clip-path="url(#clip0_14_236)">
<path d="M72.9057 530.522C77.2806 577.451 172.5 569.63 219.563 559.853C256.849 554.173 321.477 577.75 403.008 559.853C484.54 541.956 444.271 491.249 409.471 393.811C374.671 296.373 417.426 246.162 403.008 182.032C388.591 117.902 409.471 120.885 321.477 60.7322C233.483 0.579239 262.814 60.7322 196.694 104.48C130.574 148.227 160.9 66.2007 85.3343 87.5774C9.76861 108.954 112.18 210.369 147.974 299.356C183.769 388.342 67.4371 471.86 72.9057 530.522Z" fill="black" stroke="black" stroke-width="1.10579"/>
<path fill-rule="evenodd" clip-rule="evenodd" d="M398.002 472.909C405.903 473.087 402.515 399.353 397.239 385.766C396.5 383.012 395.89 379.25 396.013 375.871C402.538 376.523 401.836 372.056 401.499 366.669C401.609 362.392 401.907 353.567 395.362 357.003C375.74 317.711 396.956 216.143 345.292 206.577C339.066 205.065 332.632 203.5 327.39 199.182C321.844 188.928 319.019 187.619 309.829 186.955C308.127 177.719 304.947 167.851 295.467 164.257C286.788 160.856 276.688 160.584 267.638 162.4C260.148 164.843 259.463 178.769 257.799 185.634C247.711 182.959 235.278 177.331 229.847 190.088C227.216 189.302 224.779 189.812 222.106 190.687C199.702 194.298 177.965 204.435 169.655 225.587C164.522 238.28 168.165 252.097 170.09 265.242C171.885 279.557 167.151 292.818 164.957 306.586C161.689 325.546 161.098 340.754 163.231 354.846C157.595 356.128 157.179 361.256 159.459 366.621C160.129 368.436 160.803 370.351 162.284 371.377C165.296 373.273 169.189 371.088 172.462 370.754C173.143 378.325 174.461 385.754 176.643 394.197C176.011 396.724 175.286 399.546 174.636 402.084L174.416 401.846C166.943 433.154 144.717 463.566 151.625 496.841C152.031 497.949 152.802 497.718 153.394 497.699C156.823 499.003 159.973 498.175 163.431 498.308C171.633 498.314 179.557 499.365 186.909 500.28C188.252 509.06 192.621 523.434 200.413 526.782C200.544 526.826 202.853 526.345 203.046 526.331C182.305 610.447 144.986 688.228 130.162 774.04C130.075 775.087 131.778 774.533 132.337 774.661C132.261 777.042 133.799 777.614 135.953 778.461C133.177 784.265 130.677 790.061 127.914 795.88C126.632 798.76 124.544 801.605 124.164 804.684C121.105 806.639 119.045 810.461 119.099 814.029C110.85 817.516 113.092 834.74 111.21 843.271C109.307 855.98 100.256 864.856 94.0496 875.276C92.7848 877.367 91.438 880.108 91.3782 882.735C87.5308 884.539 86.0961 888.48 86.3507 895.113C86.337 902.874 88.5257 905.829 94.4274 906.017C110.457 907.619 129.163 906.967 145.286 905.145C157.348 903.611 168.036 904.884 165.339 890.388C164.784 886.879 165.85 882.154 163.773 879.314C162.493 870.86 163.238 862.338 165.999 853.986C167.677 846.954 170.512 832.428 169.338 822.99C168.794 818.625 159.885 816.223 158.317 816.01C158.816 812.725 158.596 806.983 156.829 804.699C160.075 804.247 160.89 803.388 161.566 799.783C163.182 793.943 163.397 787.603 167.397 782.683C174.592 782.775 181.763 780.949 188.955 780.727L189.313 779.901C193.566 779.846 197.795 779.095 201.832 777.621C202.728 778.045 203.873 778.408 204.376 777.053L206.778 769.542C234.733 680.56 265.721 591.364 295.935 503.035C297.699 498.74 299.82 494.176 302.578 490.349C303.512 544.394 314.832 598.382 315.804 652.401C317.117 689.563 316.779 726.334 320.274 763.628C321.174 771.521 322.13 771.258 323.308 770.774C323.78 770.847 324.891 771.085 325.373 771.186C324.585 779.029 323.678 791.76 320.315 799.783C312.882 800.93 314.213 806.635 315.862 811.363C314.089 812.878 314.341 816.409 314.867 818.364C307.873 818.371 306.348 824.061 306.829 827.652C307.495 833.656 307.122 843.001 311.128 848.129C313.488 854.668 317.328 860.84 318.828 867.885C319.77 873.069 319.406 880.62 320.315 885.762C318.028 886.819 318.997 888.476 318.612 891.681C316.632 906.353 323.601 903.859 335.923 904.869C343.309 906.501 399.536 909.747 397.106 899.985C397.521 896.01 395.672 894.264 394.881 890.35C394.525 889.311 387.52 877.29 383.342 872.738C369.328 859.569 369.94 841.888 370.384 821.523C369.56 816.003 365.315 810.717 359.897 811.311C361.453 805.416 358.57 800.29 352.545 798.585C353.147 791.911 353.781 782.841 355.984 777.067L353.909 774.954L356.686 775.286L357.608 772.964L358.614 775.509C363.382 775.509 368.762 774.451 373.33 773.954C374.06 773.995 373.734 773.003 373.854 772.621C378.167 771.727 378.639 769.435 377.877 763.973C378.882 675.284 378.446 587.428 377.072 498.575C383.814 498.876 390.387 496.416 397.012 494.778C399.365 496.255 400.032 490.994 399.757 489.858C399.383 483.98 398.656 478.246 398.002 472.909Z" fill="white"/>
<path fill-rule="evenodd" clip-rule="evenodd" d="M259.565 173.267C260.567 174.058 260.463 176.251 260.562 177.479L260.569 177.559C260.884 181.268 260.457 184.994 259.553 188.594L259.413 189.143C258.981 190.864 258.552 192.927 257.2 194.107C255.665 195.448 253.227 194.58 253.171 192.418C253.143 191.414 253.479 190.446 253.903 189.504C250.929 190.651 247.954 191.787 244.968 192.894C243.06 208.673 265.099 227.992 277.86 234.755C296.443 245.042 312.078 229.285 314.457 210.761C314.856 208.3 315.124 205.772 315.176 203.277L315.179 203.038C315.19 200.975 314.848 198.217 316.191 196.502C315.202 196.479 314.324 196.618 313.355 196.77L313.402 196.85C313.951 197.831 314.726 200.273 312.989 200.459C309.238 200.064 307.494 193.488 306.579 190.334L306.543 190.197C305.953 187.833 305.201 179.254 306.979 178.225C307.526 180.342 307.311 182.64 307.976 184.763C309.489 185.373 312.371 185.538 313.038 185.65C320.833 185.74 325.252 191.336 328.411 197.887C337.672 205.489 350.985 204.182 360.985 210.443C391.587 232.628 381.593 318.996 396.836 355.738C399.887 354.475 402.998 357.004 403.406 360.09C403.827 362.463 403.701 365.005 403.735 367.409L403.749 367.709C403.998 372.627 404.849 378.154 398.207 378.262C398.218 381.007 398.735 383.664 399.398 386.315C403.075 402.356 404.68 418.879 405.042 435.324L405.06 436.532C405.18 445.175 405.286 471.915 400.317 475.079L400.549 476.963C401.124 481.673 401.666 486.395 401.969 491.13C402.446 493.587 400.823 499.475 397.512 497.916C391.441 499.418 385.453 501.634 379.144 501.646C380.672 552.507 379.912 603.421 380.138 654.303C379.651 691.81 381.679 729.627 379.906 766.99L379.97 767.518C380.471 771.713 380.622 775.361 375.773 776.798C375.703 777.824 374.913 778.373 373.977 778.493C371.319 778.851 368.661 779.19 366.001 779.516C363.522 779.701 360.87 780.317 358.4 780.023C358.639 780.265 357.991 780.302 357.921 780.126C355.668 785.778 355.015 791.939 354.457 797.968C359.923 800.052 362.907 804.739 362.014 810.615C367.53 810.838 371.558 816.968 372.331 822.134C372.826 825.698 372.429 829.238 372.269 832.809C371.506 845.012 373.3 858.159 381.177 867.892C386.29 874.002 392.947 879.529 395.178 887.485C395.784 887.768 396.282 888.316 396.5 889.171L397.916 894.726L398.62 897.504C399.135 899.529 399.593 901.601 399.317 903.697L399.288 903.9C397.909 917.179 343.477 910.779 332.853 909.825C328.582 909.155 323.896 909.52 320.051 907.259C315.334 904.146 314.745 897.83 315.554 892.658L315.622 892.173C315.95 889.86 316.43 887.435 318.624 886.141C317.885 881.349 318.171 876.445 317.293 871.671C315.965 864.916 311.95 859.055 309.901 852.57C306.911 849.245 306.81 844.062 306.185 839.811C305.712 835.686 305.324 831.533 305.165 827.384C304.731 821.899 307.111 817.376 312.878 816.659C312.611 815.62 313.343 814.721 314.072 814.056C312.352 807.948 311.878 799.563 319.338 797.48C322.163 790.473 322.984 782.88 323.736 775.408C323.647 775.389 323.558 775.373 323.468 775.358C320.05 776.781 319.123 770.689 318.803 767.472L318.732 766.704C315.214 729.514 315.538 692.105 314.217 654.801L314.088 652.104C312.93 627.525 312.241 602.729 307.99 578.478C303.713 551.449 302.594 523.979 301.132 496.666C299.41 499.342 298.484 502.415 297.09 505.267C279.006 558.404 260.45 611.38 242.572 664.59C229.613 703.113 217.233 741.842 204.816 780.546C204.183 782.527 202.186 782.938 200.725 782.303C197.006 783.594 193.103 784.326 189.176 784.453C188.939 784.997 188.453 785.395 187.742 785.318C185.642 785.087 183.224 785.744 181.124 785.989C176.317 786.464 171.65 787.202 166.799 787.271C163.794 791.071 163.605 796.223 162.22 800.746C161.422 803.051 161.547 808.221 158.793 808.87C159.78 810.391 159.909 812.217 159.749 814.099C160.606 814.294 161.475 814.662 162.281 815.038C163.066 815.436 164.103 815.402 164.643 816.202C180.028 818.991 168.785 848.207 166.111 857.87C163.486 865.77 162.664 874.021 163.862 882.269C165.693 884.798 165.08 888.559 165.36 891.557C165.507 894.232 165.778 896.947 165.754 899.626C165.455 910.751 151.722 908.941 143.974 910.385C139.136 910.948 134.276 911.34 129.416 911.644C117.09 912.411 104.696 912.469 92.3958 911.277C84.454 911.026 82.7464 905.844 82.759 898.757L82.7468 898.464C82.5679 893.654 83.3434 887.846 87.9109 885.345C88.1386 882.804 89.4276 880.238 90.7438 878.017C96.864 867.726 106.053 858.707 107.86 846.358C109.633 838.273 107.625 820.476 115.842 816.261C116.033 812.621 118.269 808.91 121.037 806.942C121.572 803.909 123.584 801.122 124.83 798.335C127.37 793.015 129.719 787.61 132.246 782.285C130.923 781.725 129.517 780.695 129.333 779.233C128.063 779.249 126.808 778.428 126.962 776.882C127.41 772.394 128.392 767.98 129.319 763.57L129.435 763.018C145.931 683.264 179.998 608.686 199.929 529.955C197.247 530.44 194.74 527.373 193.257 525.376C188.468 518.927 185.64 511.124 184.396 503.207L182.145 502.928C174.638 502.006 167.094 501.199 159.524 501.416L157.699 501.477C155.672 501.539 153.642 501.523 151.715 500.794C150.371 500.918 148.972 500.196 148.64 498.688C143.033 470.742 156.814 444.221 166.685 418.969C169.011 412.76 170.666 406.461 172.244 400.032C172.296 399.824 172.622 399.867 172.613 400.082C172.305 407.23 170.533 414.437 168.734 421.326C162.825 444.688 150.514 467.597 153.524 492.33C162.88 484.96 173.991 479.842 185.663 477.676C186.337 474.749 187.081 471.844 187.641 468.898C187.09 464.37 186.715 459.819 186.235 455.268C184.802 441.657 182.612 428.079 179.693 414.707C175.165 401.252 171.212 387.615 169.798 373.428L169.541 373.478C166.401 374.116 162.942 375.499 160.03 373.499C158.181 372.218 157.381 370.093 156.634 368.053C154.501 363.106 154.106 356.603 160.143 354.535C157.893 338.806 159.355 322.386 162.075 306.804C164.253 293.146 169.031 279.69 167.243 265.708C165.257 252.272 161.554 238.2 166.907 225.048C175.704 203.098 197.98 192.684 219.888 189.333L220.243 189.228C222.953 188.426 225.421 187.58 228.245 188.188C234.905 175.827 245.707 180.854 256.256 183.609C256.968 181.513 257.562 179.369 258.12 177.226C258.467 176.135 258.353 173.617 259.565 173.267ZM320.62 892.139L320.593 892.678C320.314 898.465 320.628 903.424 327.803 903.386C332.739 903.913 337.677 904.427 342.622 904.873L344.476 905.038C359.152 906.347 374.005 906.987 388.653 905.022L389.263 904.938C390.487 904.764 392.754 904.798 393.723 903.893C394.891 902.321 393.539 899.323 393.255 897.498C370.4 897.232 347.514 896.389 324.643 896.68C322.238 896.692 321.152 894.636 321.374 892.764C321.103 892.58 320.848 892.369 320.62 892.139ZM88.5664 889.236C87.4425 893.189 87.7193 896.924 88.3542 900.882C88.6716 905.027 90.6429 905.292 94.2102 905.389C108.137 906.674 122.163 906.405 136.093 905.327C143.56 904.522 151.232 904.553 158.559 902.901C162.055 901.352 160.037 896.479 160.156 893.492C143.7 904.098 118.814 902.752 100.869 896.615L100.582 896.492C96.3371 894.709 90.911 893.586 88.5664 889.236ZM115.824 817.872C113.932 820.006 113.893 826.085 113.813 828.154L113.803 828.386C113.591 832.731 113.625 837.086 113.436 841.431C113.575 859.73 103.01 868.857 95.164 883.569C93.018 887.14 96.14 887.646 98.6793 888.804C115.123 896.458 134.573 897.628 151.752 891.768C160.387 889.258 158.502 883.446 157.769 876.337C157.047 861.81 164.69 848.721 166.95 834.669L167.011 834.305C167.685 830.179 168.85 819.605 162.278 821.866C160.848 822.746 159.503 821.642 159.335 820.292C159.164 820.32 158.989 820.336 158.821 820.339C158.061 825.036 157.273 829.726 156.517 834.423C157.153 834.828 157.75 835.285 158.279 835.807C158.922 836.445 158.473 837.782 157.504 837.702C157.006 837.658 156.514 837.583 156.025 837.49C155.637 841.573 149.154 839.282 151.026 836.01C141.705 832.788 131.435 833.045 121.969 835.515L121.93 835.532C121.197 835.823 115.928 836.88 117.623 837.702C118.33 837.787 116.721 838.711 116.439 837.281C116.348 835.486 120.444 834.605 121.699 833.86C118.534 829.329 116.371 823.457 115.824 817.872ZM354.629 803.526C345.848 798.77 335.057 800.536 325.533 801.377L325.133 801.423C322.709 801.683 319.33 801.844 318.218 804.341C316.607 808.342 319.277 817.292 320.116 821.742L320.401 822.909C321.097 825.757 321.757 828.582 321.995 831.527C322.001 831.621 321.912 831.686 321.829 831.686C318.493 828.121 316.993 823.326 315.435 818.752C314.77 819.132 314.121 819.542 313.509 819.993C311.118 828.212 310.317 836.963 312.211 845.347L312.279 845.643C314.617 856.004 321.899 864.477 322.592 875.304C323.054 879.682 322.951 884.168 324.21 888.418C324.926 888.576 325.55 889.105 325.831 889.768L329.936 889.773C349.777 889.807 369.625 889.987 389.454 890.804C388.814 885.227 383.893 880.278 380.427 876.455C369.79 865.56 365.19 849.909 366.942 834.824C367.864 827.278 372.074 815.422 361.775 812.634C361.022 818.784 360.006 824.914 359.443 831.089C361.387 832.027 361.267 834.499 358.892 834.451C357.827 838.038 354.253 836.588 354.639 833.204C341.567 828.375 334.068 826.756 321.334 834.031C320.977 833.979 322.312 832.549 322.481 832.295C326.505 827.955 332.686 825.915 338.484 825.841C344.233 825.84 349.638 828.007 355.06 829.683C355.875 823.856 356.424 817.994 357.07 812.148L357.21 810.895C357.549 807.825 357.425 805.29 354.629 803.526ZM144.564 878.766C146.477 878.34 148.237 877.693 150.181 878.132C157.021 883.272 129.07 884.721 126.691 884.356C120.632 884.178 114.571 883.409 108.741 881.696L108.334 881.575C107.76 881.415 101.948 879.797 103.05 879.074C110.936 879.773 118.657 881.221 126.691 880.844C130.698 880.76 134.722 880.477 138.686 879.874C140.658 879.572 142.62 879.205 144.564 878.766ZM329.359 872.399C328.107 870.522 334.212 873.015 335.006 873.037C340.062 874.284 345.207 875.229 350.4 875.622C353.882 875.886 357.401 875.942 360.889 875.771C363.472 875.681 366.027 875.3 368.593 875.037L368.686 875.032C370.211 874.979 373.267 875.925 371.383 877.74C368.455 880.012 364.121 879.32 360.612 879.653C349.953 879.619 338.666 877.902 329.359 872.399ZM128.967 858.753C132.04 858.197 148.954 858.015 147.268 863.208C146.859 864.194 145.924 864.52 144.94 864.365C134.472 861.818 123.18 860.486 112.745 863.998C112.576 864.057 112.459 863.78 112.625 863.706C117.756 861.134 123.245 859.336 128.967 858.753ZM348.512 853.677C351.273 853.467 354.051 853.541 356.814 853.749L357.945 853.838C359.111 853.931 360.302 854.052 361.415 854.39L361.636 854.461C363.153 854.95 366.572 857.558 363.977 858.813C361.19 859.715 358.834 858.642 356.146 857.951C348.652 856.175 340.775 856.776 333.351 858.592L334.397 858.928C334.461 858.881 334.545 858.99 334.483 859.043C333.733 859.699 332.702 859.466 332.17 858.651C332.078 858.511 332.136 858.287 332.284 858.209C337.316 855.568 342.864 854.106 348.512 853.677ZM115.123 853.015C123.586 849.267 133.39 848.853 142.466 849.94L143.113 850.019C145.944 850.351 149.637 850.504 151.257 853.142C151.817 854.057 151.239 855.105 150.334 855.435C147.671 856.408 144.54 854.458 141.981 853.733C134.414 851.661 126.333 851.442 118.638 852.875C118.692 853.159 117.418 853.035 117.14 853.136C116.793 853.116 114.484 853.88 115.123 853.015ZM328.534 847.164C335.917 843.572 344.454 842.715 352.424 844.57L352.756 844.664C356.287 845.656 361.973 846.826 363.239 850.567C363.512 851.41 362.919 852.548 362.03 852.719C359.018 853.295 356.284 851.095 353.559 850.038C345.541 847.023 336.465 846.302 328.175 848.52C328.119 848.847 328.064 849.17 328.005 849.497C328.147 849.403 328.294 849.612 328.181 849.727C326.858 850.654 325.481 848.314 328.534 847.164ZM134.146 840.849C140.12 840.452 146.144 841.212 151.911 842.788L152.996 843.087C154.572 843.529 156.613 844.225 156.843 845.929C156.932 846.607 156.763 847.074 156.212 847.494C154.205 848.996 149.838 845.848 147.342 845.478C138.28 842.754 128.552 842.793 119.372 844.877L119.06 844.949L119.281 846.526C119.499 847.28 117.481 845.502 118.248 844.694C123.094 842.225 128.748 841.294 134.146 840.849ZM334.166 838.031C338.961 837.166 343.906 837.001 348.754 837.437L349.327 837.49C352.221 837.746 361.6 838.119 359.382 843.014C359.01 843.832 357.93 843.938 357.232 843.584C354.888 842.395 352.326 841.966 349.739 841.574C340.606 840.303 331.275 840.824 322.358 843.285C322.552 843.59 322.152 843.951 321.774 844.022C320.832 844.196 320.832 843.073 321.235 842.476C321.716 841.77 322.672 841.512 323.41 841.201C326.844 839.704 330.485 838.692 334.166 838.031ZM152.58 810.792L152.034 810.663C142.884 808.509 122.6 804.647 120.499 817.256C119.754 822.81 122.213 828.227 122.031 833.726C131.518 829.866 142.01 829.906 151.866 832.457C152.74 826.75 153.573 821.035 154.465 815.331L154.609 814.649C155.007 812.724 155.141 811.22 152.58 810.792ZM132.203 813.088C134.196 811.377 137.521 811.402 139.477 813.269C141.265 813.644 142.527 815.544 142.556 817.172C145.275 821.954 141.996 828.561 136.804 829.754C125.081 832.226 119.841 816.116 132.203 813.088ZM335.31 805.458C345.119 803.705 348.682 816.155 340.631 821.204C329.259 826.911 321.682 808.967 335.31 805.458ZM137.056 777.806C137.201 778.758 136.733 779.435 136.173 780.076C134.162 788.324 131.136 796 128.152 803.906C137.86 802.296 147.032 803.701 155.622 806.338C155.725 803.926 156.824 801.425 157.587 799.15C159.074 794.831 160.871 790.623 162.943 786.559L163.204 786.052C163.948 784.605 164.665 783.094 165.544 781.709C156.043 780.411 146.541 779.242 137.056 777.806ZM328.414 776.048L328.161 777.196C327.071 782.174 326.036 787.199 324.413 792.036L324.391 792.136C324.142 793.357 323.583 799.008 323.232 795.019C322.961 795.62 322.672 796.214 322.364 796.798L324.717 796.518C333.492 795.488 342.646 794.666 351.252 796.87C350.359 789.948 351.674 783.334 353.593 776.789C345.181 776.595 336.844 776.657 328.414 776.048ZM169.121 784.652C168.814 784.941 168.513 785.237 168.226 785.545C168.614 785.445 169.002 785.349 169.361 785.265C169.347 785.037 169.186 784.867 169.121 784.652ZM358.677 778.303L358.403 778.947C358.545 778.863 358.702 778.782 358.871 778.711C358.794 778.586 358.729 778.453 358.677 778.303ZM131.858 776.891C131.759 777.26 131.683 777.666 131.504 778.002C131.646 778.027 131.79 778.055 131.935 778.086C132.11 777.731 132.295 777.386 132.495 777.047C132.283 776.997 132.07 776.947 131.858 776.891ZM205.022 368.678C204.161 369.095 203.263 369.201 202.076 369.25C192.429 369.651 182.814 370.769 173.341 372.675C173.864 380.342 176.196 387.77 178.414 395.08L178.874 396.682C186.371 422.873 192.914 450.242 191.596 477.636C191.67 477.664 191.741 477.701 191.809 477.735C191.689 478.071 191.603 478.415 191.483 478.747L191.406 478.945L190.956 480.064C190.707 480.685 190.465 481.308 190.255 481.947C189.887 482.08 189.435 482.177 189.003 482.239C186.815 496.743 188.896 513.004 198.757 524.346C195.242 517.266 194.015 509.222 194.17 501.356L194.198 500.154C194.238 498.668 194.327 497.187 194.78 495.776C194.798 495.702 194.897 495.714 194.922 495.776C197.009 502.228 197.145 509.237 199.197 515.736L199.354 516.235C200.976 521.328 203.685 527.885 208.39 530.518C209.257 530.776 210.589 530.47 211.039 531.469L211.069 531.541L211.097 531.532C208.997 524.647 207.644 517.528 207.181 510.341L207.151 509.851C207.003 507.344 206.677 504.657 207.302 502.209C208.492 504.447 208.196 508.104 208.75 510.813L208.772 510.967C209.21 513.894 213.422 536.27 216.188 533.28C216.759 532.455 216.611 530.861 216.628 529.88L216.63 529.783C216.674 528.365 216.658 526.947 216.609 525.528C216.31 517.173 215.012 508.597 217.556 500.458C217.981 499.086 220.288 498.828 220.568 500.458C221.687 506.977 222.757 513.503 223.828 520.029C224.608 524.015 224.575 528.511 226.947 531.948C226.974 524.443 226.558 516.959 226.199 509.463L226.103 509.15C225.818 508.204 225.538 506.976 226.19 506.172C226.451 504.461 228.949 504.657 229.161 506.448C229.208 506.822 229.241 507.201 229.278 507.578C230.106 508.616 230.875 509.677 231.852 510.57C238.383 497.226 217.015 474.179 214.065 459.11C205.377 429.764 210.372 398.995 212.899 369.11C210.286 368.801 207.651 368.718 205.022 368.678ZM329.365 199.781C333.932 208.957 337.285 218.668 339.607 228.662C340.323 231.747 336.188 233.641 334.517 230.938L334.467 230.854C332.413 227.424 329.352 224.403 325.477 223.222C322.837 234.3 324.123 246.008 325.495 257.195C327.927 272.78 329.863 288.431 330.153 304.225L330.167 305.071C331.014 359.006 338.934 412.699 347.607 465.505C361.474 467.735 374.168 474.023 386.95 479.552C389.171 480.42 391.441 481.176 393.766 481.698C387.344 421.829 362.921 365.683 355.374 306.033C353.379 290.519 353.286 274.765 356.041 259.341C356.088 259.045 356.506 259.145 356.524 259.406C356.827 265.742 357.909 271.995 358.551 278.296C358.988 274.697 359.997 271.052 360.812 267.602C361.808 264.228 362.176 258.81 365.097 256.61L365.281 255.972C365.358 255.698 365.764 255.813 365.7 256.087C365.669 256.218 365.638 256.345 365.61 256.476C367.486 256.975 365.734 259.202 365.269 260.268C362.258 268.353 361.363 277.105 359.308 285.438C362.281 311.453 367.636 337.138 374.232 362.423C380.291 360.822 386.371 359.282 392.446 357.717C378.896 313.495 386.819 264.144 366.517 221.919C358.911 207.748 340.178 209.673 329.365 199.781ZM226.412 191.697C223.57 191.544 220.601 193.09 217.873 193.622C214.256 194.325 210.657 194.882 207.12 195.961C189.014 200.936 171.546 214.522 168.266 234.096C166.012 247.536 171.594 260.632 171.398 274.035C170.809 287.314 166.441 300.076 164.738 313.221C162.691 326.663 161.986 340.732 163.742 354.239C179.984 349.621 196.946 349.332 213.601 351.716C212.212 331.244 214.035 310.671 215.043 290.212C215.769 277.074 217.012 263.876 216.572 250.712C216.563 250.42 217.036 250.348 217.082 250.641C222.077 277.526 219.147 304.819 218.642 331.934C218.322 338.784 219.168 345.7 218.827 352.513C226.398 354.147 226.125 362.997 223.809 368.83C223.399 370.234 222.006 369.99 220.878 369.82C219.656 371.107 216.741 369.427 215.08 369.428C213.78 403.084 205.879 439.032 222.068 470.489C228.837 470.526 235.352 468.185 241.93 466.858L242.289 466.786L242.298 466.783C243.265 465.521 243.738 463.493 243.867 462.009C244.786 436.09 241.909 410.112 243.592 384.19C245.654 355.418 252.057 326.822 249.096 297.855C247.048 271.966 241.426 246.546 238.717 220.734L238.579 219.399C238.411 217.807 238.347 216.049 237.561 214.836C232.99 219.011 229.155 223.975 226.408 229.56C224.888 232.259 220.815 231.058 220.752 228.012C220.167 222.573 220.08 217.113 220.673 211.673L220.727 211.193C221.463 204.383 223.516 197.884 226.412 191.697ZM396.347 378.485C390.459 378.797 384.565 379.452 378.667 379.375L379.261 381.608C386.4 408.404 394.002 435.152 398.484 462.569L398.647 459.998C398.809 457.426 398.964 454.854 399.066 452.276C400.337 427.636 398.395 403.028 396.347 378.485ZM243.088 207.473C243.113 208.587 243.168 209.697 243.255 210.804C245.976 214.896 245.734 220.334 246.343 225.041C249.758 250.46 254.786 275.774 256.48 301.457C258.057 322.002 255.483 342.476 252.852 362.815C249.607 386.108 249.947 409.643 250.701 433.093C263.168 421.78 280.889 419.795 296.62 416.281L297.368 416.129C309.464 413.645 321.534 410.046 331.81 402.974C324.42 349.978 326.159 296.299 318.603 243.35C318.37 239.18 318.322 234.987 318.667 230.821C318.335 226.31 318.236 221.775 318.228 217.253C314.916 230.612 303.821 243.52 289.284 243.098C273.816 242.188 260.687 229.488 250.603 218.602C247.869 215.355 245.149 211.563 243.088 207.473ZM379.122 378.51L378.424 378.476L378.467 378.629C378.61 378.6 378.757 378.573 378.903 378.548L379.122 378.51ZM398.309 360.413C398.199 360.379 398.011 360.379 397.801 360.389C397.5 361.085 396.891 361.661 396.184 361.851L390.282 363.449C385.363 364.781 380.442 366.107 375.514 367.397C376.342 370.594 377.182 373.792 378.03 376.986C384.751 374.81 392.192 375.304 399.044 373.904C398.96 370.213 398.759 366.503 398.696 362.805C398.681 362.202 398.804 361.232 398.497 360.69C398.303 360.345 398.497 360.473 398.309 360.413ZM172.551 372.837L172.366 372.877C172.428 373.045 172.484 373.213 172.536 373.384C172.539 373.201 172.542 373.02 172.551 372.837ZM216.305 355.076C203.643 353.224 190.766 352.129 177.995 353.39C172.219 354.176 166.355 355.014 160.694 356.087C158.725 359.125 160.903 366.519 163.354 368.858C164.089 369.138 165.354 368.594 166.058 368.435C171.343 367.236 176.68 366.269 182.043 365.515C182.203 365.717 182.437 365.847 182.726 365.819L183.958 365.705C191.355 365.027 198.818 364.53 206.231 364.955L206.286 364.998C211.288 365.365 216.272 366.158 221.253 366.731C223.22 361.561 222.881 355.63 216.305 355.076ZM308.434 186.477C308.923 188.143 309.511 189.762 310.242 191.336C311.006 191.123 312.059 191.294 312.62 191.777L312.859 191.734C313.515 191.609 314.304 191.417 314.509 191.395C323.556 190.136 322.866 202.308 322.899 208.425C322.955 211.492 323.016 214.562 323.109 217.629C325.698 216.742 329.16 218.336 331.422 219.747C329.651 213.815 327.568 207.98 325.246 202.247L324.807 201.13C322.977 196.505 320.951 191.822 317.065 188.602C314.109 187.824 311.246 187.683 308.434 186.477ZM242.84 183.423C234.431 180.407 231.1 187.262 228.767 194.098C226.018 201.669 225.267 210.005 225.725 218.151L226.009 217.775C229.102 213.627 233.563 206.78 239.204 207.881C239.148 204.733 239.261 201.276 239.862 198.008C239.512 195.899 239.422 193.768 239.665 191.638C239.794 188.966 242.688 189.371 244.592 188.994C246.241 187.889 248.237 187.445 250.243 188.222C251.756 188.02 253.269 187.827 254.783 187.634C255.015 187.121 255.202 186.605 255.398 186.079C251.21 185.208 247.023 184.311 242.84 183.423Z" fill="black"/>
<path fill-rule="evenodd" clip-rule="evenodd" d="M300.648 188.381C293.989 188.419 288.329 186.533 284.011 183.413C278.622 181.495 272.123 178.537 268.175 175.431C266.635 175.824 264.792 174.191 263.614 173.329C256.286 167.867 250.534 159.873 248.83 151.865C246.199 155.18 242.455 155.317 238.868 153.67C231.35 149.414 231.631 140.453 234.338 133.758C228.648 121.014 224.704 87.3714 233.39 73.7939C235.167 71.7624 237.774 70.5472 239.651 68.4639C241.322 66.6444 242.911 64.7833 244.854 63.3435C250.784 58.8386 260.997 56.44 267.392 55.3119C294.087 49.551 314.598 59.9055 338.779 68.6397C337.387 72.1133 335.462 75.2813 333.256 78.2351C339.259 80.4717 336.501 85.5004 331.844 88.0497L329.071 86.7045C333.394 102.14 343.34 140.525 339.049 152.851C335.626 172.082 320.606 188.52 300.648 188.381Z" fill="white"/>
<path fill-rule="evenodd" clip-rule="evenodd" d="M304.505 190.036C295.859 190.922 285.587 188.881 279.824 181.871C279.651 181.661 279.576 181.423 279.571 181.194C279.566 180.939 279.652 180.692 279.8 180.501C279.956 180.299 280.178 180.159 280.432 180.113C280.646 180.075 280.89 180.099 281.142 180.24L281.672 180.535C285.608 182.705 289.696 184.556 294.158 185.348C298.751 186.163 303.428 186.072 307.98 185.036C316.273 183.15 322.984 178.34 327.923 171.996C333.436 164.917 336.746 155.931 337.59 146.945C338.612 136.054 336.24 125.23 333.786 114.685C331.208 103.605 328.39 92.581 325.116 81.6854C325.017 81.3574 324.991 81.0504 325.019 80.7677C324.054 80.3901 323.026 80.4949 322.003 80.8396C320.134 81.4695 318.272 82.8898 316.72 84.0622C316.157 84.4868 315.634 84.8815 315.164 85.2026C313.239 86.5177 311.134 87.4639 308.78 87.6127C306.333 87.7671 303.933 87.0078 301.71 86.0575C300.58 85.5747 299.469 85.0739 298.362 84.5751C295.211 83.1547 292.096 81.7484 288.693 80.8344C284.133 79.6094 279.425 79.006 274.702 79.0492C266.273 79.1262 257.818 81.2918 252.653 88.4074C250.56 91.2898 249.196 94.6027 250.26 98.16C250.839 100.095 251.931 101.852 253.123 103.468L253.532 104.018C254.186 104.905 254.754 105.788 254.925 106.729C255.069 107.517 254.957 108.35 254.393 109.264C254.039 109.839 253.587 110.354 253.133 110.868C252.806 111.239 252.477 111.609 252.195 112.008C251.625 112.811 251.121 113.676 250.726 114.579C249.952 116.345 249.623 118.245 249.554 120.162C249.471 122.474 249.797 124.736 250.12 127.001C250.349 128.607 250.578 130.214 250.67 131.841C250.686 132.125 250.599 132.337 250.477 132.493C250.328 132.685 250.111 132.806 249.863 132.839C249.788 132.849 249.71 132.851 249.632 132.844C249.67 133.001 249.704 133.158 249.734 133.316C249.577 133.115 249.411 132.92 249.235 132.732C249.224 132.726 249.213 132.72 249.202 132.714C249.02 132.615 248.867 132.463 248.77 132.269C248.521 132.038 248.258 131.819 247.982 131.613C246.543 130.542 244.864 129.907 243.179 129.886C241.555 129.866 239.927 130.418 238.675 131.583C236.187 133.9 235.458 137.683 235.432 140.93C235.406 144.245 236.175 148.223 239.07 150.282C240.232 151.107 241.651 151.603 243.08 151.618C244.264 151.63 245.398 151.211 246.514 150.813C246.858 150.69 247.201 150.567 247.542 150.456C247.931 150.33 248.285 150.338 248.593 150.431C248.941 150.534 249.236 150.749 249.456 151.035C249.676 151.32 249.819 151.677 249.864 152.051C249.907 152.413 249.858 152.789 249.704 153.128C249.666 153.213 249.625 153.296 249.583 153.377L250.219 154.422C252.658 158.414 255.139 162.333 258.393 165.765C260.261 167.734 262.24 169.593 264.412 171.22L264.725 171.452C264.912 171.589 265.12 171.758 265.342 171.939C265.975 172.457 266.734 173.15 267.443 173.178C267.653 173.186 267.837 173.159 268.004 173.138C268.408 173.085 268.746 173.069 269.079 173.205C269.346 173.314 269.624 173.517 269.909 173.937C270.102 174.222 270.201 174.578 270.201 174.94C270.201 175.304 270.101 175.668 269.923 175.955C269.554 176.55 269.107 176.919 268.623 177.128C268.083 177.362 267.487 177.397 266.867 177.282C265.339 176.997 263.648 175.734 262.571 174.91L262.363 174.751C259.979 172.935 257.719 170.926 255.732 168.679C252.348 164.854 249.31 160.345 247.749 155.419C246.649 156.14 245.289 156.482 243.868 156.536C241.798 156.615 239.607 156.083 237.992 155.319C234.434 153.634 232.272 150.449 231.259 146.785C230.083 142.53 230.465 137.639 231.954 133.817C231.998 133.705 232.043 133.595 232.089 133.482C227.504 121.888 226.095 109.014 226.487 96.6412C226.671 90.8496 227.066 84.7733 228.435 79.125C229.048 76.5933 230.114 74.1824 231.817 72.1893C232.787 71.0528 233.978 70.1679 235.174 69.2856C236.21 68.5213 237.25 67.7587 238.125 66.8045L238.538 66.3514C238.628 66.2529 238.718 66.1545 238.807 66.0562C240.318 64.3937 241.789 62.7805 243.623 61.4171C245.75 59.8363 248.097 58.599 250.535 57.5714C255.788 55.3584 261.443 54.0315 267.036 53.0049C279.137 50.7844 291.559 50.6748 303.511 53.7961C309.069 55.2471 314.462 57.2332 319.846 59.217C320.346 59.4011 320.846 59.5853 321.345 59.769C325.529 61.3068 329.716 62.8379 333.902 64.3692C335.848 65.0808 337.793 65.7924 339.739 66.5047C340.161 66.6593 340.574 66.9923 340.809 67.4061C341.039 67.8098 341.107 68.2805 340.922 68.7493C339.728 71.7682 338.222 74.6004 336.389 77.2453C337.026 77.6778 337.568 78.2531 337.978 78.9263C338.497 79.7779 338.804 80.786 338.825 81.8555C338.895 85.4373 335.629 87.8653 332.92 89.6214C332.668 89.7853 332.418 89.882 332.176 89.9264C334.801 99.9452 337.314 109.998 339.449 120.131L339.596 120.833C341.796 131.437 343.215 142.259 341.135 153.004C339.344 162.257 335.182 171.187 328.68 178.079C322.308 184.835 313.757 189.088 304.505 190.036ZM247.574 129.034C246.441 125.448 245.841 121.546 246.275 117.911C246.547 115.626 247.236 113.426 248.356 111.412C248.998 110.258 249.78 109.19 250.634 108.185L250.929 107.847C251.078 107.674 251.226 107.516 251.272 107.317C251.299 107.201 251.272 107.075 251.201 106.924C251.045 106.59 250.756 106.268 250.485 105.953C250.312 105.753 250.144 105.557 250.003 105.366C247.521 102.014 245.671 98.0223 246.272 93.7708C246.859 89.6229 249.583 85.7564 252.482 82.8426C258.866 76.4265 268.764 74.9521 277.435 75.306C282.482 75.5118 287.522 76.3998 292.329 77.9509C294.699 78.7159 297.016 79.6476 299.269 80.7154L299.767 80.9544C300.036 81.0846 300.305 81.2161 300.574 81.3478C302.335 82.2095 304.102 83.0797 306.013 83.5482C309.745 84.4629 312.276 82.5363 314.937 80.5934C315.849 79.9275 316.775 79.2524 317.759 78.6599L317.962 78.5404C319.737 77.5131 321.861 76.8218 323.901 76.8528C325.673 76.8797 327.382 77.4445 328.774 78.779C329.06 79.0532 329.224 79.3524 329.301 79.6501C329.455 79.8656 329.579 80.1226 329.66 80.4261C330.159 82.2935 330.655 84.1621 331.15 86.0313L331.555 85.7712C332.753 84.9944 334.055 84.1066 334.644 82.807C334.87 82.3068 334.838 81.4734 334.553 80.8607C334.453 80.6466 334.321 80.4563 334.139 80.3375C334.006 80.251 333.846 80.2104 333.661 80.2254C333.209 80.2834 332.795 80.2175 332.443 80.0692C332.038 79.8981 331.714 79.6167 331.504 79.2775C331.29 78.9302 331.192 78.5219 331.244 78.0985C331.289 77.7344 331.446 77.3542 331.757 76.9969C333.801 74.6451 335.522 72.0508 336.831 69.2349L328.177 66.039C325.091 64.9 322.005 63.7625 318.917 62.6294L317.227 62.0094C311.612 59.9539 305.966 57.9452 300.127 56.6218C288.524 53.992 276.424 54.6101 264.852 57.0855L264.153 57.2363C259.298 58.2931 254.377 59.5718 249.92 61.7945C247.732 62.8854 245.653 64.212 243.867 65.888C243.078 66.6281 242.365 67.4385 241.652 68.2478C240.653 69.3819 239.652 70.513 238.463 71.4684L237.36 72.3501C235.719 73.67 234.239 74.9561 233.313 77.0031C232.345 79.1433 231.882 81.5076 231.505 83.8111C230.554 89.6141 230.179 95.5099 230.215 101.388C230.275 111.257 231.778 120.926 233.675 130.56C235.198 128.385 237.337 126.699 240.082 126.339C241.872 126.105 243.646 126.438 245.185 127.228C246.074 127.684 246.884 128.294 247.574 129.034ZM244.697 140.753C242.693 139.978 240.588 139.724 238.467 140.095C238.245 140.133 238.033 140.087 237.855 139.984C237.674 139.879 237.532 139.713 237.455 139.531C237.365 139.319 237.361 139.09 237.44 138.887C237.508 138.711 237.638 138.54 237.878 138.425C240.175 137.331 242.727 136.849 245.261 137.192L245.511 137.227C246.806 137.419 248.628 137.823 249.994 138.617C251.067 139.241 251.852 140.101 252.047 141.225C252.149 141.811 252.004 142.422 251.666 142.865C251.339 143.294 250.839 143.579 250.192 143.561C249.051 143.529 248.375 143.047 247.562 142.424C247.463 142.348 247.362 142.271 247.257 142.192C246.472 141.605 245.613 141.107 244.697 140.753Z" fill="black"/>
<path fill-rule="evenodd" clip-rule="evenodd" d="M306.101 163.662C304.084 162.841 302.285 161.471 300.97 159.721C300.512 159.113 300.394 158.471 300.49 157.883C300.597 157.223 300.989 156.624 301.523 156.222C302.059 155.819 302.729 155.621 303.376 155.722C303.939 155.81 304.5 156.118 304.943 156.756L305.036 156.883C305.818 157.939 306.837 158.806 307.998 159.364C309.118 159.903 310.369 160.154 311.665 160.008C314.132 159.73 315.833 158.398 317.64 156.589C317.864 156.361 318.088 156.125 318.313 155.886C318.456 155.669 318.653 155.53 318.872 155.457C319.116 155.376 319.391 155.38 319.643 155.468C319.886 155.553 320.104 155.713 320.25 155.927C320.388 156.13 320.467 156.381 320.441 156.669C320.276 158.544 319.294 160.216 317.9 161.53C316.351 162.989 314.298 163.998 312.365 164.352C310.236 164.742 308.066 164.462 306.101 163.662ZM313.37 134.747C315.635 136.122 319.087 139.327 316.65 142.734C313.781 145.739 309.651 142.294 307.615 140.736C305.728 139.529 303.608 142.634 305.359 144.044C320.066 154.913 326.035 135.107 314.515 133.131C313.247 132.914 312.776 134.322 313.37 134.747ZM287.014 122.104C287.264 119.003 291.996 118.299 292.467 121.368C292.888 124.116 292.392 126.642 291.152 129.117C289.966 131.481 286.987 130.378 286.762 128.225C286.46 125.339 286.858 124.033 287.014 122.104ZM323.033 120.731C323.693 119.869 324.646 119.28 325.787 119.613C329.352 120.653 328.302 125.705 327.049 128.165C326.369 129.5 324.17 129.839 323.176 128.663C321.556 126.745 320.78 122.916 322.839 121.027C322.895 120.929 322.957 120.831 323.033 120.731ZM291.101 108.534L291.665 108.436C293.407 108.135 295.573 107.846 296.806 109.244C297.46 109.986 297.685 111.364 296.806 112.073C295.26 113.322 293.552 112.838 291.699 112.944C290.173 113.031 288.706 113.283 287.236 113.703C284.01 114.623 281.382 116.303 278.627 118.148C278.265 118.39 277.896 117.928 278.069 117.591C279.659 114.482 282.741 111.928 285.828 110.371C287.476 109.54 289.279 108.85 291.101 108.534ZM319.783 107.141L320.214 107.229C324.906 108.208 331.001 110.163 333.222 114.763C333.307 115.413 333.217 115.553 333.145 115.644L333.12 115.674C333.06 115.752 333.013 115.859 332.73 115.948C332.652 115.929 332.573 115.909 332.493 115.888C331.474 115.622 330.669 115.255 329.889 114.874L329.043 114.458C328.062 113.978 327.072 113.515 326.023 113.174C323.784 112.445 321.482 111.931 319.143 111.657C318.636 111.598 318.148 111.427 317.763 111.135C317.398 110.857 317.119 110.472 316.991 109.961C316.826 109.3 316.874 108.799 317.229 108.202C317.497 107.754 317.879 107.443 318.319 107.265C318.767 107.083 319.276 107.04 319.783 107.141Z" fill="black"/>
<path fill-rule="evenodd" clip-rule="evenodd" d="M348.207 111.948C347.96 111.907 347.713 111.868 347.465 111.832C347.273 111.723 347.046 111.639 346.783 111.588C346.181 111.436 345.584 111.333 344.987 111.278C336.428 109.355 316.625 112.085 315.808 119.376C313.082 120.284 310.724 119.471 307.564 119.552C305.16 109.519 263.584 110.935 261.585 116.984C261.577 116.982 261.57 116.98 261.562 116.977C259.641 116.384 256.808 116.527 254.609 116.433C249.914 116.335 245.213 116.753 240.619 117.741C232.017 119.106 220.276 120.703 226.259 131.426L226.263 131.432L226.263 131.431C227.295 132.486 229.044 131.636 229.11 130.208C227.098 125.128 231.641 124.518 235.137 123.058C243.835 119.939 252.69 119.507 261.686 120.472C262.363 121.267 263.39 121.961 264.475 122.324C270.49 123.32 267.32 127.774 271.122 128.421C270.424 143.946 289.306 152.42 300.247 142.214C304.616 137.951 305.657 131.636 306.67 125.944C307.205 125.824 307.546 125.532 307.745 125.145C309.033 123.861 309.842 122.676 312.388 122.324C314.935 121.971 316.896 122.678 317.161 122.895C317.228 123.029 317.299 123.164 317.383 123.299C317.499 123.5 317.658 123.66 317.838 123.786C315.323 139.245 327.346 149.022 339.484 141.004C344.758 136.052 345.872 128.47 346.093 121.703C346.808 121.273 347.26 120.438 347.013 119.389C346.672 117.942 347.471 116.69 348.745 116.061C350.4 115.245 350.108 112.262 348.207 111.948ZM296.052 119.282C294.545 118.951 293.902 121.27 295.413 121.602C296.483 121.836 297.391 122.375 298.003 123.288L298.068 123.387C298.89 124.693 300.97 123.487 300.142 122.173C299.21 120.693 297.762 119.657 296.052 119.282ZM340.178 117.844C339.647 117.471 338.843 117.748 338.535 118.276C338.196 118.857 338.418 119.504 338.915 119.884L338.966 119.921C339.422 120.242 339.867 120.818 339.923 121.407L339.928 121.481C339.987 123.024 342.389 123.032 342.329 121.481C342.271 119.964 341.391 118.697 340.178 117.844Z" fill="black"/>
</g>
<defs>
<clipPath id="clip0_14_236">
<rect width="580.321" height="554" fill="white"/>
</clipPath>
</defs>
</svg>
