<svg width="340" height="372" viewBox="0 0 340 372" fill="none" xmlns="http://www.w3.org/2000/svg">
<g clip-path="url(#clip0_14_236)">
<path d="M9.47408 300.135C11.6704 357.509 23.7727 366.624 50.3109 372H242.828C258.385 357.817 270.968 332.496 270.968 312.293C270.968 229.791 217 262.837 217 205.5C217 162.042 208 151.5 208 88.5C208 48.1585 191.694 32.4892 170.287 15.6707C138.957 -8.94422 79.5623 19.0055 50.3109 15.6706C-0.533005 9.87405 30.4073 116.702 24.9166 175.38C19.4259 234.057 6.72874 228.419 9.47408 300.135Z" fill="black"/>
<path fill-rule="evenodd" clip-rule="evenodd" d="M217.251 317.549C222.556 317.668 220.281 268.158 216.739 259.034C216.243 257.185 215.833 254.659 215.915 252.39C220.297 252.828 219.825 249.828 219.599 246.211C219.673 243.339 219.873 237.413 215.478 239.72C202.302 213.337 216.549 145.136 181.857 138.712C177.677 137.697 173.356 136.646 169.837 133.747C166.113 126.862 164.216 125.982 158.045 125.537C156.902 119.335 154.766 112.709 148.401 110.296C142.573 108.012 135.791 107.829 129.714 109.048C124.685 110.689 124.225 120.04 123.107 124.65C116.333 122.853 107.985 119.074 104.338 127.641C102.572 127.112 100.935 127.455 99.1401 128.043C84.0964 130.467 69.5005 137.274 63.9208 151.477C60.4741 160 62.9202 169.278 64.2128 178.105C65.4183 187.717 62.2394 196.622 60.7659 205.867C58.5718 218.598 58.175 228.81 59.6068 238.272C55.8223 239.133 55.5432 242.576 57.0743 246.179C57.5239 247.398 57.9768 248.683 58.9711 249.372C60.9935 250.646 63.6075 249.178 65.8055 248.954C66.2627 254.038 67.148 259.026 68.6127 264.695C68.1885 266.392 67.702 268.287 67.2651 269.992L67.1177 269.831C62.0996 290.855 47.1753 311.276 51.8138 333.619C52.0865 334.363 52.6041 334.208 53.0015 334.195C55.3041 335.071 57.4191 334.515 59.7411 334.604C65.2488 334.608 70.5699 335.314 75.5061 335.928C76.4084 341.824 79.342 351.476 84.5737 353.723C84.6617 353.754 86.2125 353.43 86.3421 353.421C72.4149 409.903 47.3561 462.132 37.4021 519.753C37.3432 520.456 38.4871 520.084 38.8624 520.169C38.811 521.768 39.8439 522.153 41.2903 522.721C39.4265 526.618 37.7475 530.511 35.8921 534.418C35.0318 536.352 33.6297 538.262 33.3742 540.329C31.3202 541.642 29.9367 544.209 29.9734 546.604C24.4344 548.946 25.9399 560.512 24.6762 566.24C23.3984 574.774 17.3205 580.733 13.1531 587.73C12.3038 589.135 11.3995 590.975 11.3593 592.739C8.77584 593.951 7.81252 596.597 7.98348 601.051C7.97426 606.262 9.44393 608.246 13.4068 608.373C24.1707 609.448 36.7312 609.01 47.5575 607.787C55.6564 606.757 62.8332 607.611 61.0224 597.878C60.6498 595.521 61.3656 592.349 59.9712 590.442C59.1115 584.765 59.6117 579.043 61.4655 573.435C62.5925 568.713 64.4964 558.959 63.7075 552.621C63.3426 549.69 57.3604 548.077 56.3074 547.935C56.6424 545.728 56.4949 541.873 55.308 540.34C57.4875 540.036 58.0354 539.459 58.4893 537.038C59.574 533.117 59.7184 528.86 62.4046 525.556C67.236 525.618 72.0512 524.392 76.88 524.243L77.1203 523.688C79.9763 523.651 82.8163 523.147 85.5272 522.157C86.1283 522.442 86.8973 522.686 87.2352 521.776L88.8477 516.732C107.619 456.983 128.427 397.089 148.715 337.778C149.899 334.894 151.324 331.83 153.176 329.26C153.803 365.55 161.404 401.802 162.057 438.074C162.939 463.028 162.712 487.719 165.058 512.761C165.662 518.061 166.304 517.884 167.095 517.559C167.412 517.609 168.158 517.768 168.482 517.836C167.953 523.103 167.344 531.651 165.086 537.038C160.095 537.809 160.989 541.639 162.096 544.814C160.905 545.832 161.074 548.203 161.428 549.515C156.731 549.52 155.707 553.341 156.031 555.752C156.477 559.784 156.227 566.058 158.917 569.502C160.501 573.893 163.08 578.037 164.087 582.768C164.72 586.249 164.476 591.319 165.086 594.772C163.55 595.481 164.201 596.594 163.942 598.746C162.613 608.598 167.292 606.924 175.566 607.602C180.526 608.697 218.281 610.877 216.65 604.322C216.928 601.653 215.687 600.481 215.155 597.853C214.917 597.155 210.213 589.083 207.407 586.026C197.997 577.184 198.408 565.311 198.706 551.636C198.153 547.93 195.302 544.38 191.665 544.779C192.709 540.821 190.773 537.379 186.728 536.234C187.132 531.752 187.557 525.663 189.037 521.785L187.643 520.367L189.508 520.589L190.128 519.03L190.803 520.739C194.005 520.739 197.617 520.029 200.684 519.695C201.174 519.722 200.956 519.056 201.036 518.8C203.932 518.2 204.25 516.661 203.738 512.993C204.412 453.44 204.12 394.446 203.197 334.783C207.724 334.985 212.138 333.334 216.586 332.233C218.166 333.225 218.614 329.693 218.429 328.93C218.179 324.983 217.69 321.133 217.251 317.549Z" fill="white"/>
<path fill-rule="evenodd" clip-rule="evenodd" d="M124.294 116.345C124.966 116.877 124.896 118.349 124.963 119.174L124.967 119.228C125.179 121.718 124.892 124.22 124.285 126.637L124.191 127.006C123.901 128.162 123.613 129.547 122.706 130.339C121.675 131.239 120.037 130.657 120 129.205C119.981 128.53 120.207 127.881 120.491 127.248C118.494 128.019 116.497 128.781 114.492 129.525C113.21 140.12 128.01 153.092 136.578 157.633C149.056 164.541 159.555 153.96 161.152 141.522C161.42 139.87 161.6 138.172 161.635 136.497L161.637 136.336C161.644 134.951 161.415 133.099 162.317 131.947C161.653 131.932 161.063 132.025 160.413 132.127L160.444 132.181C160.812 132.84 161.333 134.48 160.166 134.604C157.648 134.339 156.476 129.923 155.862 127.806L155.838 127.714C155.442 126.126 154.937 120.365 156.131 119.675C156.498 121.096 156.354 122.639 156.8 124.065C157.816 124.474 159.751 124.585 160.2 124.66C165.433 124.721 168.401 128.478 170.522 132.877C176.741 137.982 185.68 137.104 192.395 141.308C212.944 156.205 206.233 214.199 216.468 238.871C218.517 238.023 220.606 239.721 220.879 241.793C221.162 243.387 221.078 245.093 221.1 246.708L221.11 246.91C221.277 250.212 221.848 253.923 217.389 253.995C217.396 255.839 217.743 257.623 218.188 259.403C220.658 270.174 221.735 281.269 221.978 292.311L221.991 293.123C222.071 298.926 222.142 316.882 218.806 319.006L218.961 320.271C219.347 323.434 219.711 326.605 219.915 329.784C220.235 331.434 219.145 335.388 216.922 334.341C212.845 335.349 208.824 336.837 204.588 336.845C205.614 370.998 205.104 405.185 205.256 439.352C204.929 464.537 206.29 489.93 205.1 515.019L205.143 515.373C205.48 518.19 205.58 520.64 202.325 521.604C202.278 522.294 201.747 522.662 201.118 522.743C199.334 522.983 197.549 523.211 195.763 523.43C194.098 523.554 192.318 523.968 190.659 523.77C190.82 523.933 190.384 523.957 190.337 523.839C188.825 527.634 188.386 531.771 188.012 535.82C191.682 537.219 193.685 540.366 193.086 544.312C196.79 544.462 199.494 548.578 200.013 552.046C200.346 554.44 200.079 556.817 199.972 559.215C199.459 567.409 200.664 576.237 205.953 582.772C209.387 586.875 213.856 590.586 215.355 595.929C215.761 596.119 216.096 596.486 216.243 597.061L217.193 600.791L217.666 602.656C218.012 604.016 218.319 605.407 218.134 606.815L218.114 606.951C217.188 615.868 180.638 611.57 173.505 610.929C170.637 610.48 167.49 610.725 164.909 609.206C161.741 607.116 161.345 602.875 161.889 599.402L161.934 599.077C162.154 597.524 162.477 595.895 163.95 595.026C163.454 591.808 163.646 588.516 163.056 585.31C162.165 580.774 159.469 576.838 158.093 572.484C156.085 570.251 156.018 566.771 155.598 563.916C155.28 561.147 155.02 558.358 154.913 555.572C154.621 551.889 156.219 548.852 160.092 548.37C159.913 547.673 160.404 547.069 160.894 546.622C159.739 542.521 159.42 536.891 164.429 535.492C166.327 530.787 166.878 525.689 167.383 520.671C167.323 520.658 167.263 520.648 167.203 520.637C164.908 521.593 164.285 517.503 164.07 515.342L164.023 514.827C161.661 489.854 161.878 464.735 160.991 439.686L160.904 437.875C160.127 421.37 159.664 404.721 156.81 388.437C153.937 370.287 153.187 351.842 152.205 333.501C151.048 335.298 150.427 337.362 149.491 339.276C137.347 374.957 124.888 410.53 112.883 446.259C104.181 472.127 95.8683 498.132 87.5305 524.121C87.1051 525.452 85.7647 525.727 84.7836 525.301C82.2864 526.168 79.6657 526.66 77.0283 526.745C76.8695 527.11 76.5431 527.377 76.0658 527.325C74.6552 527.171 73.0321 527.611 71.6214 527.776C68.3937 528.095 65.2602 528.59 62.0029 528.637C59.9851 531.188 59.8583 534.648 58.9278 537.685C58.3923 539.233 58.4763 542.704 56.6268 543.14C57.2898 544.162 57.3766 545.388 57.2692 546.651C57.8444 546.782 58.4278 547.029 58.9689 547.282C59.496 547.549 60.1922 547.526 60.5553 548.063C70.8855 549.936 63.3363 569.554 61.5407 576.043C59.7783 581.348 59.2265 586.888 60.0307 592.426C61.26 594.124 60.8484 596.65 61.0365 598.663C61.1355 600.459 61.3172 602.282 61.3009 604.081C61.1002 611.551 51.8786 610.336 46.676 611.305C43.4274 611.683 40.164 611.947 36.9008 612.151C28.6245 612.666 20.3018 612.705 12.0425 611.905C6.70979 611.736 5.56311 608.257 5.57158 603.498L5.56344 603.301C5.44327 600.071 5.96401 596.171 9.03103 594.492C9.18386 592.785 10.0494 591.062 10.9332 589.571C15.0428 582.661 21.213 576.605 22.4266 568.313C23.6171 562.884 22.2684 550.934 27.7864 548.103C27.9145 545.659 29.4157 543.167 31.2748 541.845C31.6335 539.809 32.9851 537.937 33.8213 536.066C35.5269 532.494 37.1046 528.864 38.8011 525.289C37.9128 524.913 36.9689 524.221 36.845 523.24C35.9922 523.25 35.1495 522.699 35.2528 521.661C35.554 518.647 36.2132 515.684 36.8358 512.722L36.9133 512.352C47.9906 458.799 70.8655 408.721 84.2487 355.854C82.4479 356.18 80.7645 354.12 79.769 352.78C76.5533 348.449 74.654 343.21 73.8187 337.894L72.3072 337.706C67.2664 337.087 62.2006 336.545 57.1176 336.691L55.8925 336.732C54.5316 336.774 53.1682 336.763 51.8745 336.273C50.9719 336.357 50.0322 335.872 49.8091 334.859C46.0444 316.094 55.2982 298.286 61.9265 281.329C63.4879 277.16 64.5993 272.931 65.6588 268.614C65.6937 268.474 65.9126 268.503 65.9066 268.647C65.7001 273.447 64.5102 278.286 63.3018 282.912C59.3341 298.599 51.068 313.982 53.0889 330.59C59.3711 325.641 66.8323 322.205 74.6697 320.75C75.122 318.785 75.6218 316.834 75.9977 314.856C75.628 311.815 75.376 308.759 75.0538 305.704C74.0914 296.564 72.6211 287.447 70.661 278.468C67.6204 269.433 64.9659 260.275 64.0166 250.749L63.8439 250.783C61.7358 251.211 59.4131 252.14 57.4573 250.797C56.216 249.937 55.6788 248.51 55.1774 247.14C53.7447 243.818 53.4797 239.452 57.5335 238.063C56.0223 227.501 57.0042 216.476 58.8308 206.013C60.2932 196.842 63.5017 187.806 62.3007 178.418C60.9674 169.396 58.4811 159.947 62.0752 151.115C67.9821 136.376 82.9401 129.384 97.6507 127.133L97.8891 127.063C99.7089 126.524 101.366 125.956 103.262 126.365C107.735 118.064 114.988 121.44 122.071 123.29C122.55 121.883 122.948 120.443 123.323 119.004C123.556 118.271 123.479 116.58 124.294 116.345ZM165.291 599.053L165.272 599.415C165.085 603.302 165.296 606.631 170.113 606.606C173.428 606.96 176.744 607.305 180.064 607.605L181.31 607.715C191.164 608.594 201.137 609.024 210.973 607.704L211.383 607.648C212.205 607.531 213.727 607.554 214.378 606.946C215.162 605.891 214.254 603.877 214.064 602.652C198.717 602.474 183.349 601.907 167.992 602.103C166.377 602.111 165.648 600.731 165.797 599.473C165.615 599.35 165.444 599.208 165.291 599.053ZM9.47115 597.105C8.71648 599.758 8.90236 602.267 9.32864 604.924C9.54179 607.707 10.8655 607.886 13.2608 607.951C22.6121 608.814 32.0309 608.633 41.3846 607.909C46.398 607.369 51.5498 607.389 56.4699 606.28C58.8171 605.24 57.4621 601.968 57.542 599.962C46.4924 607.084 29.7815 606.18 17.7323 602.059L17.5392 601.977C14.689 600.779 11.0455 600.025 9.47115 597.105ZM27.774 549.185C26.5037 550.618 26.4773 554.7 26.424 556.089L26.4173 556.245C26.2746 559.162 26.2973 562.087 26.1709 565.004C26.264 577.292 19.1698 583.42 13.9013 593.299C12.4603 595.697 14.5566 596.037 16.2618 596.814C27.3033 601.954 40.3639 602.739 51.8991 598.805C57.6973 597.119 56.4315 593.217 55.9391 588.443C55.4543 578.688 60.5863 569.9 62.1043 560.463L62.1452 560.219C62.5978 557.449 63.3799 550.348 58.9669 551.867C58.0067 552.458 57.1039 551.716 56.9905 550.81C56.8761 550.829 56.7588 550.839 56.6456 550.841C56.1353 553.995 55.6066 557.145 55.0987 560.299C55.526 560.57 55.9267 560.877 56.2819 561.228C56.7136 561.656 56.412 562.554 55.7615 562.5C55.4271 562.471 55.0966 562.421 54.768 562.358C54.5076 565.1 50.1543 563.561 51.4118 561.364C45.1526 559.201 38.2569 559.373 31.9006 561.032L31.8743 561.043C31.3822 561.239 27.8439 561.948 28.9822 562.5C29.4566 562.557 28.3765 563.178 28.1871 562.218C28.1259 561.013 30.8762 560.421 31.7188 559.921C29.5936 556.878 28.1414 552.935 27.774 549.185ZM188.127 539.552C182.231 536.359 174.985 537.544 168.589 538.109L168.321 538.139C166.693 538.314 164.425 538.423 163.677 540.099C162.596 542.786 164.389 548.795 164.952 551.783L165.144 552.567C165.611 554.48 166.054 556.376 166.214 558.354C166.218 558.417 166.158 558.461 166.102 558.461C163.862 556.067 162.855 552.847 161.809 549.776C161.362 550.031 160.927 550.307 160.516 550.609C158.91 556.128 158.373 562.004 159.644 567.634L159.689 567.832C161.26 574.79 166.15 580.479 166.615 587.75C166.925 590.689 166.856 593.701 167.701 596.555C168.182 596.661 168.601 597.016 168.789 597.462L171.546 597.465C184.869 597.488 198.196 597.609 211.511 598.157C211.082 594.412 207.777 591.089 205.449 588.522C198.307 581.206 195.218 570.697 196.395 560.568C197.014 555.501 199.841 547.539 192.925 545.668C192.42 549.797 191.737 553.913 191.36 558.06C192.665 558.69 192.584 560.35 190.99 560.317C190.274 562.726 187.874 561.752 188.134 559.48C179.356 556.237 174.321 555.15 165.77 560.035C165.53 560 166.427 559.04 166.54 558.87C169.243 555.955 173.393 554.586 177.286 554.536C181.146 554.535 184.776 555.991 188.417 557.116C188.964 553.203 189.332 549.267 189.766 545.341L189.86 544.5C190.087 542.439 190.005 540.736 188.127 539.552ZM47.0726 590.074C48.3572 589.788 49.5388 589.354 50.8439 589.648C55.4372 593.099 36.6688 594.073 35.0709 593.828C31.0028 593.708 26.9329 593.191 23.0178 592.042L22.7449 591.96C22.3593 591.853 18.4569 590.766 19.1969 590.281C24.4922 590.75 29.6764 591.723 35.0709 591.469C37.762 591.413 40.4635 591.223 43.1257 590.818C44.4496 590.615 45.7673 590.369 47.0726 590.074ZM171.158 585.799C170.318 584.538 174.417 586.212 174.95 586.227C178.345 587.064 181.8 587.699 185.287 587.963C187.625 588.14 189.988 588.178 192.33 588.063C194.065 588.003 195.78 587.746 197.504 587.57L197.566 587.567C198.59 587.531 200.642 588.166 199.377 589.385C197.411 590.911 194.501 590.446 192.144 590.67C184.987 590.647 177.408 589.494 171.158 585.799ZM36.5995 576.636C38.6627 576.262 50.0203 576.14 48.888 579.627C48.6133 580.289 47.9855 580.508 47.3246 580.404C40.2956 578.694 32.7133 577.799 25.7066 580.157C25.593 580.197 25.5146 580.011 25.6261 579.961C29.0711 578.234 32.7573 577.027 36.5995 576.636ZM184.019 573.227C185.874 573.086 187.739 573.136 189.594 573.276L190.354 573.335C191.136 573.398 191.936 573.479 192.683 573.706L192.832 573.754C193.851 574.082 196.147 575.833 194.404 576.676C192.533 577.281 190.95 576.561 189.145 576.097C184.114 574.904 178.824 575.308 173.839 576.527L174.541 576.753C174.585 576.722 174.641 576.795 174.599 576.83C174.095 577.271 173.403 577.114 173.046 576.567C172.984 576.473 173.023 576.323 173.122 576.27C176.501 574.497 180.227 573.516 184.019 573.227ZM27.3032 572.782C32.9858 570.266 39.5696 569.988 45.6639 570.718L46.098 570.771C47.9993 570.994 50.4791 571.096 51.5668 572.868C51.9427 573.482 51.5544 574.186 50.9472 574.407C49.1588 575.061 47.0561 573.752 45.3379 573.265C40.2568 571.873 34.8305 571.727 29.6639 572.688C29.7 572.88 28.8443 572.796 28.658 572.864C28.4244 572.851 26.8746 573.363 27.3032 572.782ZM170.605 568.854C175.562 566.442 181.294 565.867 186.646 567.112L186.869 567.175C189.24 567.841 193.059 568.627 193.908 571.139C194.092 571.705 193.693 572.469 193.096 572.584C191.074 572.97 189.238 571.494 187.409 570.784C182.025 568.759 175.93 568.275 170.363 569.764C170.326 569.984 170.289 570.201 170.249 570.42C170.345 570.357 170.444 570.497 170.367 570.575C169.479 571.197 168.555 569.626 170.605 568.854ZM40.0773 564.614C44.0885 564.347 48.1334 564.857 52.0059 565.916L52.7341 566.116C53.7924 566.413 55.1634 566.881 55.3174 568.025C55.3773 568.48 55.2637 568.793 54.894 569.075C53.546 570.084 50.614 567.97 48.9378 567.722C42.8526 565.893 36.3208 565.919 30.1568 567.318L29.9468 567.367L30.0955 568.426C30.2415 568.932 28.8868 567.738 29.4015 567.195C32.6555 565.537 36.4524 564.912 40.0773 564.614ZM174.386 562.721C177.606 562.14 180.927 562.03 184.182 562.322L184.566 562.358C186.51 562.53 192.808 562.78 191.318 566.067C191.068 566.617 190.343 566.688 189.874 566.45C188.301 565.652 186.58 565.364 184.843 565.1C178.71 564.247 172.445 564.597 166.458 566.249C166.588 566.454 166.319 566.696 166.065 566.744C165.433 566.861 165.433 566.107 165.704 565.706C166.026 565.232 166.668 565.059 167.164 564.85C169.47 563.844 171.915 563.165 174.386 562.721ZM52.4548 544.431L52.0882 544.344C45.9446 542.898 32.3239 540.305 30.9133 548.771C30.4127 552.5 32.0641 556.138 31.9421 559.831C38.3126 557.239 45.3573 557.266 51.9759 558.979C52.5622 555.146 53.1219 551.309 53.7209 547.479L53.8177 547.021C54.0844 545.728 54.1749 544.718 52.4548 544.431ZM38.7719 545.973C40.1107 544.824 42.3433 544.84 43.6565 546.094C44.8575 546.346 45.7045 547.621 45.7239 548.715C47.5498 551.926 45.348 556.362 41.8619 557.164C33.99 558.823 30.4711 548.006 38.7719 545.973ZM175.155 540.849C181.741 539.672 184.134 548.032 178.728 551.422C171.092 555.254 166.003 543.205 175.155 540.849ZM42.0311 522.281C42.1281 522.92 41.8138 523.375 41.4383 523.806C40.088 529.344 38.0557 534.498 36.0519 539.807C42.5707 538.726 48.7298 539.669 54.4977 541.44C54.5667 539.82 55.3046 538.141 55.8172 536.613C56.8153 533.713 58.022 530.888 59.4138 528.159L59.5887 527.818C60.0886 526.847 60.5698 525.832 61.1603 524.902C54.7802 524.031 48.4002 523.245 42.0311 522.281ZM170.524 521.101L170.354 521.872C169.622 525.215 168.927 528.589 167.837 531.837L167.822 531.904C167.655 532.723 167.28 536.518 167.044 533.84C166.862 534.243 166.668 534.642 166.462 535.034L168.041 534.846C173.934 534.154 180.081 533.602 185.859 535.082C185.26 530.434 186.143 525.993 187.431 521.598C181.783 521.468 176.185 521.51 170.524 521.101ZM63.5623 526.878C63.3557 527.072 63.1535 527.271 62.9612 527.478C63.2217 527.411 63.4819 527.346 63.7234 527.29C63.7134 527.137 63.6056 527.022 63.5623 526.878ZM190.845 522.615L190.661 523.048C190.757 522.991 190.862 522.937 190.975 522.889C190.924 522.805 190.88 522.716 190.845 522.615ZM38.5408 521.667C38.4741 521.915 38.4231 522.188 38.3031 522.413C38.3981 522.429 38.4952 522.448 38.5925 522.469C38.71 522.231 38.8341 521.999 38.9682 521.772C38.8256 521.738 38.6831 521.705 38.5408 521.667ZM87.6689 247.56C87.0906 247.84 86.4876 247.911 85.6905 247.944C79.213 248.213 72.7563 248.964 66.3959 250.244C66.747 255.392 68.3125 260.38 69.8023 265.288L70.1112 266.364C75.1449 283.951 79.5386 302.328 78.6537 320.723C78.7033 320.742 78.7508 320.767 78.7964 320.79C78.7159 321.015 78.6583 321.246 78.5774 321.469L78.5257 321.602L78.2235 322.353C78.0564 322.77 77.8942 323.189 77.7532 323.618C77.506 323.707 77.2022 323.772 76.9126 323.814C75.4431 333.553 76.8403 344.472 83.462 352.088C81.1014 347.334 80.278 341.933 80.3819 336.651L80.4006 335.843C80.4277 334.845 80.4874 333.851 80.7913 332.904C80.8037 332.854 80.8698 332.862 80.8866 332.904C82.2885 337.236 82.3798 341.943 83.7572 346.307L83.8626 346.642C84.9519 350.062 86.771 354.465 89.9305 356.232C90.5122 356.405 91.4069 356.2 91.7093 356.871L91.7294 356.919L91.748 356.913C90.3376 352.29 89.4295 347.51 89.1184 342.684L89.0981 342.355C88.999 340.672 88.7803 338.867 89.1996 337.223C89.9988 338.726 89.8002 341.182 90.1721 343.001L90.1869 343.104C90.4807 345.07 93.3089 360.095 95.1663 358.087C95.5501 357.533 95.4503 356.463 95.462 355.804L95.4635 355.739C95.4927 354.787 95.4821 353.834 95.4493 352.882C95.2487 347.271 94.3772 341.513 96.0852 336.047C96.3704 335.126 97.9194 334.953 98.1074 336.047C98.8592 340.425 99.5777 344.807 100.296 349.189C100.82 351.866 100.799 354.884 102.391 357.193C102.409 352.153 102.13 347.128 101.889 342.094L101.824 341.884C101.633 341.249 101.445 340.424 101.883 339.884C102.058 338.736 103.735 338.867 103.878 340.07C103.909 340.321 103.931 340.576 103.956 340.828C104.512 341.526 105.028 342.238 105.685 342.838C110.07 333.877 95.7221 318.402 93.7412 308.283C87.9073 288.578 91.2614 267.917 92.9583 247.85C91.2036 247.643 89.4344 247.587 87.6689 247.56ZM171.162 134.149C174.229 140.31 176.481 146.831 178.04 153.542C178.521 155.614 175.744 156.885 174.622 155.07L174.589 155.014C173.209 152.711 171.154 150.682 168.552 149.889C166.779 157.328 167.643 165.189 168.564 172.701C170.197 183.166 171.497 193.676 171.692 204.281L171.701 204.849C172.27 241.066 177.588 277.119 183.412 312.577C192.723 314.075 201.247 318.297 209.83 322.01C211.321 322.592 212.845 323.1 214.407 323.451C210.095 283.25 193.695 245.549 188.627 205.495C187.288 195.078 187.225 184.499 189.075 174.142C189.106 173.944 189.387 174.011 189.399 174.186C189.603 178.44 190.329 182.639 190.76 186.87C191.054 184.454 191.731 182.006 192.279 179.69C192.948 177.424 193.195 173.786 195.156 172.308L195.279 171.88C195.331 171.696 195.604 171.774 195.561 171.958C195.54 172.045 195.519 172.131 195.5 172.219C196.76 172.554 195.583 174.049 195.271 174.765C193.25 180.194 192.648 186.07 191.269 191.666C193.265 209.134 196.861 226.381 201.29 243.36C205.359 242.285 209.441 241.25 213.521 240.2C204.421 210.506 209.742 177.367 196.11 149.014C191.002 139.499 178.424 140.791 171.162 134.149ZM102.032 128.721C100.123 128.618 98.1299 129.656 96.2979 130.013C93.8691 130.485 91.4526 130.859 89.0775 131.584C76.9199 134.925 65.1906 144.047 62.9881 157.191C61.4742 166.216 65.2228 175.009 65.091 184.009C64.6955 192.925 61.7621 201.495 60.6191 210.322C59.2442 219.348 58.7709 228.795 59.9502 237.865C70.8562 234.764 82.246 234.569 93.4294 236.171C92.4967 222.424 93.7206 208.609 94.3978 194.872C94.8852 186.05 95.7196 177.187 95.4245 168.348C95.4181 168.152 95.7362 168.104 95.7667 168.3C99.1206 186.353 97.1536 204.68 96.8145 222.887C96.5995 227.487 97.1676 232.131 96.9384 236.705C102.023 237.803 101.839 243.745 100.284 247.662C100.009 248.605 99.0731 248.441 98.316 248.327C97.4954 249.191 95.5381 248.063 94.4226 248.063C93.5494 270.663 88.2445 294.802 99.1151 315.924C103.66 315.949 108.035 314.377 112.452 313.486L112.693 313.438L112.699 313.436C113.348 312.588 113.666 311.227 113.752 310.23C114.37 292.826 112.438 275.382 113.568 257.976C114.952 238.656 119.252 219.454 117.263 200.004C115.888 182.62 112.114 165.551 110.294 148.219L110.202 147.322C110.089 146.253 110.046 145.073 109.518 144.258C106.449 147.061 103.873 150.395 102.029 154.145C101.008 155.957 98.2734 155.151 98.2313 153.105C97.8381 149.453 97.7799 145.787 98.1782 142.134L98.2146 141.812C98.7084 137.239 100.087 132.875 102.032 128.721ZM216.139 254.146C212.186 254.355 208.228 254.795 204.268 254.743L204.667 256.242C209.461 274.235 214.565 292.196 217.575 310.606L217.684 308.879C217.793 307.153 217.897 305.425 217.965 303.694C218.819 287.149 217.515 270.626 216.139 254.146ZM113.23 139.314C113.246 140.062 113.283 140.808 113.341 141.551C115.168 144.298 115.006 147.95 115.415 151.111C117.708 168.179 121.085 185.177 122.222 202.422C123.281 216.218 121.552 229.966 119.785 243.623C117.607 259.264 117.835 275.067 118.341 290.814C126.713 283.217 138.612 281.884 149.175 279.524L149.677 279.422C157.799 277.755 165.904 275.338 172.805 270.589C167.842 235.003 169.01 198.959 163.936 163.405C163.779 160.605 163.747 157.789 163.979 154.991C163.756 151.963 163.69 148.917 163.684 145.881C161.461 154.852 154.01 163.519 144.249 163.236C133.863 162.624 125.047 154.097 118.275 146.787C116.439 144.607 114.614 142.061 113.23 139.314ZM204.573 254.162L204.105 254.139L204.134 254.242C204.23 254.222 204.328 254.204 204.426 254.187L204.573 254.162ZM217.457 242.011C217.383 241.988 217.257 241.988 217.116 241.994C216.914 242.462 216.505 242.848 216.03 242.975L212.067 244.049C208.764 244.943 205.46 245.834 202.151 246.7C202.706 248.847 203.27 250.994 203.84 253.139C208.353 251.678 213.35 252.009 217.951 251.069C217.894 248.591 217.759 246.099 217.717 243.617C217.707 243.211 217.79 242.56 217.583 242.196C217.453 241.965 217.583 242.05 217.457 242.011ZM65.8653 250.353L65.7412 250.38C65.7825 250.493 65.8199 250.605 65.855 250.72C65.8571 250.597 65.8589 250.476 65.8653 250.353ZM95.2448 238.426C86.7426 237.183 78.0959 236.448 69.5208 237.294C65.6421 237.822 61.7047 238.385 57.9034 239.105C56.5814 241.146 58.0439 246.111 59.6897 247.681C60.1833 247.869 61.0322 247.504 61.5052 247.397C65.0541 246.592 68.6374 245.943 72.239 245.436C72.3462 245.572 72.5031 245.659 72.6973 245.641L73.5247 245.564C78.4919 245.109 83.5029 244.775 88.4808 245.06L88.5178 245.089C91.8762 245.336 95.2231 245.868 98.5677 246.253C99.8881 242.781 99.6605 238.798 95.2448 238.426ZM157.108 125.216C157.436 126.334 157.831 127.422 158.322 128.478C158.835 128.336 159.542 128.45 159.919 128.775L160.079 128.746C160.52 128.662 161.049 128.533 161.187 128.518C167.262 127.672 166.799 135.846 166.821 139.953C166.858 142.013 166.9 144.074 166.962 146.134C168.7 145.538 171.025 146.608 172.544 147.556C171.355 143.573 169.956 139.655 168.397 135.805L168.102 135.055C166.873 131.95 165.513 128.805 162.903 126.642C160.919 126.12 158.996 126.026 157.108 125.216ZM113.063 123.165C107.416 121.14 105.179 125.743 103.613 130.333C101.767 135.417 101.263 141.014 101.571 146.484L101.761 146.231C103.838 143.446 106.834 138.849 110.621 139.588C110.584 137.474 110.66 135.153 111.063 132.958C110.828 131.542 110.768 130.112 110.931 128.681C111.017 126.887 112.96 127.159 114.24 126.906C115.347 126.164 116.687 125.865 118.034 126.388C119.05 126.252 120.066 126.122 121.082 125.993C121.238 125.648 121.364 125.302 121.495 124.948C118.683 124.364 115.871 123.761 113.063 123.165Z" fill="black"/>
<path fill-rule="evenodd" clip-rule="evenodd" d="M151.879 126.494C147.408 126.52 143.608 125.253 140.708 123.158C137.09 121.87 132.725 119.884 130.074 117.799C129.04 118.062 127.803 116.966 127.012 116.387C122.091 112.719 118.229 107.351 117.085 101.974C115.318 104.2 112.804 104.292 110.396 103.186C105.348 100.328 105.536 94.3112 107.354 89.8156C103.533 81.2583 100.885 58.6681 106.717 49.5511C107.91 48.187 109.661 47.371 110.922 45.9721C112.043 44.7504 113.11 43.5007 114.415 42.5339C118.397 39.5089 125.255 37.8983 129.549 37.1408C147.474 33.2725 161.247 40.2253 177.483 46.0902C176.549 48.4226 175.256 50.5498 173.775 52.5333C177.806 54.0351 175.954 57.4118 172.827 59.1236L170.965 58.2203C173.868 68.585 180.547 94.3595 177.665 102.636C175.367 115.55 165.281 126.587 151.879 126.494Z" fill="white"/>
<path fill-rule="evenodd" clip-rule="evenodd" d="M154.469 127.605C148.664 128.2 141.767 126.83 137.896 122.123C137.78 121.982 137.73 121.822 137.727 121.668C137.723 121.497 137.781 121.331 137.881 121.203C137.985 121.067 138.134 120.973 138.305 120.942C138.449 120.917 138.613 120.933 138.781 121.028L139.137 121.226C141.781 122.683 144.526 123.926 147.521 124.457C150.606 125.005 153.746 124.944 156.803 124.248C162.371 122.982 166.877 119.752 170.194 115.492C173.896 110.739 176.118 104.705 176.685 98.6705C177.372 91.3576 175.779 84.0893 174.131 77.0085C172.4 69.5685 170.508 62.1664 168.309 54.8502C168.243 54.63 168.225 54.4238 168.244 54.2339C167.596 53.9804 166.906 54.0508 166.219 54.2822C164.964 54.7052 163.714 55.6589 162.671 56.4461C162.294 56.7313 161.942 56.9963 161.627 57.2119C160.334 58.0949 158.92 58.7303 157.34 58.8303C155.697 58.9339 154.085 58.4241 152.592 57.786C151.834 57.4618 151.088 57.1255 150.345 56.7905C148.228 55.8368 146.137 54.8925 143.852 54.2787C140.79 53.4562 137.628 53.051 134.457 53.08C128.797 53.1317 123.12 54.5859 119.651 59.3638C118.246 61.2993 117.33 63.5239 118.045 65.9126C118.433 67.212 119.167 68.3916 119.967 69.4766L120.242 69.8461C120.681 70.4416 121.063 71.0348 121.178 71.6663C121.274 72.1953 121.199 72.755 120.82 73.3684C120.582 73.7546 120.279 74.1009 119.974 74.446C119.754 74.695 119.534 74.9435 119.344 75.211C118.962 75.7505 118.623 76.3314 118.358 76.9374C117.838 78.1235 117.617 79.3994 117.571 80.6863C117.515 82.2388 117.734 83.7575 117.951 85.2784C118.105 86.3568 118.258 87.4363 118.32 88.5289C118.331 88.7196 118.273 88.8616 118.191 88.9668C118.091 89.0954 117.945 89.1765 117.778 89.199C117.728 89.2058 117.676 89.2069 117.623 89.2022C117.649 89.3073 117.672 89.4129 117.691 89.5189C117.586 89.384 117.475 89.2532 117.357 89.1267C117.349 89.1229 117.342 89.119 117.334 89.115C117.213 89.0483 117.11 88.9466 117.045 88.8157C116.878 88.6607 116.701 88.5137 116.515 88.3755C115.549 87.6563 114.422 87.23 113.29 87.2158C112.2 87.2022 111.107 87.5729 110.266 88.3557C108.595 89.9115 108.106 92.4512 108.089 94.6318C108.071 96.8578 108.587 99.5292 110.531 100.911C111.311 101.466 112.264 101.799 113.223 101.808C114.019 101.816 114.78 101.535 115.53 101.268C115.761 101.185 115.991 101.103 116.22 101.029C116.481 100.944 116.718 100.949 116.926 101.011C117.159 101.081 117.357 101.225 117.505 101.417C117.652 101.609 117.749 101.848 117.779 102.099C117.808 102.342 117.775 102.595 117.672 102.822C117.646 102.88 117.618 102.935 117.59 102.99L118.018 103.691C119.655 106.372 121.321 109.004 123.506 111.308C124.76 112.63 126.089 113.878 127.548 114.971L127.758 115.127C127.884 115.219 128.023 115.332 128.172 115.454C128.597 115.801 129.107 116.267 129.583 116.285C129.724 116.291 129.848 116.273 129.96 116.258C130.231 116.223 130.458 116.213 130.681 116.304C130.861 116.377 131.047 116.513 131.239 116.796C131.369 116.986 131.435 117.226 131.435 117.469C131.435 117.713 131.368 117.957 131.248 118.15C131 118.55 130.701 118.798 130.375 118.938C130.013 119.095 129.612 119.119 129.196 119.041C128.17 118.85 127.034 118.002 126.312 117.449L126.172 117.342C124.571 116.123 123.053 114.774 121.719 113.265C119.447 110.696 117.407 107.668 116.359 104.361C115.62 104.845 114.707 105.075 113.753 105.111C112.363 105.164 110.892 104.807 109.807 104.294C107.418 103.163 105.966 101.023 105.286 98.5631C104.496 95.7062 104.753 92.4217 105.753 89.8552C105.782 89.7806 105.812 89.7063 105.843 89.6308C102.765 81.8457 101.818 73.2008 102.082 64.8927C102.205 61.0038 102.471 56.9237 103.39 53.1309C103.802 51.4309 104.518 49.8121 105.66 48.4737C106.312 47.7106 107.112 47.1164 107.915 46.5239C108.61 46.0107 109.309 45.4987 109.896 44.858L110.174 44.5537C110.234 44.4875 110.294 44.4215 110.354 44.3555C111.369 43.2392 112.357 42.1559 113.588 41.2404C115.016 40.1789 116.592 39.3481 118.23 38.6581C121.757 37.1721 125.554 36.2811 129.31 35.5918C137.435 34.1008 145.776 34.0272 153.802 36.1231C157.534 37.0974 161.155 38.431 164.77 39.7631C165.106 39.8867 165.442 40.0104 165.777 40.1338C168.587 41.1663 171.398 42.1945 174.209 43.2227C175.515 43.7005 176.822 44.1783 178.128 44.6566C178.411 44.7604 178.689 44.9841 178.847 45.2619C179.001 45.533 179.047 45.8491 178.923 46.1639C178.121 48.191 177.11 50.0928 175.879 51.8687C176.306 52.1592 176.671 52.5454 176.946 52.9975C177.294 53.5693 177.5 54.2462 177.515 54.9644C177.561 57.3695 175.369 58.9999 173.55 60.1791C173.38 60.2891 173.212 60.354 173.05 60.3838C174.813 67.1113 176.5 73.8616 177.934 80.6653L178.032 81.1369C179.509 88.2575 180.462 95.524 179.065 102.739C177.863 108.952 175.069 114.948 170.702 119.577C166.423 124.113 160.682 126.969 154.469 127.605ZM116.241 86.6437C115.481 84.2357 115.078 81.6157 115.369 79.1747C115.552 77.6404 116.014 76.1632 116.767 74.8108C117.198 74.0363 117.723 73.3192 118.296 72.6439L118.494 72.417C118.594 72.3012 118.694 72.1947 118.724 72.0612C118.742 71.9837 118.724 71.8988 118.677 71.7975C118.572 71.573 118.378 71.3567 118.196 71.1455C118.08 71.0113 117.967 70.8796 117.872 70.7514C116.206 68.5002 114.963 65.8201 115.367 62.9653C115.761 60.18 117.59 57.5838 119.537 55.6272C123.824 51.3189 130.47 50.3289 136.292 50.5665C139.682 50.7047 143.065 51.301 146.293 52.3425C147.885 52.8562 149.441 53.4818 150.953 54.1989L151.288 54.3593C151.469 54.4467 151.649 54.5351 151.83 54.6235C153.012 55.2021 154.199 55.7864 155.482 56.101C157.988 56.7152 159.688 55.4215 161.474 54.1169C162.087 53.6698 162.709 53.2165 163.369 52.8186L163.505 52.7384C164.697 52.0486 166.123 51.5844 167.493 51.6052C168.683 51.6233 169.831 52.0025 170.765 52.8986C170.957 53.0827 171.068 53.2836 171.119 53.4835C171.223 53.6282 171.306 53.8008 171.361 54.0046C171.696 55.2585 172.029 56.5132 172.361 57.7684L172.633 57.5937C173.437 57.0721 174.312 56.476 174.707 55.6033C174.859 55.2674 174.837 54.7078 174.646 54.2964C174.579 54.1526 174.49 54.0248 174.368 53.9451C174.279 53.887 174.172 53.8598 174.047 53.8698C173.744 53.9088 173.465 53.8645 173.229 53.7649C172.957 53.6501 172.74 53.4611 172.599 53.2333C172.455 53.0001 172.389 52.726 172.424 52.4416C172.454 52.1972 172.56 51.9418 172.768 51.7019C174.141 50.1228 175.297 48.3807 176.175 46.4899L170.364 44.3439C168.292 43.5791 166.22 42.8153 164.147 42.0545L163.012 41.6381C159.242 40.2579 155.45 38.9091 151.53 38.0205C143.738 36.2546 135.613 36.6696 127.843 38.3318L127.374 38.4331C124.114 39.1427 120.809 40.0014 117.817 41.4938C116.348 42.2264 114.951 43.1171 113.752 44.2425C113.223 44.7395 112.744 45.2837 112.265 45.8271C111.594 46.5886 110.922 47.3481 110.124 47.9896L109.383 48.5817C108.281 49.468 107.287 50.3316 106.665 51.7061C106.015 53.1432 105.705 54.7308 105.452 56.2776C104.813 60.1741 104.561 64.1331 104.585 68.08C104.626 74.7071 105.634 81.1992 106.909 87.6685C107.931 86.208 109.367 85.0758 111.211 84.8343C112.412 84.677 113.604 84.9006 114.637 85.431C115.234 85.7376 115.778 86.1466 116.241 86.6437ZM114.31 94.5129C112.964 93.9924 111.55 93.8219 110.126 94.0709C109.977 94.0968 109.835 94.0658 109.715 93.9964C109.594 93.9261 109.498 93.8149 109.446 93.6921C109.386 93.5501 109.383 93.3964 109.436 93.26C109.482 93.1416 109.57 93.0266 109.731 92.9498C111.273 92.2153 112.987 91.8911 114.688 92.1217L114.856 92.1456C115.726 92.2743 116.949 92.5453 117.866 93.0787C118.587 93.4977 119.114 94.0754 119.245 94.83C119.314 95.2232 119.216 95.6337 118.989 95.9313C118.769 96.219 118.434 96.4108 117.999 96.3985C117.233 96.3767 116.779 96.0535 116.233 95.6348C116.167 95.584 116.099 95.532 116.029 95.4792C115.501 95.0853 114.925 94.7507 114.31 94.5129Z" fill="black"/>
<path fill-rule="evenodd" clip-rule="evenodd" d="M155.541 109.896C154.187 109.345 152.979 108.425 152.095 107.25C151.788 106.841 151.709 106.41 151.773 106.016C151.845 105.572 152.108 105.17 152.467 104.9C152.827 104.63 153.277 104.496 153.712 104.564C154.09 104.623 154.466 104.83 154.764 105.258L154.826 105.344C155.351 106.053 156.035 106.635 156.815 107.01C157.567 107.372 158.407 107.54 159.277 107.442C160.934 107.255 162.076 106.361 163.289 105.147C163.44 104.993 163.59 104.835 163.741 104.675C163.837 104.529 163.97 104.435 164.117 104.386C164.28 104.332 164.465 104.335 164.634 104.394C164.798 104.451 164.944 104.558 165.042 104.702C165.135 104.838 165.187 105.007 165.17 105.2C165.059 106.459 164.4 107.582 163.464 108.464C162.424 109.444 161.045 110.121 159.747 110.359C158.317 110.621 156.86 110.433 155.541 109.896ZM160.422 90.4802C161.943 91.4032 164.261 93.5553 162.624 95.8434C160.698 97.8609 157.925 95.5477 156.558 94.5015C155.291 93.6908 153.867 95.776 155.043 96.7228C164.918 104.021 168.926 90.7215 161.191 89.395C160.339 89.2489 160.023 90.1947 160.422 90.4802ZM142.724 81.9906C142.893 79.9082 146.07 79.4353 146.386 81.4959C146.669 83.3418 146.336 85.0375 145.503 86.6994C144.707 88.2871 142.706 87.5464 142.555 86.1006C142.352 84.1627 142.62 83.286 142.724 81.9906ZM166.911 81.0687C167.354 80.4896 167.993 80.0942 168.76 80.3176C171.154 81.016 170.448 84.4088 169.607 86.0602C169.151 86.957 167.674 87.1844 167.006 86.3948C165.919 85.1071 165.398 82.5355 166.781 81.2671C166.818 81.2016 166.86 81.1354 166.911 81.0687ZM145.469 72.8786L145.847 72.8125C147.017 72.6106 148.472 72.4165 149.3 73.3554C149.739 73.8532 149.89 74.7786 149.3 75.2551C148.262 76.0936 147.114 75.7687 145.871 75.8397C144.846 75.8984 143.861 76.0677 142.873 76.3494C140.707 76.9673 138.942 78.0953 137.093 79.334C136.85 79.4964 136.602 79.1866 136.718 78.96C137.786 76.8722 139.855 75.1572 141.928 74.1118C143.034 73.5538 144.245 73.0909 145.469 72.8786ZM164.728 71.9434L165.018 72.0025C168.168 72.6597 172.261 73.9726 173.752 77.0611C173.809 77.4978 173.749 77.5914 173.7 77.6525L173.684 77.6729C173.644 77.7251 173.612 77.7971 173.422 77.8565C173.369 77.844 173.316 77.8308 173.262 77.8167C172.579 77.6378 172.038 77.3914 171.514 77.1357L170.946 76.8565C170.287 76.534 169.623 76.2233 168.918 75.9939C167.415 75.5045 165.869 75.1598 164.299 74.9757C163.958 74.9358 163.631 74.8212 163.372 74.6247C163.127 74.4382 162.939 74.18 162.854 73.8367C162.743 73.3925 162.775 73.0562 163.014 72.6555C163.193 72.3546 163.45 72.146 163.745 72.0262C164.046 71.9041 164.388 71.8753 164.728 71.9434Z" fill="black"/>
<path fill-rule="evenodd" clip-rule="evenodd" d="M183.814 75.171C183.648 75.1434 183.482 75.1175 183.316 75.0932C183.187 75.0198 183.035 74.9633 182.858 74.9293C182.454 74.8269 182.053 74.758 181.652 74.7208C175.905 73.4297 162.608 75.2629 162.059 80.1587C160.229 80.7686 158.645 80.2224 156.524 80.2767C154.909 73.5396 126.992 74.4905 125.649 78.5523C125.644 78.5509 125.639 78.5497 125.634 78.5481C124.344 78.1495 122.442 78.2457 120.965 78.1825C117.813 78.1166 114.656 78.3971 111.571 79.0608C105.795 79.9771 97.9112 81.0499 101.929 88.25L101.931 88.2539L101.932 88.2533C102.624 88.9617 103.799 88.3912 103.843 87.4323C102.492 84.0212 105.543 83.6116 107.89 82.6313C113.731 80.5369 119.677 80.2466 125.717 80.8944C126.172 81.4285 126.862 81.8942 127.59 82.1379C131.629 82.8071 129.501 85.7975 132.054 86.2324C131.585 96.6567 144.264 102.347 151.61 95.4942C154.544 92.6317 155.243 88.3912 155.923 84.5689C156.283 84.4883 156.511 84.292 156.645 84.0323C157.51 83.1704 158.053 82.3746 159.763 82.1379C161.473 81.9014 162.789 82.3762 162.968 82.5216C163.012 82.6118 163.061 82.7023 163.117 82.7928C163.195 82.9277 163.301 83.0353 163.422 83.12C161.733 93.5004 169.807 100.065 177.957 94.6813C181.498 91.3561 182.247 86.2652 182.395 81.7213C182.875 81.4321 183.179 80.8717 183.012 80.1671C182.783 79.1959 183.32 78.355 184.176 77.9328C185.287 77.3844 185.091 75.3819 183.814 75.171ZM148.793 80.0956C147.782 79.8735 147.35 81.4304 148.364 81.6531C149.083 81.8108 149.692 82.1725 150.104 82.7854L150.147 82.852C150.699 83.7291 152.096 82.9194 151.54 82.0367C150.914 81.0433 149.942 80.3476 148.793 80.0956ZM178.423 79.1303C178.067 78.8795 177.527 79.0657 177.32 79.42C177.092 79.8102 177.241 80.2446 177.575 80.4999L177.609 80.5248C177.916 80.7404 178.214 81.1267 178.252 81.5226L178.255 81.5721C178.295 82.6081 179.908 82.6134 179.868 81.5721C179.828 80.5535 179.238 79.7025 178.423 79.1303Z" fill="black"/>
</g>
<defs>
<clipPath id="clip0_14_236">
<rect width="340" height="372" fill="white"/>
</clipPath>
</defs>
</svg>
