<svg width="340" height="373" viewBox="0 0 340 373" fill="none" xmlns="http://www.w3.org/2000/svg">
<path d="M7.74462 302.305C9.89913 358.592 21.7714 367.534 47.805 372.808H236.662C251.923 358.894 264.266 334.052 264.266 314.233C264.266 233.293 187.5 247.751 187.5 191.5C187.5 148.866 234.512 116.17 165.5 86.5C129.143 70.8693 123.5 85.5 102.5 69C71.7656 44.8513 76.5002 26.5 47.805 23.2283C-2.0722 17.5415 28.2798 122.346 22.8935 179.912C17.5072 237.478 5.05148 231.947 7.74462 302.305Z" fill="black"/>
<path d="M183.137 242.481C180.977 241.711 178.896 240.822 177 239.514C171.533 235.445 167.969 229.321 164.601 223.52C159.857 215.082 156.477 206.09 154.141 196.711C153.137 192.681 152.796 188.008 150.516 184.436C145.345 176.954 130.184 177.924 122.134 179.237C116.743 180.191 115.628 186.224 114.404 190.688C113.384 194.398 112.717 198.149 112.157 201.951C110.824 202.827 109.319 203.539 107.885 204.159C92.254 208.952 89.5067 217.837 83.5365 231.563C73.4528 251.514 46.0907 259.325 41.9576 282.936C39.2946 298.523 46.8673 313.188 54.6747 326.146C61.9457 340.301 72.0966 347.094 88.2621 343.75C103.425 340.349 117.996 334.659 132.892 330.263C140.107 328.489 147.31 323.875 154.899 325.484C170.536 328.996 186.603 330.647 202.628 330.191C225.129 331.101 225.125 309.505 222.816 292.782C221.198 266.756 208.071 250.045 183.137 242.481Z" fill="white"/>
<mask id="path-3-inside-1_14_176" fill="white">
<path fill-rule="evenodd" clip-rule="evenodd" d="M227.091 282.245C226.963 283.03 226.812 283.74 226.456 284.461C225.994 285.397 225.346 286.263 224.573 286.981C226.921 292.217 227.867 298.001 228.124 303.704C228.309 308.53 228.109 313.448 227.168 318.195C226.438 321.876 225.019 325.403 222.468 328.205C220.361 330.519 217.624 332.14 214.69 333.171C209.515 334.991 203.847 334.991 198.408 334.475C198.528 334.991 198.629 335.507 198.732 335.994C199.064 337.559 199.418 351.681 200.129 354.896C200.429 356.257 200.577 358.109 201.386 359.253C202.156 360.341 202.595 361.558 202.323 362.903C202.119 363.91 201.493 365.164 200.756 365.896C200.411 366.239 200.337 366.386 200.218 366.455C200 366.584 199.628 366.453 197.128 366.81C167.474 371.047 93.8434 373.584 54.6724 365.163C53.0958 367.048 49.6921 367.126 48.313 364.801C47.5785 363.563 47.5267 361.743 47.4825 360.188C47.4727 359.843 47.4633 359.512 47.4469 359.202C47.3305 357.009 46.6163 339.051 46.4015 334.499C46.368 333.79 46.333 333.08 46.298 332.371C46.1119 328.592 45.9256 324.811 45.9593 321.027C45.9792 318.784 46.0742 316.54 46.2963 314.308C46.3858 313.412 46.3955 312.034 46.861 311.112C45.6062 307.472 44.0449 303.965 42.1896 300.59C39.1526 299.805 36.2049 298.696 33.4106 297.267C32.1377 296.616 30.8106 296.067 30.2491 294.673C29.7505 293.435 29.4265 292.175 29.4842 290.819C29.6299 287.393 30.2386 283.925 30.7253 280.533C31.2288 277.023 31.8149 273.524 32.4861 270.042C34.4896 259.649 36.8803 249.091 41.0512 239.328C45.139 229.761 51.334 221.579 60.1274 215.889C70.104 209.434 82.1471 205.846 93.8434 204.275C94.0752 204.244 94.3059 204.207 94.5357 204.171C95.6162 204.002 96.6745 203.836 97.7336 204.21C97.8092 204.237 97.886 204.266 97.9633 204.295C98.2751 204.413 98.5984 204.535 98.9137 204.532C99.5187 204.526 100.188 204.328 100.801 204.256C102.463 204.062 104.136 203.977 105.806 203.86C107.157 203.766 108.623 203.757 109.901 203.248C112.63 202.162 114.071 192.781 114.512 191.269C114.826 190.19 115.155 188.601 116.156 187.98C116.686 187.65 117.545 187.728 117.964 188.213C118.742 189.113 118.463 190.655 118.229 191.954C118.167 192.301 118.107 192.631 118.072 192.926C117.866 194.65 117.165 207.313 107.916 207.935C99.4252 208.506 99.4951 209.231 99.5637 209.941C99.5697 210.004 99.5759 210.068 99.5759 210.131C100.685 212.105 102.362 214.717 103.78 216.41C105.67 218.666 107.759 220.788 110.008 222.687C117.409 228.936 127.101 232.542 136.804 232.386C141.891 232.304 146.607 231.062 150.016 227.071C153.201 223.343 154.986 216.731 156.332 212.078C153.136 208.095 151.748 202.749 152.958 198.773C153.319 197.584 154.004 196.53 155.315 197.327C156.419 197.997 156.33 201.182 156.614 202.315C157.205 204.682 158.509 205.982 160.149 207.842C161.311 207.749 162.397 208.21 163.21 209.054C170.658 210.878 177.788 213.215 183.775 218.176C188.511 222.1 192.282 227.063 195.742 232.108C199.788 238.008 203.648 244.043 207.574 250.023C211.999 256.763 216.416 263.506 220.864 270.231C221.953 271.877 223.044 273.523 224.138 275.167C224.684 275.989 225.232 276.81 225.779 277.631C226.276 278.374 226.967 279.153 227.22 280.025C227.403 280.653 227.27 281.323 227.16 281.874C227.134 282.005 227.109 282.129 227.091 282.245ZM184.641 280.14C186.521 281.384 188.103 283.269 189.372 285.253C184.073 284.701 178.782 284.066 173.504 283.342C174.195 282.9 174.892 282.468 175.606 282.061C175.833 281.933 176.067 281.798 176.307 281.659C178.819 280.212 181.989 278.386 184.641 280.14ZM94.8669 293.096C95.2454 293.945 95.6211 295.425 96.5922 295.806C97.3511 296.103 98.3803 295.974 99.2949 295.86C99.6274 295.819 99.9447 295.779 100.228 295.763C106.36 295.404 112.597 296.025 118.562 297.48C123.893 298.781 128.97 300.875 133.741 303.575C138.424 306.225 142.831 309.323 147.45 312.077C156.921 317.725 167.187 321.89 177.898 324.508C183.428 325.86 189.095 326.869 194.735 327.631C198.757 328.175 202.876 328.523 206.931 328.197C210.421 327.917 214.182 327.026 216.848 324.618C220.369 321.439 221.051 316.474 221.368 311.985C221.714 306.601 221.66 301.122 220.437 295.844C219.852 293.318 218.961 290.968 217.818 288.645C217.163 287.315 215.967 285.655 215.701 284.042C211.006 283.794 206.482 284.684 202.151 286.317C202.691 286.35 203.23 286.383 203.77 286.419C205.093 286.506 206.415 286.619 207.731 286.788C208.775 286.923 210.101 286.931 211.015 287.513C212.484 288.447 212.445 290.565 211.272 291.714C210.024 292.935 207.649 292.658 205.829 292.446C205.488 292.406 205.166 292.369 204.874 292.344C195.389 291.535 185.922 290.613 176.484 289.354C166.851 288.068 157.286 286.43 147.72 284.725C138.143 283.018 128.492 281.426 118.751 281.108C113.941 280.951 109.106 281.12 104.341 281.818C99.9089 282.468 95.7487 283.821 91.4706 285.041C92.5973 287.728 93.6803 290.435 94.8669 293.096ZM89.6787 293.103C90.3056 295.138 90.7853 297.46 92.1234 299.17C93.4488 300.864 95.4483 301.461 97.5197 301.612C98.9861 301.718 100.463 301.722 101.939 301.726C102.976 301.729 104.014 301.732 105.047 301.77C110.181 301.961 115.244 302.795 120.152 304.324C124.726 305.75 128.971 307.973 133.061 310.44C136.842 312.721 140.513 315.171 144.296 317.445C143.289 317.906 142.294 318.406 141.293 318.84C139.194 319.752 137.082 320.632 134.96 321.489C130.776 323.18 126.575 324.83 122.33 326.363C113.772 329.454 105.072 332.154 96.2682 334.454C92.0692 335.551 87.8105 336.832 83.4482 337.015C79.5799 337.177 75.9969 336.083 72.8771 333.783C66.4063 329.013 61.2581 322.127 57.0964 315.335C54.624 311.3 52.4662 307.061 50.6815 302.677C49.7789 300.46 48.9602 298.209 48.2234 295.932C47.8778 294.862 47.5501 293.787 47.2397 292.707C47.1032 292.232 46.9724 291.756 46.8429 291.279C53.4596 289.26 60.1551 287.437 67.0076 286.425C70.6662 285.885 74.3736 285.611 78.0722 285.651C79.9081 285.671 81.743 285.77 83.5693 285.959C84.5522 286.061 85.5312 286.192 86.506 286.355C86.9088 286.422 87.3229 286.521 87.7382 286.594C88.3725 288.767 89.0121 290.939 89.6787 293.103Z"/>
</mask>
<path fill-rule="evenodd" clip-rule="evenodd" d="M227.091 282.245C226.963 283.03 226.812 283.74 226.456 284.461C225.994 285.397 225.346 286.263 224.573 286.981C226.921 292.217 227.867 298.001 228.124 303.704C228.309 308.53 228.109 313.448 227.168 318.195C226.438 321.876 225.019 325.403 222.468 328.205C220.361 330.519 217.624 332.14 214.69 333.171C209.515 334.991 203.847 334.991 198.408 334.475C198.528 334.991 198.629 335.507 198.732 335.994C199.064 337.559 199.418 351.681 200.129 354.896C200.429 356.257 200.577 358.109 201.386 359.253C202.156 360.341 202.595 361.558 202.323 362.903C202.119 363.91 201.493 365.164 200.756 365.896C200.411 366.239 200.337 366.386 200.218 366.455C200 366.584 199.628 366.453 197.128 366.81C167.474 371.047 93.8434 373.584 54.6724 365.163C53.0958 367.048 49.6921 367.126 48.313 364.801C47.5785 363.563 47.5267 361.743 47.4825 360.188C47.4727 359.843 47.4633 359.512 47.4469 359.202C47.3305 357.009 46.6163 339.051 46.4015 334.499C46.368 333.79 46.333 333.08 46.298 332.371C46.1119 328.592 45.9256 324.811 45.9593 321.027C45.9792 318.784 46.0742 316.54 46.2963 314.308C46.3858 313.412 46.3955 312.034 46.861 311.112C45.6062 307.472 44.0449 303.965 42.1896 300.59C39.1526 299.805 36.2049 298.696 33.4106 297.267C32.1377 296.616 30.8106 296.067 30.2491 294.673C29.7505 293.435 29.4265 292.175 29.4842 290.819C29.6299 287.393 30.2386 283.925 30.7253 280.533C31.2288 277.023 31.8149 273.524 32.4861 270.042C34.4896 259.649 36.8803 249.091 41.0512 239.328C45.139 229.761 51.334 221.579 60.1274 215.889C70.104 209.434 82.1471 205.846 93.8434 204.275C94.0752 204.244 94.3059 204.207 94.5357 204.171C95.6162 204.002 96.6745 203.836 97.7336 204.21C97.8092 204.237 97.886 204.266 97.9633 204.295C98.2751 204.413 98.5984 204.535 98.9137 204.532C99.5187 204.526 100.188 204.328 100.801 204.256C102.463 204.062 104.136 203.977 105.806 203.86C107.157 203.766 108.623 203.757 109.901 203.248C112.63 202.162 114.071 192.781 114.512 191.269C114.826 190.19 115.155 188.601 116.156 187.98C116.686 187.65 117.545 187.728 117.964 188.213C118.742 189.113 118.463 190.655 118.229 191.954C118.167 192.301 118.107 192.631 118.072 192.926C117.866 194.65 117.165 207.313 107.916 207.935C99.4252 208.506 99.4951 209.231 99.5637 209.941C99.5697 210.004 99.5759 210.068 99.5759 210.131C100.685 212.105 102.362 214.717 103.78 216.41C105.67 218.666 107.759 220.788 110.008 222.687C117.409 228.936 127.101 232.542 136.804 232.386C141.891 232.304 146.607 231.062 150.016 227.071C153.201 223.343 154.986 216.731 156.332 212.078C153.136 208.095 151.748 202.749 152.958 198.773C153.319 197.584 154.004 196.53 155.315 197.327C156.419 197.997 156.33 201.182 156.614 202.315C157.205 204.682 158.509 205.982 160.149 207.842C161.311 207.749 162.397 208.21 163.21 209.054C170.658 210.878 177.788 213.215 183.775 218.176C188.511 222.1 192.282 227.063 195.742 232.108C199.788 238.008 203.648 244.043 207.574 250.023C211.999 256.763 216.416 263.506 220.864 270.231C221.953 271.877 223.044 273.523 224.138 275.167C224.684 275.989 225.232 276.81 225.779 277.631C226.276 278.374 226.967 279.153 227.22 280.025C227.403 280.653 227.27 281.323 227.16 281.874C227.134 282.005 227.109 282.129 227.091 282.245ZM184.641 280.14C186.521 281.384 188.103 283.269 189.372 285.253C184.073 284.701 178.782 284.066 173.504 283.342C174.195 282.9 174.892 282.468 175.606 282.061C175.833 281.933 176.067 281.798 176.307 281.659C178.819 280.212 181.989 278.386 184.641 280.14ZM94.8669 293.096C95.2454 293.945 95.6211 295.425 96.5922 295.806C97.3511 296.103 98.3803 295.974 99.2949 295.86C99.6274 295.819 99.9447 295.779 100.228 295.763C106.36 295.404 112.597 296.025 118.562 297.48C123.893 298.781 128.97 300.875 133.741 303.575C138.424 306.225 142.831 309.323 147.45 312.077C156.921 317.725 167.187 321.89 177.898 324.508C183.428 325.86 189.095 326.869 194.735 327.631C198.757 328.175 202.876 328.523 206.931 328.197C210.421 327.917 214.182 327.026 216.848 324.618C220.369 321.439 221.051 316.474 221.368 311.985C221.714 306.601 221.66 301.122 220.437 295.844C219.852 293.318 218.961 290.968 217.818 288.645C217.163 287.315 215.967 285.655 215.701 284.042C211.006 283.794 206.482 284.684 202.151 286.317C202.691 286.35 203.23 286.383 203.77 286.419C205.093 286.506 206.415 286.619 207.731 286.788C208.775 286.923 210.101 286.931 211.015 287.513C212.484 288.447 212.445 290.565 211.272 291.714C210.024 292.935 207.649 292.658 205.829 292.446C205.488 292.406 205.166 292.369 204.874 292.344C195.389 291.535 185.922 290.613 176.484 289.354C166.851 288.068 157.286 286.43 147.72 284.725C138.143 283.018 128.492 281.426 118.751 281.108C113.941 280.951 109.106 281.12 104.341 281.818C99.9089 282.468 95.7487 283.821 91.4706 285.041C92.5973 287.728 93.6803 290.435 94.8669 293.096ZM89.6787 293.103C90.3056 295.138 90.7853 297.46 92.1234 299.17C93.4488 300.864 95.4483 301.461 97.5197 301.612C98.9861 301.718 100.463 301.722 101.939 301.726C102.976 301.729 104.014 301.732 105.047 301.77C110.181 301.961 115.244 302.795 120.152 304.324C124.726 305.75 128.971 307.973 133.061 310.44C136.842 312.721 140.513 315.171 144.296 317.445C143.289 317.906 142.294 318.406 141.293 318.84C139.194 319.752 137.082 320.632 134.96 321.489C130.776 323.18 126.575 324.83 122.33 326.363C113.772 329.454 105.072 332.154 96.2682 334.454C92.0692 335.551 87.8105 336.832 83.4482 337.015C79.5799 337.177 75.9969 336.083 72.8771 333.783C66.4063 329.013 61.2581 322.127 57.0964 315.335C54.624 311.3 52.4662 307.061 50.6815 302.677C49.7789 300.46 48.9602 298.209 48.2234 295.932C47.8778 294.862 47.5501 293.787 47.2397 292.707C47.1032 292.232 46.9724 291.756 46.8429 291.279C53.4596 289.26 60.1551 287.437 67.0076 286.425C70.6662 285.885 74.3736 285.611 78.0722 285.651C79.9081 285.671 81.743 285.77 83.5693 285.959C84.5522 286.061 85.5312 286.192 86.506 286.355C86.9088 286.422 87.3229 286.521 87.7382 286.594C88.3725 288.767 89.0121 290.939 89.6787 293.103Z" fill="black" stroke="url(#paint0_linear_14_176)" stroke-width="1.34657" mask="url(#path-3-inside-1_14_176)"/>
<path d="M175.825 149.735C175.29 145.031 175.983 135.2 176.029 134.602C176.323 130.826 174.553 115.916 171.209 117.29C165.598 112.848 158.126 111.867 151.138 111.399C136.624 110.426 121.184 112.66 109.976 122.427C104.434 127.5 99.0377 134.878 99.4715 142.56C94.4357 149.841 87.3365 159.829 93.6108 168.342C95.7436 171.062 99.1332 172.074 101.812 174.134C107.201 178.481 110.582 184.719 116.023 189.04C130.435 201.991 154.908 204.696 169.069 189.965C180.019 179.297 178.248 163.336 176.323 149.735C175.027 140.59 176.869 158.911 175.825 149.735Z" fill="white"/>
<mask id="path-5-inside-2_14_176" fill="white">
<path fill-rule="evenodd" clip-rule="evenodd" d="M143.581 90.3286C139.617 90.1819 135.631 90.6693 131.749 91.4526C124.045 93.0043 116.155 95.5432 109.177 99.1836C106.248 100.713 103.545 102.602 101.107 104.777C98.9034 103.724 95.4271 103.638 94.7209 106.054C94.5182 106.748 94.6191 107.376 94.9101 107.914C94.8253 107.962 94.7415 108.014 94.6594 108.069C94.1036 108.441 93.8069 108.712 93.4628 109.054L93.1911 109.326C92.3307 110.189 92.2494 111.786 93.1911 112.638L93.3199 112.755L93.3991 112.824C93.5596 112.959 93.7318 113.073 93.9114 113.167C90.6114 118.225 88.3714 123.988 87.4441 130.011C86.8993 133.547 86.7404 137.083 87.1507 140.641C87.3496 142.38 87.648 144.235 88.257 145.878C88.5532 146.682 88.9707 147.462 89.3462 148.233C89.7542 149.074 90.4229 149.688 90.9725 150.439C91.0321 150.516 91.1266 150.556 91.2186 150.558C91.0523 150.901 90.9003 151.25 90.7588 151.595C89.9455 153.582 89.3191 155.723 88.956 157.839C88.2722 161.83 88.6899 166.319 91.7284 169.305C92.9394 170.494 94.8144 171.446 96.6572 171.7C96.0676 172.307 95.5927 173.028 95.2125 173.858C94.5013 175.408 95.6872 177.504 97.5721 176.927C97.9304 176.817 98.2857 176.678 98.6341 176.524C99.176 177.601 100.335 178.329 101.578 178.143C102.302 178.033 102.824 177.752 103.182 177.357C104.08 179.341 105.271 181.144 106.78 182.736C108.377 184.422 110.14 185.941 111.731 187.632C113.278 189.273 114.196 191.417 116.018 192.769C116.585 193.19 117.453 192.742 117.612 192.12C118.23 189.701 116.566 187.687 114.987 186.023L114.788 185.814C113.094 184.054 111.137 182.584 109.334 180.943C107.462 179.237 105.955 177.427 104.597 175.288C104.48 175.104 104.363 174.916 104.245 174.727L103.712 173.861C103.684 173.734 103.654 173.61 103.62 173.488C103.592 172.998 103.428 172.533 103.113 172.105C102.722 171.576 102.2 171.175 101.618 170.989C101.422 170.78 101.218 170.581 101.004 170.397C101.27 170.106 101.504 169.763 101.703 169.365C102.071 168.624 101.641 167.445 100.656 167.542C100.36 167.571 100.069 167.557 99.779 167.544C99.4614 167.529 99.1441 167.514 98.8206 167.555C98.7431 167.564 98.6657 167.575 98.5883 167.585C98.0569 167.655 97.5265 167.725 96.9902 167.652C95.8888 167.495 94.9016 166.898 94.1855 166.063C92.3923 163.974 92.2034 160.97 92.5788 158.364C92.7448 157.2 93.0284 156.057 93.3298 154.92L93.7957 153.178C94.0612 152.205 94.3812 151.196 95.0061 150.404C96.9671 147.917 100.327 149.869 102.338 151.366L102.521 151.503C102.538 151.516 102.553 151.521 102.571 151.521C102.677 151.695 102.792 151.866 102.911 152.03C103.57 152.921 104.368 153.711 105.191 154.457L105.359 154.611C105.472 154.712 105.586 154.813 105.699 154.912C106.661 155.76 107.964 155.136 108.091 153.923C108.327 151.635 108.262 149.322 108.409 147.025C108.556 144.725 108.82 142.432 109.212 140.162C109.605 137.894 110.113 135.648 110.732 133.435C111.042 132.326 111.383 131.229 111.746 130.138C112.022 129.297 112.229 127.935 112.957 127.35C113.616 126.818 114.857 126.729 115.665 126.557C116.794 126.316 117.93 126.102 119.062 125.861C121.178 125.406 123.292 124.911 125.376 124.324C127.44 123.742 129.486 123.056 131.468 122.23C130.899 123.185 130.334 124.142 129.774 125.102C129.009 126.418 130.013 127.823 131.403 127.94C132.831 128.059 134.276 127.952 135.668 127.614C135.964 127.542 136.235 127.46 136.486 127.363C138.015 127.253 139.576 126.904 141.013 126.55L141.683 126.383C144.413 125.697 147.037 124.759 149.623 123.653C149.913 123.529 150.203 123.402 150.493 123.274C151.566 122.95 152.622 122.574 153.658 122.146C157.499 122.727 161.416 122.502 165.19 121.574C166.819 121.173 168.589 120.671 170.273 119.975C171.111 121.405 172.396 122.563 173.831 123.404C173.988 124.645 174.075 125.898 174.132 127.141C174.316 131.105 174.524 135.069 174.741 139.03L174.81 140.313C175.219 148.011 175.47 155.721 175.529 163.427C175.584 170.449 175.154 177.382 171.349 183.489C168.144 188.642 163.143 192.742 157.337 194.582C153.771 195.711 149.991 196.074 146.268 195.714C144.451 195.537 142.651 195.122 140.912 194.565L140.662 194.486C138.917 193.947 137.255 193.681 135.434 193.461C134.231 193.314 133.94 194.876 134.544 195.609C135.822 197.156 137.187 198.188 139.087 198.889C140.803 199.521 142.623 199.921 144.431 200.182C148.161 200.719 151.923 200.66 155.609 199.817C162.447 198.255 168.492 194.147 172.702 188.574C177.325 182.455 178.814 175.139 178.911 167.602C179.016 159.537 178.616 151.433 178.083 143.381L177.971 141.716C177.733 138.232 177.479 134.736 177.083 131.259C177.737 131.324 178.424 131.12 178.981 130.561C180.066 129.475 180.323 127.805 180.452 126.297L180.485 125.881C180.59 124.491 180.378 123.068 179.998 121.733C179.474 119.904 178.595 118.364 177.354 117.075C179.016 115.283 179.912 112.747 180.109 110.353C180.251 108.628 180.384 106.36 178.48 105.556C178.104 105.397 177.715 105.339 177.324 105.347C177.424 104.732 177.492 104.11 177.53 103.481C177.591 102.48 176.564 101.384 175.537 101.487C175.224 101.519 174.912 101.552 174.6 101.585C174.786 101.286 174.974 100.988 175.166 100.693C175.975 99.4557 174.882 98.0758 173.604 97.9701C170.207 97.6894 166.845 96.9929 163.605 95.9378C160.349 94.8775 156.948 93.8105 153.857 92.3346C153.638 92.2304 153.397 92.3075 153.248 92.4577C150.646 90.7234 146.869 90.4597 143.886 90.3405L143.581 90.3286ZM99.599 155.959C98.4444 155.422 96.8806 154.695 95.68 155.086C95.1305 155.266 94.9686 155.847 95.2173 156.275H95.1973L95.2489 156.357C95.4773 156.705 95.7703 156.941 96.0916 157.165L96.2418 157.267C95.8389 157.553 95.5306 157.966 95.3963 158.493C95.1802 159.331 95.5306 160.361 96.3263 160.781C96.6449 160.948 96.9902 161.04 97.3508 161.057C97.8594 161.079 98.2838 160.845 98.6688 160.552L98.7831 160.463C98.9525 160.328 99.0893 160.149 99.1984 159.955C100.126 161.154 100.907 162.569 102.545 162.614C103.329 162.636 104.214 162.012 104.376 161.219C104.393 161.142 104.408 161.064 104.423 160.99C104.575 160.246 104.465 159.376 103.856 158.844C102.633 157.78 101.37 156.772 99.885 156.091C99.7929 156.049 99.6974 156.004 99.599 155.959Z"/>
</mask>
<path fill-rule="evenodd" clip-rule="evenodd" d="M143.581 90.3286C139.617 90.1819 135.631 90.6693 131.749 91.4526C124.045 93.0043 116.155 95.5432 109.177 99.1836C106.248 100.713 103.545 102.602 101.107 104.777C98.9034 103.724 95.4271 103.638 94.7209 106.054C94.5182 106.748 94.6191 107.376 94.9101 107.914C94.8253 107.962 94.7415 108.014 94.6594 108.069C94.1036 108.441 93.8069 108.712 93.4628 109.054L93.1911 109.326C92.3307 110.189 92.2494 111.786 93.1911 112.638L93.3199 112.755L93.3991 112.824C93.5596 112.959 93.7318 113.073 93.9114 113.167C90.6114 118.225 88.3714 123.988 87.4441 130.011C86.8993 133.547 86.7404 137.083 87.1507 140.641C87.3496 142.38 87.648 144.235 88.257 145.878C88.5532 146.682 88.9707 147.462 89.3462 148.233C89.7542 149.074 90.4229 149.688 90.9725 150.439C91.0321 150.516 91.1266 150.556 91.2186 150.558C91.0523 150.901 90.9003 151.25 90.7588 151.595C89.9455 153.582 89.3191 155.723 88.956 157.839C88.2722 161.83 88.6899 166.319 91.7284 169.305C92.9394 170.494 94.8144 171.446 96.6572 171.7C96.0676 172.307 95.5927 173.028 95.2125 173.858C94.5013 175.408 95.6872 177.504 97.5721 176.927C97.9304 176.817 98.2857 176.678 98.6341 176.524C99.176 177.601 100.335 178.329 101.578 178.143C102.302 178.033 102.824 177.752 103.182 177.357C104.08 179.341 105.271 181.144 106.78 182.736C108.377 184.422 110.14 185.941 111.731 187.632C113.278 189.273 114.196 191.417 116.018 192.769C116.585 193.19 117.453 192.742 117.612 192.12C118.23 189.701 116.566 187.687 114.987 186.023L114.788 185.814C113.094 184.054 111.137 182.584 109.334 180.943C107.462 179.237 105.955 177.427 104.597 175.288C104.48 175.104 104.363 174.916 104.245 174.727L103.712 173.861C103.684 173.734 103.654 173.61 103.62 173.488C103.592 172.998 103.428 172.533 103.113 172.105C102.722 171.576 102.2 171.175 101.618 170.989C101.422 170.78 101.218 170.581 101.004 170.397C101.27 170.106 101.504 169.763 101.703 169.365C102.071 168.624 101.641 167.445 100.656 167.542C100.36 167.571 100.069 167.557 99.779 167.544C99.4614 167.529 99.1441 167.514 98.8206 167.555C98.7431 167.564 98.6657 167.575 98.5883 167.585C98.0569 167.655 97.5265 167.725 96.9902 167.652C95.8888 167.495 94.9016 166.898 94.1855 166.063C92.3923 163.974 92.2034 160.97 92.5788 158.364C92.7448 157.2 93.0284 156.057 93.3298 154.92L93.7957 153.178C94.0612 152.205 94.3812 151.196 95.0061 150.404C96.9671 147.917 100.327 149.869 102.338 151.366L102.521 151.503C102.538 151.516 102.553 151.521 102.571 151.521C102.677 151.695 102.792 151.866 102.911 152.03C103.57 152.921 104.368 153.711 105.191 154.457L105.359 154.611C105.472 154.712 105.586 154.813 105.699 154.912C106.661 155.76 107.964 155.136 108.091 153.923C108.327 151.635 108.262 149.322 108.409 147.025C108.556 144.725 108.82 142.432 109.212 140.162C109.605 137.894 110.113 135.648 110.732 133.435C111.042 132.326 111.383 131.229 111.746 130.138C112.022 129.297 112.229 127.935 112.957 127.35C113.616 126.818 114.857 126.729 115.665 126.557C116.794 126.316 117.93 126.102 119.062 125.861C121.178 125.406 123.292 124.911 125.376 124.324C127.44 123.742 129.486 123.056 131.468 122.23C130.899 123.185 130.334 124.142 129.774 125.102C129.009 126.418 130.013 127.823 131.403 127.94C132.831 128.059 134.276 127.952 135.668 127.614C135.964 127.542 136.235 127.46 136.486 127.363C138.015 127.253 139.576 126.904 141.013 126.55L141.683 126.383C144.413 125.697 147.037 124.759 149.623 123.653C149.913 123.529 150.203 123.402 150.493 123.274C151.566 122.95 152.622 122.574 153.658 122.146C157.499 122.727 161.416 122.502 165.19 121.574C166.819 121.173 168.589 120.671 170.273 119.975C171.111 121.405 172.396 122.563 173.831 123.404C173.988 124.645 174.075 125.898 174.132 127.141C174.316 131.105 174.524 135.069 174.741 139.03L174.81 140.313C175.219 148.011 175.47 155.721 175.529 163.427C175.584 170.449 175.154 177.382 171.349 183.489C168.144 188.642 163.143 192.742 157.337 194.582C153.771 195.711 149.991 196.074 146.268 195.714C144.451 195.537 142.651 195.122 140.912 194.565L140.662 194.486C138.917 193.947 137.255 193.681 135.434 193.461C134.231 193.314 133.94 194.876 134.544 195.609C135.822 197.156 137.187 198.188 139.087 198.889C140.803 199.521 142.623 199.921 144.431 200.182C148.161 200.719 151.923 200.66 155.609 199.817C162.447 198.255 168.492 194.147 172.702 188.574C177.325 182.455 178.814 175.139 178.911 167.602C179.016 159.537 178.616 151.433 178.083 143.381L177.971 141.716C177.733 138.232 177.479 134.736 177.083 131.259C177.737 131.324 178.424 131.12 178.981 130.561C180.066 129.475 180.323 127.805 180.452 126.297L180.485 125.881C180.59 124.491 180.378 123.068 179.998 121.733C179.474 119.904 178.595 118.364 177.354 117.075C179.016 115.283 179.912 112.747 180.109 110.353C180.251 108.628 180.384 106.36 178.48 105.556C178.104 105.397 177.715 105.339 177.324 105.347C177.424 104.732 177.492 104.11 177.53 103.481C177.591 102.48 176.564 101.384 175.537 101.487C175.224 101.519 174.912 101.552 174.6 101.585C174.786 101.286 174.974 100.988 175.166 100.693C175.975 99.4557 174.882 98.0758 173.604 97.9701C170.207 97.6894 166.845 96.9929 163.605 95.9378C160.349 94.8775 156.948 93.8105 153.857 92.3346C153.638 92.2304 153.397 92.3075 153.248 92.4577C150.646 90.7234 146.869 90.4597 143.886 90.3405L143.581 90.3286ZM99.599 155.959C98.4444 155.422 96.8806 154.695 95.68 155.086C95.1305 155.266 94.9686 155.847 95.2173 156.275H95.1973L95.2489 156.357C95.4773 156.705 95.7703 156.941 96.0916 157.165L96.2418 157.267C95.8389 157.553 95.5306 157.966 95.3963 158.493C95.1802 159.331 95.5306 160.361 96.3263 160.781C96.6449 160.948 96.9902 161.04 97.3508 161.057C97.8594 161.079 98.2838 160.845 98.6688 160.552L98.7831 160.463C98.9525 160.328 99.0893 160.149 99.1984 159.955C100.126 161.154 100.907 162.569 102.545 162.614C103.329 162.636 104.214 162.012 104.376 161.219C104.393 161.142 104.408 161.064 104.423 160.99C104.575 160.246 104.465 159.376 103.856 158.844C102.633 157.78 101.37 156.772 99.885 156.091C99.7929 156.049 99.6974 156.004 99.599 155.959Z" fill="black" stroke="white" stroke-width="1.34657" mask="url(#path-5-inside-2_14_176)"/>
<path fill-rule="evenodd" clip-rule="evenodd" d="M162.671 133.44L162.313 133.366C161.893 133.282 161.471 133.318 161.099 133.469C160.735 133.617 160.418 133.875 160.196 134.247C159.902 134.743 159.862 135.159 159.999 135.708C160.105 136.132 160.336 136.452 160.639 136.682C160.958 136.925 161.363 137.067 161.783 137.116C163.721 137.344 165.63 137.77 167.485 138.376C168.355 138.659 169.175 139.044 169.988 139.442L170.689 139.788C171.336 140.104 172.004 140.409 172.848 140.63C172.914 140.647 172.98 140.664 173.045 140.679C173.279 140.606 173.319 140.517 173.368 140.452L173.388 140.427C173.448 140.351 173.523 140.235 173.452 139.695C171.611 135.876 166.559 134.252 162.671 133.44ZM138.54 134.523L139.006 134.441C140.451 134.192 142.246 133.952 143.268 135.113C143.81 135.728 143.996 136.873 143.268 137.462C142.314 138.234 141.285 138.209 140.188 138.181C139.812 138.172 139.427 138.162 139.035 138.185C137.77 138.257 136.554 138.467 135.335 138.815C132.662 139.579 130.483 140.974 128.199 142.506C127.9 142.707 127.594 142.324 127.737 142.044C129.055 139.462 131.61 137.341 134.168 136.048C135.534 135.358 137.029 134.786 138.54 134.523ZM135.152 145.792C135.359 143.216 139.281 142.632 139.671 145.18C140.021 147.463 139.609 149.56 138.581 151.615C137.599 153.578 135.129 152.662 134.943 150.874C134.758 149.108 134.889 148.055 135.022 146.982C135.07 146.599 135.118 146.213 135.152 145.792ZM167.29 143.723C166.344 143.446 165.554 143.935 165.007 144.651C164.944 144.734 164.893 144.816 164.847 144.897C163.139 146.465 163.782 149.646 165.125 151.238C165.949 152.215 167.772 151.933 168.336 150.824C169.374 148.782 170.245 144.586 167.29 143.723ZM159.716 162.923C161.736 160.093 158.875 157.432 156.997 156.29C156.505 155.937 156.896 154.768 157.947 154.948C167.495 156.589 162.548 173.036 150.357 164.011C148.906 162.84 150.663 160.261 152.228 161.264C152.307 161.325 152.39 161.389 152.477 161.456C154.234 162.815 157.45 165.301 159.716 162.923ZM150.973 180.301C149.301 179.62 147.809 178.482 146.719 177.029C146.34 176.524 146.242 175.99 146.321 175.502C146.411 174.954 146.735 174.457 147.178 174.123C147.622 173.789 148.177 173.624 148.714 173.708C149.181 173.781 149.645 174.036 150.013 174.566L150.089 174.672C150.738 175.549 151.583 176.269 152.545 176.733C153.473 177.18 154.51 177.388 155.584 177.267C157.629 177.036 159.039 175.93 160.537 174.428C160.723 174.239 160.908 174.043 161.095 173.844C161.213 173.664 161.377 173.548 161.558 173.488C161.76 173.42 161.988 173.424 162.197 173.497C162.399 173.567 162.579 173.701 162.7 173.878C162.815 174.047 162.88 174.255 162.859 174.495C162.722 176.051 161.908 177.44 160.752 178.531C159.468 179.742 157.767 180.58 156.165 180.874C154.4 181.198 152.601 180.966 150.973 180.301Z" fill="black"/>
<path fill-rule="evenodd" clip-rule="evenodd" d="M185.7 142.142C187.27 141.399 189.075 141.443 190.763 141.664C194.181 143.25 186.849 145.087 185.975 143.4C186.834 149.727 184.381 160.15 177.365 163.443C169.26 167.406 160.468 161.378 160.787 151.718C159.049 151.296 160.257 146.43 160.957 144.453C157.9 143.978 154.989 143.697 152.044 144.631C153.666 149.208 147.889 162.985 142.336 165.729C138.031 168.703 128.321 167.377 124.454 162.755C121.694 159.225 120.315 151.034 121.843 145.342C121.829 145.336 121.815 145.331 121.802 145.325C121.711 146.22 115.53 146.12 115.839 144.587C106.961 144.747 98.3646 146.108 89.5765 147.068C88.5152 147.167 88.4632 147.919 88.4124 148.655C88.3689 149.284 88.3263 149.902 87.6513 150.085C85.0488 150.147 86.2297 145.597 88.5224 145.175C90.7117 144.946 92.9162 144.649 95.1281 144.35C102.118 143.408 109.182 142.456 116.071 143.624C117.036 142.398 118.774 142.834 120.19 143.189C120.588 143.289 120.961 143.383 121.285 143.431C122.454 136.527 141.277 136.938 147.514 139.739C154.172 138.973 161.099 138.534 167.701 137.978C171.882 136.637 176.75 135.946 181.101 137.253C181.703 137.22 181.771 137.316 181.905 137.505C181.928 137.538 181.954 137.575 181.985 137.614C183.699 138.37 185.217 140.088 185.7 142.142ZM183.424 149.804C181.054 165.84 164.504 167.614 161.563 151.694C162.035 151.487 162.375 151.08 162.304 150.29C162.287 146.821 163.364 143.154 166.494 141.225C169.728 139.234 173.513 139.036 177.256 139.087C184.398 138.917 184.248 144.886 183.424 149.804ZM151.887 144.18C153.895 142.814 156.731 142.735 158.972 142.83C159.744 142.875 160.788 142.839 161.517 143.227C162.302 141.689 163.511 140.359 164.81 139.473C164.054 139.531 163.295 139.59 162.535 139.65C157.841 140.019 153.088 140.393 148.452 140.257C149.901 141.106 151.335 142.693 151.887 144.18ZM149.092 151.504C142.877 172.898 127.362 163.573 125.671 160.832C122.62 156.294 122.046 145.265 124.704 142.316C127.817 140.133 131.99 140.197 135.867 140.256C136.727 140.269 137.571 140.282 138.387 140.27C146.643 140.382 152.507 142.851 149.092 151.504Z" fill="black"/>
<defs>
<linearGradient id="paint0_linear_14_176" x1="128.832" y1="187.78" x2="128.832" y2="370.739" gradientUnits="userSpaceOnUse">
<stop stop-color="white"/>
<stop offset="1"/>
</linearGradient>
</defs>
</svg>
