<svg width="554" height="554" viewBox="0 0 554 554" fill="none" xmlns="http://www.w3.org/2000/svg">
<path d="M51.9998 425.716C55.1998 509.316 133.333 545.882 172 553.716H452.5C475.167 533.049 515.1 486.716 493.5 466.716C466.5 441.716 361.5 387.216 423.5 331.216C485.5 275.216 445 151.216 361.5 77.2155C278 3.21555 267 87.2155 237.5 137.216C208 187.216 104 42.7155 77 112.216C50 181.716 143 181.716 135 267.216C127 352.716 47.9998 321.216 51.9998 425.716Z" fill="black"/>
<path d="M373.002 360.146C369.795 359.002 366.703 357.682 363.887 355.739C355.768 349.696 350.474 340.601 345.472 331.984C338.425 319.451 333.406 306.097 329.936 292.166C328.445 286.18 327.939 279.24 324.551 273.934C316.872 262.822 294.354 264.262 282.397 266.213C274.39 267.629 272.735 276.59 270.916 283.221C269.402 288.73 268.411 294.302 267.578 299.948C265.599 301.25 263.364 302.307 261.234 303.228C238.018 310.346 233.937 323.544 225.07 343.931C210.093 373.562 169.454 385.164 163.315 420.232C159.36 443.383 170.607 465.164 182.203 484.411C193.002 505.433 208.079 515.524 232.089 510.557C254.609 505.505 276.252 497.054 298.376 490.524C309.091 487.89 319.79 481.037 331.061 483.426C354.287 488.642 378.15 491.095 401.952 490.418C435.371 491.769 435.365 459.694 431.935 434.856C429.533 396.201 410.036 371.38 373.002 360.146Z" fill="white"/>
<mask id="path-3-inside-1_14_176" fill="white">
<path fill-rule="evenodd" clip-rule="evenodd" d="M438.285 419.205C438.095 420.371 437.871 421.426 437.342 422.497C436.655 423.888 435.693 425.174 434.546 426.239C438.033 434.017 439.438 442.607 439.82 451.078C440.095 458.246 439.798 465.549 438.399 472.6C437.315 478.068 435.207 483.307 431.419 487.468C428.29 490.905 424.225 493.312 419.866 494.844C412.18 497.546 403.762 497.546 395.683 496.781C395.862 497.547 396.011 498.313 396.165 499.037C396.658 501.361 397.183 522.336 398.239 527.111C398.686 529.132 398.905 531.883 400.107 533.582C401.25 535.198 401.902 537.006 401.498 539.003C401.196 540.499 400.265 542.361 399.172 543.448C398.658 543.958 398.549 544.176 398.372 544.279C398.048 544.471 397.496 544.276 393.783 544.807C349.738 551.1 240.379 554.867 182.2 542.36C179.858 545.159 174.803 545.276 172.754 541.823C171.663 539.984 171.586 537.28 171.521 534.971C171.506 534.459 171.492 533.966 171.468 533.507C171.295 530.25 170.234 503.577 169.915 496.816C169.865 495.763 169.813 494.709 169.762 493.655C169.485 488.042 169.208 482.426 169.258 476.806C169.288 473.476 169.429 470.143 169.759 466.827C169.892 465.496 169.906 463.45 170.598 462.08C168.734 456.674 166.415 451.466 163.659 446.453C159.149 445.287 154.771 443.64 150.62 441.517C148.73 440.551 146.759 439.735 145.925 437.664C145.184 435.825 144.703 433.954 144.789 431.941C145.005 426.852 145.909 421.701 146.632 416.663C147.38 411.449 148.25 406.253 149.247 401.081C152.223 385.644 155.774 369.963 161.969 355.463C168.04 341.254 177.241 329.101 190.302 320.65C205.119 311.063 223.007 305.734 240.379 303.4C240.723 303.354 241.065 303.3 241.407 303.246C243.012 302.995 244.583 302.748 246.156 303.304C246.269 303.344 246.383 303.387 246.498 303.43C246.961 303.605 247.441 303.787 247.909 303.782C248.808 303.774 249.801 303.479 250.712 303.373C253.181 303.084 255.666 302.957 258.145 302.784C260.153 302.645 262.33 302.631 264.228 301.875C268.282 300.262 270.422 286.328 271.076 284.083C271.543 282.48 272.032 280.12 273.518 279.197C274.306 278.708 275.582 278.824 276.203 279.544C277.359 280.881 276.945 283.172 276.598 285.1C276.505 285.616 276.416 286.106 276.364 286.544C276.059 289.104 275.017 307.913 261.28 308.836C248.669 309.684 248.773 310.761 248.875 311.816C248.884 311.91 248.893 312.004 248.893 312.098C250.54 315.03 253.031 318.91 255.136 321.424C257.944 324.775 261.046 327.926 264.387 330.747C275.379 340.029 289.775 345.385 304.185 345.153C311.742 345.031 318.746 343.186 323.81 337.258C328.539 331.722 331.19 321.9 333.19 314.99C328.444 309.074 326.381 301.134 328.178 295.228C328.715 293.463 329.732 291.897 331.68 293.08C333.319 294.076 333.188 298.806 333.608 300.49C334.486 304.004 336.423 305.935 338.86 308.699C340.585 308.56 342.198 309.245 343.406 310.498C354.467 313.207 365.057 316.679 373.95 324.048C380.984 329.876 386.585 337.246 391.723 344.739C397.733 353.503 403.466 362.466 409.298 371.348C415.869 381.358 422.431 391.374 429.037 401.361C430.655 403.807 432.275 406.251 433.899 408.692C434.711 409.913 435.524 411.134 436.337 412.353C437.074 413.457 438.1 414.614 438.477 415.908C438.749 416.841 438.551 417.837 438.388 418.654C438.349 418.849 438.312 419.034 438.285 419.205ZM375.237 416.079C378.029 417.926 380.378 420.726 382.263 423.673C374.392 422.854 366.534 421.91 358.694 420.835C359.72 420.179 360.756 419.538 361.816 418.932C362.153 418.742 362.501 418.541 362.858 418.336C366.589 416.186 371.296 413.474 375.237 416.079ZM241.899 435.322C242.461 436.583 243.019 438.782 244.461 439.347C245.588 439.788 247.117 439.597 248.475 439.428C248.969 439.366 249.44 439.308 249.862 439.283C258.969 438.75 268.232 439.672 277.092 441.834C285.01 443.765 292.551 446.876 299.637 450.887C306.592 454.821 313.138 459.423 319.998 463.514C334.065 471.902 349.313 478.089 365.221 481.977C373.434 483.985 381.851 485.483 390.229 486.616C396.202 487.423 402.319 487.94 408.343 487.456C413.526 487.04 419.112 485.716 423.072 482.141C428.302 477.419 429.314 470.044 429.785 463.377C430.298 455.381 430.219 447.243 428.403 439.403C427.534 435.652 426.21 432.161 424.512 428.711C423.539 426.735 421.763 424.271 421.368 421.875C414.394 421.506 407.676 422.829 401.243 425.254C402.045 425.303 402.846 425.352 403.647 425.404C405.613 425.535 407.575 425.702 409.53 425.954C411.082 426.153 413.05 426.166 414.408 427.03C416.589 428.417 416.533 431.563 414.79 433.269C412.937 435.083 409.409 434.672 406.706 434.357C406.199 434.298 405.72 434.242 405.288 434.205C391.2 433.003 377.138 431.634 363.121 429.764C348.814 427.854 334.607 425.421 320.399 422.888C306.174 420.353 291.84 417.989 277.372 417.517C270.229 417.283 263.047 417.535 255.97 418.572C249.387 419.537 243.208 421.547 236.854 423.358C238.528 427.349 240.136 431.369 241.899 435.322ZM234.193 435.333C235.124 438.354 235.836 441.804 237.824 444.343C239.792 446.859 242.762 447.747 245.839 447.971C248.017 448.129 250.21 448.135 252.402 448.14C253.943 448.144 255.484 448.148 257.019 448.206C264.644 448.489 272.164 449.727 279.454 451.999C286.246 454.116 292.552 457.419 298.626 461.083C304.243 464.471 309.695 468.109 315.314 471.486C313.818 472.172 312.34 472.914 310.853 473.559C307.735 474.913 304.598 476.219 301.447 477.493C295.233 480.005 288.993 482.455 282.689 484.732C269.977 489.322 257.056 493.333 243.98 496.749C237.743 498.379 231.418 500.282 224.939 500.553C219.194 500.793 213.872 499.169 209.238 495.753C199.627 488.668 191.981 478.441 185.8 468.353C182.128 462.36 178.923 456.063 176.272 449.552C174.931 446.26 173.716 442.916 172.621 439.534C172.108 437.946 171.621 436.349 171.16 434.744C170.957 434.039 170.763 433.331 170.571 432.623C180.398 429.624 190.343 426.917 200.52 425.414C205.954 424.611 211.461 424.205 216.954 424.264C219.681 424.293 222.406 424.441 225.119 424.722C226.579 424.874 228.033 425.069 229.481 425.31C230.079 425.41 230.694 425.557 231.311 425.665C232.253 428.893 233.203 432.119 234.193 435.333Z"/>
</mask>
<path fill-rule="evenodd" clip-rule="evenodd" d="M438.285 419.205C438.095 420.371 437.871 421.426 437.342 422.497C436.655 423.888 435.693 425.174 434.546 426.239C438.033 434.017 439.438 442.607 439.82 451.078C440.095 458.246 439.798 465.549 438.399 472.6C437.315 478.068 435.207 483.307 431.419 487.468C428.29 490.905 424.225 493.312 419.866 494.844C412.18 497.546 403.762 497.546 395.683 496.781C395.862 497.547 396.011 498.313 396.165 499.037C396.658 501.361 397.183 522.336 398.239 527.111C398.686 529.132 398.905 531.883 400.107 533.582C401.25 535.198 401.902 537.006 401.498 539.003C401.196 540.499 400.265 542.361 399.172 543.448C398.658 543.958 398.549 544.176 398.372 544.279C398.048 544.471 397.496 544.276 393.783 544.807C349.738 551.1 240.379 554.867 182.2 542.36C179.858 545.159 174.803 545.276 172.754 541.823C171.663 539.984 171.586 537.28 171.521 534.971C171.506 534.459 171.492 533.966 171.468 533.507C171.295 530.25 170.234 503.577 169.915 496.816C169.865 495.763 169.813 494.709 169.762 493.655C169.485 488.042 169.208 482.426 169.258 476.806C169.288 473.476 169.429 470.143 169.759 466.827C169.892 465.496 169.906 463.45 170.598 462.08C168.734 456.674 166.415 451.466 163.659 446.453C159.149 445.287 154.771 443.64 150.62 441.517C148.73 440.551 146.759 439.735 145.925 437.664C145.184 435.825 144.703 433.954 144.789 431.941C145.005 426.852 145.909 421.701 146.632 416.663C147.38 411.449 148.25 406.253 149.247 401.081C152.223 385.644 155.774 369.963 161.969 355.463C168.04 341.254 177.241 329.101 190.302 320.65C205.119 311.063 223.007 305.734 240.379 303.4C240.723 303.354 241.065 303.3 241.407 303.246C243.012 302.995 244.583 302.748 246.156 303.304C246.269 303.344 246.383 303.387 246.498 303.43C246.961 303.605 247.441 303.787 247.909 303.782C248.808 303.774 249.801 303.479 250.712 303.373C253.181 303.084 255.666 302.957 258.145 302.784C260.153 302.645 262.33 302.631 264.228 301.875C268.282 300.262 270.422 286.328 271.076 284.083C271.543 282.48 272.032 280.12 273.518 279.197C274.306 278.708 275.582 278.824 276.203 279.544C277.359 280.881 276.945 283.172 276.598 285.1C276.505 285.616 276.416 286.106 276.364 286.544C276.059 289.104 275.017 307.913 261.28 308.836C248.669 309.684 248.773 310.761 248.875 311.816C248.884 311.91 248.893 312.004 248.893 312.098C250.54 315.03 253.031 318.91 255.136 321.424C257.944 324.775 261.046 327.926 264.387 330.747C275.379 340.029 289.775 345.385 304.185 345.153C311.742 345.031 318.746 343.186 323.81 337.258C328.539 331.722 331.19 321.9 333.19 314.99C328.444 309.074 326.381 301.134 328.178 295.228C328.715 293.463 329.732 291.897 331.68 293.08C333.319 294.076 333.188 298.806 333.608 300.49C334.486 304.004 336.423 305.935 338.86 308.699C340.585 308.56 342.198 309.245 343.406 310.498C354.467 313.207 365.057 316.679 373.95 324.048C380.984 329.876 386.585 337.246 391.723 344.739C397.733 353.503 403.466 362.466 409.298 371.348C415.869 381.358 422.431 391.374 429.037 401.361C430.655 403.807 432.275 406.251 433.899 408.692C434.711 409.913 435.524 411.134 436.337 412.353C437.074 413.457 438.1 414.614 438.477 415.908C438.749 416.841 438.551 417.837 438.388 418.654C438.349 418.849 438.312 419.034 438.285 419.205ZM375.237 416.079C378.029 417.926 380.378 420.726 382.263 423.673C374.392 422.854 366.534 421.91 358.694 420.835C359.72 420.179 360.756 419.538 361.816 418.932C362.153 418.742 362.501 418.541 362.858 418.336C366.589 416.186 371.296 413.474 375.237 416.079ZM241.899 435.322C242.461 436.583 243.019 438.782 244.461 439.347C245.588 439.788 247.117 439.597 248.475 439.428C248.969 439.366 249.44 439.308 249.862 439.283C258.969 438.75 268.232 439.672 277.092 441.834C285.01 443.765 292.551 446.876 299.637 450.887C306.592 454.821 313.138 459.423 319.998 463.514C334.065 471.902 349.313 478.089 365.221 481.977C373.434 483.985 381.851 485.483 390.229 486.616C396.202 487.423 402.319 487.94 408.343 487.456C413.526 487.04 419.112 485.716 423.072 482.141C428.302 477.419 429.314 470.044 429.785 463.377C430.298 455.381 430.219 447.243 428.403 439.403C427.534 435.652 426.21 432.161 424.512 428.711C423.539 426.735 421.763 424.271 421.368 421.875C414.394 421.506 407.676 422.829 401.243 425.254C402.045 425.303 402.846 425.352 403.647 425.404C405.613 425.535 407.575 425.702 409.53 425.954C411.082 426.153 413.05 426.166 414.408 427.03C416.589 428.417 416.533 431.563 414.79 433.269C412.937 435.083 409.409 434.672 406.706 434.357C406.199 434.298 405.72 434.242 405.288 434.205C391.2 433.003 377.138 431.634 363.121 429.764C348.814 427.854 334.607 425.421 320.399 422.888C306.174 420.353 291.84 417.989 277.372 417.517C270.229 417.283 263.047 417.535 255.97 418.572C249.387 419.537 243.208 421.547 236.854 423.358C238.528 427.349 240.136 431.369 241.899 435.322ZM234.193 435.333C235.124 438.354 235.836 441.804 237.824 444.343C239.792 446.859 242.762 447.747 245.839 447.971C248.017 448.129 250.21 448.135 252.402 448.14C253.943 448.144 255.484 448.148 257.019 448.206C264.644 448.489 272.164 449.727 279.454 451.999C286.246 454.116 292.552 457.419 298.626 461.083C304.243 464.471 309.695 468.109 315.314 471.486C313.818 472.172 312.34 472.914 310.853 473.559C307.735 474.913 304.598 476.219 301.447 477.493C295.233 480.005 288.993 482.455 282.689 484.732C269.977 489.322 257.056 493.333 243.98 496.749C237.743 498.379 231.418 500.282 224.939 500.553C219.194 500.793 213.872 499.169 209.238 495.753C199.627 488.668 191.981 478.441 185.8 468.353C182.128 462.36 178.923 456.063 176.272 449.552C174.931 446.26 173.716 442.916 172.621 439.534C172.108 437.946 171.621 436.349 171.16 434.744C170.957 434.039 170.763 433.331 170.571 432.623C180.398 429.624 190.343 426.917 200.52 425.414C205.954 424.611 211.461 424.205 216.954 424.264C219.681 424.293 222.406 424.441 225.119 424.722C226.579 424.874 228.033 425.069 229.481 425.31C230.079 425.41 230.694 425.557 231.311 425.665C232.253 428.893 233.203 432.119 234.193 435.333Z" fill="black" stroke="url(#paint0_linear_14_176)" stroke-width="2" mask="url(#path-3-inside-1_14_176)"/>
<path d="M362.142 222.394C361.347 215.408 362.376 200.806 362.445 199.919C362.881 194.311 360.253 172.164 355.286 174.205C346.952 167.608 335.854 166.151 325.476 165.456C303.918 164.01 280.986 167.329 264.34 181.836C256.108 189.37 248.093 200.328 248.738 211.737C241.258 222.552 230.714 237.387 240.033 250.03C243.201 254.07 248.235 255.574 252.214 258.633C260.219 265.089 265.24 274.354 273.32 280.772C294.727 300.008 331.075 304.026 352.107 282.147C368.371 266.301 365.741 242.595 362.881 222.394C360.957 208.812 363.693 236.023 362.142 222.394Z" fill="white"/>
<mask id="path-5-inside-2_14_176" fill="white">
<path fill-rule="evenodd" clip-rule="evenodd" d="M314.251 134.161C308.363 133.943 302.443 134.667 296.678 135.83C285.236 138.135 273.517 141.906 263.153 147.313C258.802 149.584 254.787 152.389 251.167 155.621C247.894 154.056 242.731 153.929 241.682 157.517C241.381 158.547 241.531 159.481 241.963 160.28C241.837 160.351 241.712 160.428 241.591 160.51C240.765 161.062 240.324 161.465 239.813 161.972L239.41 162.377C238.132 163.659 238.011 166.031 239.41 167.297L239.601 167.47L239.719 167.572C239.957 167.773 240.213 167.942 240.48 168.082C235.578 175.594 232.251 184.154 230.874 193.099C230.065 198.351 229.829 203.603 230.438 208.888C230.734 211.47 231.177 214.225 232.081 216.667C232.521 217.859 233.141 219.019 233.699 220.164C234.305 221.412 235.298 222.325 236.114 223.44C236.203 223.555 236.343 223.614 236.48 223.617C236.233 224.127 236.007 224.644 235.797 225.158C234.589 228.108 233.659 231.288 233.12 234.431C232.104 240.359 232.724 247.026 237.237 251.461C239.036 253.227 241.821 254.641 244.558 255.018C243.682 255.919 242.977 256.99 242.412 258.224C241.356 260.525 243.117 263.638 245.917 262.782C246.449 262.619 246.977 262.412 247.494 262.183C248.299 263.782 250.02 264.865 251.867 264.588C252.942 264.425 253.717 264.008 254.249 263.42C255.582 266.368 257.351 269.045 259.593 271.409C261.964 273.913 264.583 276.17 266.947 278.681C269.244 281.119 270.607 284.303 273.314 286.312C274.156 286.936 275.445 286.271 275.682 285.348C276.599 281.755 274.127 278.763 271.782 276.292L271.486 275.981C268.97 273.367 266.064 271.184 263.386 268.746C260.605 266.213 258.367 263.524 256.35 260.348C256.176 260.074 256.002 259.795 255.828 259.514L255.036 258.228C254.995 258.039 254.95 257.855 254.899 257.674C254.858 256.946 254.615 256.255 254.146 255.62C253.565 254.833 252.79 254.239 251.926 253.962C251.634 253.652 251.331 253.356 251.014 253.083C251.409 252.651 251.756 252.141 252.052 251.55C252.598 250.449 251.959 248.699 250.497 248.843C250.057 248.885 249.626 248.865 249.195 248.845C248.723 248.823 248.251 248.802 247.771 248.861C247.656 248.876 247.541 248.891 247.426 248.906C246.637 249.011 245.849 249.115 245.052 249.005C243.417 248.773 241.95 247.886 240.887 246.645C238.223 243.543 237.943 239.081 238.5 235.211C238.747 233.483 239.168 231.784 239.616 230.096L240.308 227.509C240.702 226.063 241.177 224.565 242.105 223.388C245.018 219.695 250.008 222.593 252.995 224.817L253.267 225.021C253.293 225.039 253.315 225.047 253.341 225.047C253.499 225.305 253.669 225.56 253.847 225.804C254.825 227.126 256.01 228.301 257.233 229.409L257.483 229.636C257.65 229.787 257.819 229.937 257.987 230.084C259.416 231.344 261.351 230.417 261.54 228.614C261.89 225.217 261.795 221.782 262.012 218.369C262.23 214.953 262.622 211.548 263.205 208.176C263.789 204.807 264.542 201.472 265.462 198.185C265.923 196.538 266.429 194.909 266.969 193.288C267.379 192.039 267.685 190.015 268.767 189.148C269.746 188.357 271.589 188.224 272.79 187.969C274.466 187.611 276.154 187.293 277.834 186.935C280.978 186.259 284.117 185.524 287.212 184.653C290.278 183.788 293.317 182.769 296.261 181.543C295.415 182.961 294.576 184.383 293.745 185.809C292.608 187.763 294.1 189.849 296.165 190.023C298.284 190.2 300.431 190.041 302.498 189.539C302.938 189.432 303.341 189.31 303.714 189.166C305.985 189.003 308.303 188.485 310.437 187.959L311.433 187.711C315.488 186.691 319.384 185.299 323.226 183.656C323.656 183.472 324.087 183.284 324.517 183.093C326.111 182.612 327.68 182.053 329.219 181.418C334.923 182.281 340.741 181.946 346.346 180.568C348.765 179.973 351.395 179.227 353.895 178.193C355.14 180.317 357.049 182.038 359.18 183.286C359.413 185.129 359.542 186.991 359.627 188.837C359.9 194.724 360.21 200.612 360.532 206.495L360.635 208.4C361.243 219.834 361.615 231.285 361.703 242.73C361.784 253.16 361.145 263.457 355.494 272.528C350.734 280.181 343.306 286.271 334.683 289.004C329.386 290.681 323.772 291.22 318.243 290.685C315.544 290.422 312.87 289.806 310.288 288.978L309.917 288.861C307.324 288.061 304.856 287.666 302.152 287.338C300.364 287.121 299.932 289.44 300.829 290.53C302.728 292.827 304.755 294.36 307.577 295.401C310.126 296.339 312.829 296.934 315.514 297.322C321.054 298.119 326.642 298.031 332.116 296.779C342.272 294.459 351.25 288.358 357.504 280.081C364.37 270.992 366.581 260.126 366.726 248.932C366.881 236.953 366.287 224.916 365.496 212.957L365.33 210.484C364.975 205.31 364.599 200.117 364.011 194.953C364.983 195.049 366.002 194.747 366.829 193.916C368.441 192.304 368.823 189.823 369.014 187.583L369.064 186.965C369.219 184.9 368.905 182.788 368.34 180.804C367.561 178.088 366.256 175.801 364.412 173.886C366.882 171.225 368.212 167.458 368.505 163.902C368.717 161.34 368.913 157.972 366.086 156.778C365.527 156.542 364.949 156.455 364.368 156.467C364.517 155.554 364.618 154.631 364.675 153.696C364.765 152.21 363.24 150.58 361.714 150.734C361.25 150.781 360.786 150.831 360.322 150.879C360.599 150.436 360.878 149.993 361.164 149.555C362.366 147.717 360.741 145.668 358.843 145.511C353.798 145.094 348.805 144.059 343.992 142.492C339.157 140.917 334.106 139.332 329.513 137.14C329.189 136.986 328.832 137.1 328.609 137.323C324.745 134.747 319.135 134.356 314.705 134.179L314.251 134.161ZM248.927 231.638C247.212 230.841 244.89 229.761 243.106 230.343C242.29 230.609 242.05 231.473 242.419 232.108H242.39L242.466 232.231C242.805 232.747 243.241 233.097 243.718 233.429L243.941 233.582C243.342 234.007 242.884 234.62 242.685 235.403C242.364 236.647 242.884 238.177 244.066 238.801C244.539 239.048 245.052 239.185 245.588 239.211C246.343 239.244 246.974 238.896 247.546 238.461L247.715 238.328C247.967 238.129 248.17 237.863 248.332 237.575C249.71 239.355 250.869 241.456 253.303 241.523C254.467 241.556 255.782 240.629 256.022 239.451C256.048 239.336 256.07 239.222 256.092 239.111C256.317 238.007 256.155 236.714 255.25 235.924C253.433 234.343 251.557 232.847 249.352 231.835C249.215 231.772 249.073 231.706 248.927 231.638Z"/>
</mask>
<path fill-rule="evenodd" clip-rule="evenodd" d="M314.251 134.161C308.363 133.943 302.443 134.667 296.678 135.83C285.236 138.135 273.517 141.906 263.153 147.313C258.802 149.584 254.787 152.389 251.167 155.621C247.894 154.056 242.731 153.929 241.682 157.517C241.381 158.547 241.531 159.481 241.963 160.28C241.837 160.351 241.712 160.428 241.591 160.51C240.765 161.062 240.324 161.465 239.813 161.972L239.41 162.377C238.132 163.659 238.011 166.031 239.41 167.297L239.601 167.47L239.719 167.572C239.957 167.773 240.213 167.942 240.48 168.082C235.578 175.594 232.251 184.154 230.874 193.099C230.065 198.351 229.829 203.603 230.438 208.888C230.734 211.47 231.177 214.225 232.081 216.667C232.521 217.859 233.141 219.019 233.699 220.164C234.305 221.412 235.298 222.325 236.114 223.44C236.203 223.555 236.343 223.614 236.48 223.617C236.233 224.127 236.007 224.644 235.797 225.158C234.589 228.108 233.659 231.288 233.12 234.431C232.104 240.359 232.724 247.026 237.237 251.461C239.036 253.227 241.821 254.641 244.558 255.018C243.682 255.919 242.977 256.99 242.412 258.224C241.356 260.525 243.117 263.638 245.917 262.782C246.449 262.619 246.977 262.412 247.494 262.183C248.299 263.782 250.02 264.865 251.867 264.588C252.942 264.425 253.717 264.008 254.249 263.42C255.582 266.368 257.351 269.045 259.593 271.409C261.964 273.913 264.583 276.17 266.947 278.681C269.244 281.119 270.607 284.303 273.314 286.312C274.156 286.936 275.445 286.271 275.682 285.348C276.599 281.755 274.127 278.763 271.782 276.292L271.486 275.981C268.97 273.367 266.064 271.184 263.386 268.746C260.605 266.213 258.367 263.524 256.35 260.348C256.176 260.074 256.002 259.795 255.828 259.514L255.036 258.228C254.995 258.039 254.95 257.855 254.899 257.674C254.858 256.946 254.615 256.255 254.146 255.62C253.565 254.833 252.79 254.239 251.926 253.962C251.634 253.652 251.331 253.356 251.014 253.083C251.409 252.651 251.756 252.141 252.052 251.55C252.598 250.449 251.959 248.699 250.497 248.843C250.057 248.885 249.626 248.865 249.195 248.845C248.723 248.823 248.251 248.802 247.771 248.861C247.656 248.876 247.541 248.891 247.426 248.906C246.637 249.011 245.849 249.115 245.052 249.005C243.417 248.773 241.95 247.886 240.887 246.645C238.223 243.543 237.943 239.081 238.5 235.211C238.747 233.483 239.168 231.784 239.616 230.096L240.308 227.509C240.702 226.063 241.177 224.565 242.105 223.388C245.018 219.695 250.008 222.593 252.995 224.817L253.267 225.021C253.293 225.039 253.315 225.047 253.341 225.047C253.499 225.305 253.669 225.56 253.847 225.804C254.825 227.126 256.01 228.301 257.233 229.409L257.483 229.636C257.65 229.787 257.819 229.937 257.987 230.084C259.416 231.344 261.351 230.417 261.54 228.614C261.89 225.217 261.795 221.782 262.012 218.369C262.23 214.953 262.622 211.548 263.205 208.176C263.789 204.807 264.542 201.472 265.462 198.185C265.923 196.538 266.429 194.909 266.969 193.288C267.379 192.039 267.685 190.015 268.767 189.148C269.746 188.357 271.589 188.224 272.79 187.969C274.466 187.611 276.154 187.293 277.834 186.935C280.978 186.259 284.117 185.524 287.212 184.653C290.278 183.788 293.317 182.769 296.261 181.543C295.415 182.961 294.576 184.383 293.745 185.809C292.608 187.763 294.1 189.849 296.165 190.023C298.284 190.2 300.431 190.041 302.498 189.539C302.938 189.432 303.341 189.31 303.714 189.166C305.985 189.003 308.303 188.485 310.437 187.959L311.433 187.711C315.488 186.691 319.384 185.299 323.226 183.656C323.656 183.472 324.087 183.284 324.517 183.093C326.111 182.612 327.68 182.053 329.219 181.418C334.923 182.281 340.741 181.946 346.346 180.568C348.765 179.973 351.395 179.227 353.895 178.193C355.14 180.317 357.049 182.038 359.18 183.286C359.413 185.129 359.542 186.991 359.627 188.837C359.9 194.724 360.21 200.612 360.532 206.495L360.635 208.4C361.243 219.834 361.615 231.285 361.703 242.73C361.784 253.16 361.145 263.457 355.494 272.528C350.734 280.181 343.306 286.271 334.683 289.004C329.386 290.681 323.772 291.22 318.243 290.685C315.544 290.422 312.87 289.806 310.288 288.978L309.917 288.861C307.324 288.061 304.856 287.666 302.152 287.338C300.364 287.121 299.932 289.44 300.829 290.53C302.728 292.827 304.755 294.36 307.577 295.401C310.126 296.339 312.829 296.934 315.514 297.322C321.054 298.119 326.642 298.031 332.116 296.779C342.272 294.459 351.25 288.358 357.504 280.081C364.37 270.992 366.581 260.126 366.726 248.932C366.881 236.953 366.287 224.916 365.496 212.957L365.33 210.484C364.975 205.31 364.599 200.117 364.011 194.953C364.983 195.049 366.002 194.747 366.829 193.916C368.441 192.304 368.823 189.823 369.014 187.583L369.064 186.965C369.219 184.9 368.905 182.788 368.34 180.804C367.561 178.088 366.256 175.801 364.412 173.886C366.882 171.225 368.212 167.458 368.505 163.902C368.717 161.34 368.913 157.972 366.086 156.778C365.527 156.542 364.949 156.455 364.368 156.467C364.517 155.554 364.618 154.631 364.675 153.696C364.765 152.21 363.24 150.58 361.714 150.734C361.25 150.781 360.786 150.831 360.322 150.879C360.599 150.436 360.878 149.993 361.164 149.555C362.366 147.717 360.741 145.668 358.843 145.511C353.798 145.094 348.805 144.059 343.992 142.492C339.157 140.917 334.106 139.332 329.513 137.14C329.189 136.986 328.832 137.1 328.609 137.323C324.745 134.747 319.135 134.356 314.705 134.179L314.251 134.161ZM248.927 231.638C247.212 230.841 244.89 229.761 243.106 230.343C242.29 230.609 242.05 231.473 242.419 232.108H242.39L242.466 232.231C242.805 232.747 243.241 233.097 243.718 233.429L243.941 233.582C243.342 234.007 242.884 234.62 242.685 235.403C242.364 236.647 242.884 238.177 244.066 238.801C244.539 239.048 245.052 239.185 245.588 239.211C246.343 239.244 246.974 238.896 247.546 238.461L247.715 238.328C247.967 238.129 248.17 237.863 248.332 237.575C249.71 239.355 250.869 241.456 253.303 241.523C254.467 241.556 255.782 240.629 256.022 239.451C256.048 239.336 256.07 239.222 256.092 239.111C256.317 238.007 256.155 236.714 255.25 235.924C253.433 234.343 251.557 232.847 249.352 231.835C249.215 231.772 249.073 231.706 248.927 231.638Z" fill="black" stroke="white" stroke-width="2" mask="url(#path-5-inside-2_14_176)"/>
<path fill-rule="evenodd" clip-rule="evenodd" d="M342.605 198.192L342.074 198.083C341.45 197.958 340.822 198.011 340.271 198.235C339.73 198.455 339.259 198.838 338.93 199.391C338.492 200.127 338.434 200.745 338.637 201.561C338.794 202.191 339.138 202.666 339.587 203.008C340.062 203.369 340.662 203.58 341.286 203.653C344.165 203.991 347 204.624 349.756 205.523C351.047 205.944 352.266 206.515 353.474 207.107L354.515 207.62C355.475 208.09 356.467 208.543 357.721 208.871C357.819 208.897 357.916 208.921 358.013 208.944C358.361 208.835 358.42 208.703 358.493 208.607L358.523 208.57C358.613 208.457 358.723 208.285 358.618 207.483C355.884 201.81 348.38 199.399 342.605 198.192ZM306.764 199.801L307.457 199.68C309.602 199.309 312.269 198.952 313.787 200.677C314.592 201.591 314.869 203.291 313.787 204.166C312.37 205.313 310.842 205.275 309.213 205.234C308.654 205.221 308.083 205.206 307.5 205.24C305.621 205.348 303.815 205.659 302.005 206.176C298.034 207.311 294.798 209.383 291.406 211.658C290.961 211.956 290.507 211.387 290.719 210.971C292.677 207.136 296.471 203.986 300.272 202.066C302.3 201.041 304.52 200.191 306.764 199.801ZM301.732 216.538C302.04 212.713 307.865 211.844 308.445 215.629C308.964 219.02 308.353 222.134 306.826 225.187C305.367 228.103 301.699 226.742 301.422 224.087C301.148 221.464 301.342 219.899 301.54 218.306C301.61 217.736 301.682 217.164 301.732 216.538ZM349.465 213.465C348.06 213.054 346.888 213.781 346.075 214.844C345.982 214.967 345.905 215.088 345.837 215.209C343.301 217.539 344.256 222.262 346.251 224.627C347.474 226.078 350.182 225.66 351.019 224.013C352.561 220.979 353.855 214.747 349.465 213.465ZM338.216 241.982C341.217 237.779 336.967 233.826 334.178 232.131C333.448 231.607 334.027 229.869 335.589 230.138C349.77 232.574 342.422 257.002 324.316 243.598C322.161 241.858 324.771 238.028 327.094 239.517C327.212 239.608 327.336 239.703 327.465 239.803C330.075 241.821 334.851 245.514 338.216 241.982ZM325.23 267.794C322.747 266.781 320.532 265.092 318.913 262.933C318.349 262.183 318.204 261.391 318.322 260.666C318.454 259.851 318.937 259.113 319.594 258.617C320.253 258.12 321.078 257.876 321.876 258C322.569 258.109 323.259 258.488 323.805 259.275L323.919 259.433C324.881 260.735 326.136 261.804 327.566 262.493C328.944 263.157 330.485 263.467 332.08 263.287C335.117 262.944 337.21 261.301 339.436 259.07C339.712 258.789 339.987 258.498 340.265 258.203C340.44 257.935 340.683 257.763 340.953 257.673C341.252 257.573 341.591 257.579 341.902 257.687C342.201 257.792 342.469 257.99 342.648 258.253C342.819 258.503 342.915 258.813 342.884 259.169C342.681 261.481 341.472 263.544 339.755 265.164C337.849 266.963 335.321 268.208 332.942 268.644C330.32 269.125 327.649 268.781 325.23 267.794Z" fill="black"/>
<path fill-rule="evenodd" clip-rule="evenodd" d="M376.809 211.118C379.141 210.013 381.821 210.079 384.33 210.407C389.406 212.763 378.515 215.492 377.218 212.985C378.493 222.382 374.849 237.864 364.43 242.755C352.392 248.641 339.334 239.688 339.807 225.34C337.226 224.713 339.02 217.486 340.06 214.55C335.52 213.844 331.195 213.427 326.821 214.814C329.231 221.612 320.651 242.074 312.402 246.15C306.008 250.567 291.587 248.597 285.843 241.733C281.744 236.49 279.696 224.324 281.965 215.87C281.945 215.861 281.924 215.854 281.905 215.844C281.769 217.174 272.589 217.026 273.048 214.749C259.861 214.986 247.094 217.008 234.041 218.434C232.465 218.58 232.388 219.698 232.312 220.79C232.248 221.725 232.185 222.642 231.182 222.914C227.317 223.006 229.071 216.248 232.476 215.621C235.727 215.282 239.002 214.84 242.287 214.397C252.669 212.997 263.16 211.583 273.393 213.318C274.826 211.497 277.406 212.145 279.51 212.672C280.102 212.821 280.656 212.96 281.136 213.032C282.873 202.778 310.829 203.387 320.093 207.548C329.982 206.41 340.27 205.759 350.077 204.933C356.286 202.941 363.516 201.914 369.978 203.856C370.872 203.807 370.973 203.949 371.172 204.23C371.207 204.28 371.246 204.334 371.292 204.392C373.837 205.514 376.091 208.066 376.809 211.118ZM373.429 222.497C369.908 246.315 345.328 248.949 340.96 225.304C341.661 224.997 342.165 224.393 342.06 223.22C342.035 218.067 343.635 212.62 348.283 209.755C353.087 206.798 358.708 206.505 364.267 206.579C374.875 206.327 374.652 215.193 373.429 222.497ZM326.589 214.144C329.571 212.116 333.783 211.998 337.112 212.138C338.258 212.206 339.809 212.152 340.891 212.729C342.058 210.445 343.853 208.469 345.782 207.154C344.659 207.239 343.532 207.327 342.404 207.416C335.431 207.964 328.371 208.52 321.486 208.318C323.638 209.579 325.769 211.936 326.589 214.144ZM322.438 225.022C313.206 256.798 290.163 242.948 287.651 238.876C283.12 232.137 282.267 215.756 286.214 211.376C290.839 208.134 297.037 208.228 302.794 208.316C304.071 208.336 305.326 208.355 306.538 208.337C318.8 208.503 327.509 212.171 322.438 225.022Z" fill="black"/>
<defs>
<linearGradient id="paint0_linear_14_176" x1="292.346" y1="278.901" x2="292.346" y2="550.642" gradientUnits="userSpaceOnUse">
<stop stop-color="white"/>
<stop offset="1"/>
</linearGradient>
</defs>
</svg>
